{"glyphs":{"0":{"ha":850,"x_min":0,"x_max":0,"o":"m 425 -17 b 779 463 678 -17 779 238 b 425 940 779 689 678 940 b 71 463 171 940 71 689 b 425 -17 71 238 171 -17 z m 425 86 b 189 463 249 86 189 278 b 425 838 189 647 249 838 b 661 463 601 838 661 647 b 425 86 661 278 601 86 z "},"1":{"ha":471,"x_min":0,"x_max":0,"o":"m 363 0 l 363 926 l 261 926 l 29 688 l 99 617 l 247 774 l 247 0 z "},"2":{"ha":817,"x_min":0,"x_max":0,"o":"m 711 0 l 711 103 l 257 103 b 707 668 515 307 707 479 b 396 940 707 853 550 940 b 74 794 265 940 144 888 l 144 721 b 396 838 199 790 285 838 b 589 668 492 838 589 786 b 75 92 589 508 408 354 l 75 0 z "},"3":{"ha":774,"x_min":0,"x_max":0,"o":"m 369 -17 b 697 250 574 -17 697 96 b 483 478 697 399 568 471 b 683 693 571 493 683 560 b 369 940 683 850 547 940 b 53 797 226 940 119 878 l 117 725 b 361 838 185 799 260 838 b 568 679 474 838 568 782 b 353 526 568 572 469 526 b 257 528 315 526 272 526 l 257 422 b 353 424 271 424 314 424 b 583 260 489 424 583 375 b 367 86 583 153 501 86 b 108 208 257 86 163 136 l 40 136 b 369 -17 97 53 213 -17 z "},"4":{"ha":775,"x_min":0,"x_max":0,"o":"m 600 0 l 600 235 l 731 235 l 731 336 l 600 336 l 600 926 l 442 926 l 44 331 l 44 235 l 485 235 l 485 0 z m 485 336 l 160 336 l 485 819 z "},"5":{"ha":819,"x_min":0,"x_max":0,"o":"m 418 -17 b 747 289 604 -17 747 100 b 453 585 747 479 607 585 b 236 501 360 585 281 546 l 236 824 l 688 824 l 688 926 l 121 926 l 121 426 l 206 397 b 419 485 268 458 338 485 b 632 285 544 485 632 407 b 418 86 632 172 544 86 b 163 208 304 86 224 131 l 92 132 b 418 -17 161 40 261 -17 z "},"6":{"ha":821,"x_min":0,"x_max":0,"o":"m 428 -17 b 753 286 631 -17 753 125 b 450 582 753 483 617 582 b 188 438 331 582 228 501 b 186 474 186 450 186 461 b 447 838 186 656 268 838 b 646 743 544 838 599 799 l 704 829 b 447 940 647 894 567 940 b 71 461 188 940 71 713 b 428 -17 71 210 169 -17 z m 424 86 b 190 343 263 86 201 228 b 422 482 242 425 331 482 b 636 282 542 482 636 418 b 424 86 636 193 567 86 z "},"7":{"ha":715,"x_min":0,"x_max":0,"o":"m 296 0 l 675 847 l 675 926 l 43 926 l 43 824 l 542 824 l 168 0 z "},"8":{"ha":807,"x_min":0,"x_max":0,"o":"m 404 -17 b 736 235 586 -17 736 78 b 515 478 736 358 631 443 b 722 700 622 508 722 578 b 404 940 722 867 557 940 b 88 700 250 940 88 867 b 293 478 88 578 186 508 b 72 235 178 443 72 358 b 404 -17 72 76 221 -17 z m 404 525 b 203 685 349 535 203 572 b 404 838 203 781 292 838 b 606 685 515 838 606 781 b 404 525 606 572 461 535 z m 404 86 b 188 247 289 86 188 147 b 404 426 188 368 347 419 b 619 247 461 419 619 368 b 404 86 619 147 518 86 z "},"9":{"ha":821,"x_min":0,"x_max":0,"o":"m 374 -15 b 750 463 633 -15 750 213 b 392 942 750 715 651 942 b 68 639 190 942 68 799 b 372 343 68 442 206 343 b 633 488 490 343 593 424 b 635 450 635 475 635 463 b 374 88 635 275 561 88 b 175 182 278 88 222 126 l 117 96 b 374 -15 175 29 256 -15 z m 399 443 b 185 643 279 443 185 507 b 397 839 185 731 256 839 b 629 581 558 839 619 696 b 399 443 581 499 490 443 z "},"\u0000":{"ha":0,"x_min":0,"x_max":0,"o":""},"\r":{"ha":0,"x_min":0,"x_max":0,"o":""}," ":{"ha":358,"x_min":0,"x_max":0,"o":""}," ":{"ha":358,"x_min":0,"x_max":0,"o":""}," ":{"ha":71,"x_min":0,"x_max":0,"o":""},"":{"ha":831,"x_min":0,"x_max":0,"o":"m 415 -17 b 769 463 668 -17 769 238 b 415 940 769 689 668 940 b 61 463 161 940 61 689 b 415 -17 61 238 161 -17 z m 415 86 b 179 463 239 86 179 278 b 415 838 179 647 239 838 b 651 463 592 838 651 647 b 415 86 651 278 592 86 z "},"":{"ha":831,"x_min":0,"x_max":0,"o":"m 415 -17 b 769 463 668 -17 769 238 b 674 806 769 583 740 713 l 749 926 l 658 926 l 619 865 b 415 940 567 911 500 940 b 61 463 161 940 61 689 b 156 119 61 342 89 213 l 81 0 l 171 0 l 208 60 b 415 -17 261 13 329 -17 z m 415 86 b 267 153 351 86 303 111 l 608 700 b 651 463 639 632 651 547 b 415 86 651 278 592 86 z m 179 463 b 415 838 179 647 239 838 b 563 772 478 838 526 813 l 221 225 b 179 463 192 293 179 378 z "},"":{"ha":831,"x_min":0,"x_max":0,"o":"m 549 0 l 549 926 l 447 926 l 215 688 l 285 617 l 433 774 l 433 0 z "},"":{"ha":831,"x_min":0,"x_max":0,"o":"m 732 0 l 732 103 l 278 103 b 728 668 536 307 728 479 b 417 940 728 853 571 940 b 94 794 286 940 165 888 l 165 721 b 417 838 219 790 306 838 b 610 668 513 838 610 786 b 96 92 610 508 429 354 l 96 0 z "},"":{"ha":831,"x_min":0,"x_max":0,"o":"m 414 -17 b 742 250 618 -17 742 96 b 528 478 742 399 613 471 b 728 693 615 493 728 560 b 414 940 728 850 592 940 b 97 797 271 940 164 878 l 161 725 b 406 838 229 799 304 838 b 613 679 518 838 613 782 b 397 526 613 572 514 526 b 301 528 360 526 317 526 l 301 422 b 397 424 315 424 358 424 b 628 260 533 424 628 375 b 411 86 628 153 546 86 b 153 208 301 86 207 136 l 85 136 b 414 -17 142 53 257 -17 z "},"":{"ha":831,"x_min":0,"x_max":0,"o":"m 626 0 l 626 235 l 757 235 l 757 336 l 626 336 l 626 926 l 468 926 l 71 331 l 71 235 l 511 235 l 511 0 z m 511 336 l 186 336 l 511 819 z "},"":{"ha":831,"x_min":0,"x_max":0,"o":"m 422 -17 b 751 289 608 -17 751 100 b 457 585 751 479 611 585 b 240 501 364 585 285 546 l 240 824 l 692 824 l 692 926 l 125 926 l 125 426 l 210 397 b 424 485 272 458 342 485 b 636 285 549 485 636 407 b 422 86 636 172 549 86 b 167 208 308 86 228 131 l 96 132 b 422 -17 165 40 265 -17 z "},"":{"ha":831,"x_min":0,"x_max":0,"o":"m 438 -17 b 763 286 640 -17 763 125 b 460 582 763 483 626 582 b 197 438 340 582 238 501 b 196 474 196 450 196 461 b 457 838 196 656 278 838 b 656 743 554 838 608 799 l 714 829 b 457 940 657 894 576 940 b 81 461 197 940 81 713 b 438 -17 81 210 179 -17 z m 433 86 b 200 343 272 86 211 228 b 432 482 251 425 340 482 b 646 282 551 482 646 418 b 433 86 646 193 576 86 z "},"":{"ha":831,"x_min":0,"x_max":0,"o":"m 353 0 l 732 847 l 732 926 l 100 926 l 100 824 l 599 824 l 225 0 z "},"":{"ha":831,"x_min":0,"x_max":0,"o":"m 415 -17 b 747 235 597 -17 747 78 b 526 478 747 358 642 443 b 733 700 633 508 733 578 b 415 940 733 867 568 940 b 99 700 261 940 99 867 b 304 478 99 578 197 508 b 83 235 189 443 83 358 b 415 -17 83 76 232 -17 z m 415 525 b 214 685 360 535 214 572 b 415 838 214 781 303 838 b 617 685 526 838 617 781 b 415 525 617 572 472 535 z m 415 86 b 199 247 300 86 199 147 b 415 426 199 368 358 419 b 631 247 472 419 631 368 b 415 86 631 147 529 86 z "},"":{"ha":831,"x_min":0,"x_max":0,"o":"m 374 -15 b 750 463 633 -15 750 213 b 392 942 750 715 651 942 b 68 639 190 942 68 799 b 372 343 68 442 206 343 b 633 488 490 343 593 424 b 635 450 635 475 635 463 b 374 88 635 275 561 88 b 175 182 278 88 222 126 l 117 96 b 374 -15 175 29 256 -15 z m 399 443 b 185 643 279 443 185 507 b 397 839 185 731 256 839 b 629 581 558 839 619 696 b 399 443 581 499 490 443 z "},"":{"ha":831,"x_min":0,"x_max":0,"o":"m 769 382 b 415 781 769 582 663 781 b 61 382 168 781 61 582 b 415 -17 61 183 168 -17 b 769 382 663 -17 769 183 z m 651 382 b 415 86 651 232 582 86 b 179 382 249 86 179 232 b 415 678 179 531 249 678 b 651 382 582 678 651 531 z "},"":{"ha":831,"x_min":0,"x_max":0,"o":"m 549 0 l 549 764 l 447 764 l 215 525 l 285 454 l 433 611 l 433 0 z "},"":{"ha":831,"x_min":0,"x_max":0,"o":"m 707 0 l 707 103 l 321 103 b 722 531 546 200 722 363 b 419 781 722 683 592 781 b 88 635 289 781 158 728 l 158 561 b 417 678 214 632 308 678 b 606 515 521 678 606 611 b 108 93 606 382 451 233 l 108 0 z "},"":{"ha":831,"x_min":0,"x_max":0,"o":"m 414 -182 b 742 85 618 -182 742 -69 b 528 313 742 233 613 306 b 728 528 615 328 728 394 b 414 775 728 685 592 775 b 97 632 271 775 164 713 l 161 560 b 406 672 229 633 304 672 b 613 514 518 672 613 617 b 397 361 613 407 514 361 b 301 363 360 361 317 361 l 301 257 b 397 258 315 258 358 258 b 628 94 533 258 628 210 b 411 -79 628 -12 546 -79 b 153 43 301 -79 207 -29 l 85 -29 b 414 -182 142 -112 257 -182 z "},"":{"ha":831,"x_min":0,"x_max":0,"o":"m 757 76 l 757 178 l 626 178 l 626 764 l 468 764 l 71 172 l 71 76 l 511 76 l 511 -162 l 626 -162 l 626 76 z m 511 178 l 186 178 l 511 657 z "},"":{"ha":831,"x_min":0,"x_max":0,"o":"m 422 -179 b 751 126 608 -179 751 -62 b 457 422 751 317 611 422 b 240 339 364 422 285 383 l 240 661 l 692 661 l 692 764 l 125 764 l 125 264 l 210 235 b 424 322 272 296 342 322 b 636 122 549 322 636 244 b 422 -76 636 10 549 -76 b 167 46 308 -76 228 -32 l 96 -31 b 422 -179 165 -122 265 -179 z "},"":{"ha":831,"x_min":0,"x_max":0,"o":"m 438 -17 b 763 286 640 -17 763 125 b 460 582 763 483 626 582 b 197 438 340 582 238 501 b 196 474 196 450 196 461 b 457 838 196 656 278 838 b 656 743 554 838 608 799 l 714 829 b 457 940 657 894 576 940 b 81 461 197 940 81 713 b 438 -17 81 210 179 -17 z m 433 86 b 200 343 272 86 211 228 b 432 482 251 425 340 482 b 646 282 551 482 646 418 b 433 86 646 193 576 86 z "},"":{"ha":831,"x_min":0,"x_max":0,"o":"m 353 -162 l 732 685 l 732 764 l 100 764 l 100 661 l 599 661 l 225 -162 z "},"":{"ha":831,"x_min":0,"x_max":0,"o":"m 415 -17 b 747 235 597 -17 747 78 b 526 478 747 358 642 443 b 733 700 633 508 733 578 b 415 940 733 867 568 940 b 99 700 261 940 99 867 b 304 478 99 578 197 508 b 83 235 189 443 83 358 b 415 -17 83 76 232 -17 z m 415 525 b 214 685 360 535 214 572 b 415 838 214 781 303 838 b 617 685 526 838 617 781 b 415 525 617 572 472 535 z m 415 86 b 199 247 300 86 199 147 b 415 426 199 368 358 419 b 631 247 472 419 631 368 b 415 86 631 147 529 86 z "},"":{"ha":831,"x_min":0,"x_max":0,"o":"m 374 -176 b 750 301 633 -176 750 51 b 392 781 750 554 651 781 b 68 478 190 781 68 638 b 372 182 68 281 206 182 b 633 326 490 182 593 263 b 635 289 635 314 635 301 b 374 -74 635 114 561 -74 b 175 21 278 -74 222 -35 l 117 -65 b 374 -176 175 -132 256 -176 z m 399 282 b 185 482 279 282 185 346 b 397 678 185 569 256 678 b 629 419 558 678 619 535 b 399 282 581 338 490 282 z "},"":{"ha":850,"x_min":0,"x_max":0,"o":"m 779 382 b 425 781 779 582 672 781 b 71 382 178 781 71 582 b 425 -17 71 183 178 -17 b 779 382 672 -17 779 183 z m 661 382 b 425 86 661 232 592 86 b 189 382 258 86 189 232 b 425 678 189 531 258 678 b 661 382 592 678 661 531 z "},"":{"ha":471,"x_min":0,"x_max":0,"o":"m 363 0 l 363 764 l 261 764 l 29 525 l 99 454 l 247 611 l 247 0 z "},"":{"ha":803,"x_min":0,"x_max":0,"o":"m 682 0 l 682 103 l 296 103 b 697 531 521 200 697 363 b 394 781 697 683 567 781 b 63 635 264 781 133 728 l 133 561 b 392 678 189 632 283 678 b 581 515 496 678 581 611 b 83 93 581 382 426 233 l 83 0 z "},"":{"ha":768,"x_min":0,"x_max":0,"o":"m 364 -178 b 692 89 568 -178 692 -65 b 478 317 692 238 563 310 b 678 532 565 332 678 399 b 364 779 678 689 542 779 b 47 636 221 779 114 717 l 111 564 b 356 676 179 638 254 676 b 563 518 468 676 563 621 b 347 365 563 411 464 365 b 251 367 310 365 267 365 l 251 261 b 347 263 265 263 308 263 b 578 99 483 263 578 214 b 361 -75 578 -8 496 -75 b 103 47 251 -75 157 -25 l 35 -25 b 364 -178 92 -108 207 -178 z "},"":{"ha":775,"x_min":0,"x_max":0,"o":"m 731 76 l 731 178 l 600 178 l 600 764 l 442 764 l 44 172 l 44 76 l 485 76 l 485 -162 l 600 -162 l 600 76 z m 485 178 l 160 178 l 485 657 z "},"":{"ha":819,"x_min":0,"x_max":0,"o":"m 418 -179 b 747 126 604 -179 747 -62 b 453 422 747 317 607 422 b 236 339 360 422 281 383 l 236 661 l 688 661 l 688 764 l 121 764 l 121 264 l 206 235 b 419 322 268 296 338 322 b 632 122 544 322 632 244 b 418 -76 632 10 544 -76 b 163 46 304 -76 224 -32 l 92 -31 b 418 -179 161 -122 261 -179 z "},"":{"ha":821,"x_min":0,"x_max":0,"o":"m 428 -17 b 753 286 631 -17 753 125 b 450 582 753 483 617 582 b 188 438 331 582 228 501 b 186 474 186 450 186 461 b 447 838 186 656 268 838 b 646 743 544 838 599 799 l 704 829 b 447 940 647 894 567 940 b 71 461 188 940 71 713 b 428 -17 71 210 169 -17 z m 424 86 b 190 343 263 86 201 228 b 422 482 242 425 331 482 b 636 282 542 482 636 418 b 424 86 636 193 567 86 z "},"":{"ha":715,"x_min":0,"x_max":0,"o":"m 296 -162 l 675 685 l 675 764 l 43 764 l 43 661 l 542 661 l 168 -162 z "},"":{"ha":807,"x_min":0,"x_max":0,"o":"m 404 -17 b 736 235 586 -17 736 78 b 515 478 736 358 631 443 b 722 700 622 508 722 578 b 404 940 722 867 557 940 b 88 700 250 940 88 867 b 293 478 88 578 186 508 b 72 235 178 443 72 358 b 404 -17 72 76 221 -17 z m 404 525 b 203 685 349 535 203 572 b 404 838 203 781 292 838 b 606 685 515 838 606 781 b 404 525 606 572 461 535 z m 404 86 b 188 247 289 86 188 147 b 404 426 188 368 347 419 b 619 247 461 419 619 368 b 404 86 619 147 518 86 z "},"":{"ha":821,"x_min":0,"x_max":0,"o":"m 374 -176 b 750 301 633 -176 750 51 b 392 781 750 554 651 781 b 68 478 190 781 68 638 b 372 182 68 281 206 182 b 633 326 490 182 593 263 b 635 289 635 314 635 301 b 374 -74 635 114 561 -74 b 175 21 278 -74 222 -35 l 117 -65 b 374 -176 175 -132 256 -176 z m 399 282 b 185 482 279 282 185 346 b 397 678 185 569 256 678 b 629 419 558 678 619 535 b 399 282 581 338 490 282 z "},"A":{"ha":914,"x_min":0,"x_max":0,"o":"m 901 0 l 528 926 l 385 926 l 13 0 l 144 0 l 226 206 l 688 206 l 769 0 z m 653 308 l 260 308 l 457 807 z "},"B":{"ha":874,"x_min":0,"x_max":0,"o":"m 531 0 b 799 250 700 0 799 101 b 618 478 799 361 717 463 b 781 690 703 496 781 574 b 521 926 781 829 682 926 l 108 926 l 108 0 z m 501 525 l 224 525 l 224 824 l 501 824 b 661 674 606 824 661 757 b 501 525 661 589 606 525 z m 507 103 l 224 103 l 224 422 l 507 422 b 679 263 621 422 679 347 b 507 103 679 164 615 103 z "},"C":{"ha":939,"x_min":0,"x_max":0,"o":"m 547 -17 b 900 167 711 -17 822 61 l 801 221 b 547 86 749 142 653 86 b 190 463 344 86 190 243 b 547 839 190 683 344 839 b 801 704 653 839 749 782 l 899 758 b 547 942 825 863 711 942 b 71 463 281 942 71 747 b 547 -17 71 178 281 -17 z "},"D":{"ha":972,"x_min":0,"x_max":0,"o":"m 425 0 b 900 463 713 0 900 199 b 425 926 900 725 713 926 l 108 926 l 108 0 z m 425 103 l 224 103 l 224 824 l 425 824 b 781 463 654 824 781 663 b 425 103 781 264 650 103 z "},"E":{"ha":790,"x_min":0,"x_max":0,"o":"m 715 0 l 715 103 l 224 103 l 224 422 l 706 422 l 706 525 l 224 525 l 224 824 l 715 824 l 715 926 l 108 926 l 108 0 z "},"F":{"ha":764,"x_min":0,"x_max":0,"o":"m 224 0 l 224 422 l 706 422 l 706 525 l 224 525 l 224 824 l 715 824 l 715 926 l 108 926 l 108 0 z "},"G":{"ha":990,"x_min":0,"x_max":0,"o":"m 547 -18 b 911 142 699 -18 825 46 l 911 476 l 478 476 l 478 374 l 796 374 l 796 185 b 547 85 750 139 658 85 b 190 463 344 85 190 243 b 547 839 190 683 344 839 b 815 711 658 839 757 786 l 907 768 b 547 942 825 869 711 942 b 71 463 283 942 71 750 b 547 -18 71 175 283 -18 z "},"H":{"ha":989,"x_min":0,"x_max":0,"o":"m 881 0 l 881 926 l 765 926 l 765 528 l 224 528 l 224 926 l 108 926 l 108 0 l 224 0 l 224 425 l 765 425 l 765 0 z "},"I":{"ha":332,"x_min":0,"x_max":0,"o":"m 224 0 l 224 926 l 108 926 l 108 0 z "},"J":{"ha":660,"x_min":0,"x_max":0,"o":"m 257 -17 b 551 279 422 -17 551 78 l 551 926 l 436 926 l 436 281 b 250 86 436 165 364 86 b 75 178 169 86 115 129 l 15 90 b 257 -17 79 15 158 -17 z "},"K":{"ha":835,"x_min":0,"x_max":0,"o":"m 811 0 l 392 486 l 778 926 l 633 926 l 224 447 l 224 926 l 108 926 l 108 0 l 224 0 l 224 311 l 317 417 l 668 0 z "},"L":{"ha":708,"x_min":0,"x_max":0,"o":"m 654 0 l 654 103 l 224 103 l 224 926 l 108 926 l 108 0 z "},"M":{"ha":1124,"x_min":0,"x_max":0,"o":"m 1015 0 l 1015 926 l 850 926 l 561 229 l 274 926 l 108 926 l 108 0 l 224 0 l 224 763 l 538 0 l 585 0 l 900 763 l 900 0 z "},"N":{"ha":983,"x_min":0,"x_max":0,"o":"m 875 0 l 875 926 l 760 926 l 760 203 l 226 926 l 108 926 l 108 0 l 224 0 l 224 739 l 764 0 z "},"O":{"ha":1063,"x_min":0,"x_max":0,"o":"m 531 -17 b 990 463 804 -17 990 189 b 531 942 990 736 804 942 b 71 463 256 942 71 736 b 531 -17 71 189 256 -17 z m 531 86 b 190 463 322 86 190 247 b 531 839 190 679 322 839 b 871 463 738 839 871 679 b 531 86 871 247 738 86 z "},"P":{"ha":815,"x_min":0,"x_max":0,"o":"m 224 0 l 224 368 l 481 368 b 771 647 664 368 771 496 b 481 926 771 799 667 926 l 108 926 l 108 0 z m 467 471 l 224 471 l 224 824 l 467 824 b 651 647 576 824 651 751 b 467 471 651 543 576 471 z "},"Q":{"ha":1063,"x_min":0,"x_max":0,"o":"m 531 -17 b 781 53 626 -17 711 8 l 871 -43 l 951 26 l 863 121 b 990 463 943 206 990 325 b 531 942 990 736 804 942 b 71 463 256 942 71 736 b 531 -17 71 189 256 -17 z m 531 86 b 190 463 322 86 190 247 b 531 839 190 679 322 839 b 871 463 738 839 871 679 b 786 203 871 360 840 269 l 656 344 l 575 276 l 707 133 b 531 86 657 103 597 86 z "},"R":{"ha":844,"x_min":0,"x_max":0,"o":"m 781 0 l 531 378 b 771 647 657 389 771 481 b 481 926 771 818 650 926 l 108 926 l 108 0 l 224 0 l 224 368 l 408 368 l 644 0 z m 467 469 l 224 469 l 224 824 l 467 824 b 651 647 576 824 651 751 b 467 469 651 543 576 469 z "},"S":{"ha":814,"x_min":0,"x_max":0,"o":"m 408 -17 b 750 256 658 -17 750 121 b 201 690 750 601 201 482 b 392 838 201 778 281 838 b 660 726 493 838 590 803 l 729 811 b 400 940 651 893 542 940 b 82 683 218 940 82 836 b 631 246 82 353 631 485 b 413 86 631 175 578 86 b 121 218 282 86 182 150 l 53 131 b 408 -17 129 44 247 -17 z "},"T":{"ha":792,"x_min":0,"x_max":0,"o":"m 453 0 l 453 824 l 747 824 l 747 926 l 44 926 l 44 824 l 338 824 l 338 0 z "},"U":{"ha":972,"x_min":0,"x_max":0,"o":"m 486 -17 b 864 361 738 -17 864 131 l 864 926 l 749 926 l 749 363 b 486 86 749 193 657 86 b 224 363 315 86 224 193 l 224 926 l 108 926 l 108 360 b 486 -17 108 132 235 -17 z "},"V":{"ha":914,"x_min":0,"x_max":0,"o":"m 528 0 l 901 926 l 769 926 l 457 126 l 144 926 l 13 926 l 385 0 z "},"W":{"ha":1226,"x_min":0,"x_max":0,"o":"m 942 0 l 1206 926 l 1078 926 l 874 154 l 661 926 l 565 926 l 353 154 l 147 926 l 19 926 l 283 0 l 408 0 l 613 747 l 817 0 z "},"X":{"ha":906,"x_min":0,"x_max":0,"o":"m 888 0 l 528 476 l 867 926 l 726 926 l 453 556 l 178 926 l 38 926 l 378 475 l 17 0 l 157 0 l 453 394 l 749 0 z "},"Y":{"ha":869,"x_min":0,"x_max":0,"o":"m 493 0 l 493 392 l 857 926 l 722 926 l 435 496 l 147 926 l 13 926 l 378 392 l 378 0 z "},"Z":{"ha":813,"x_min":0,"x_max":0,"o":"m 744 0 l 744 103 l 214 103 l 735 831 l 735 926 l 67 926 l 67 824 l 588 824 l 67 96 l 67 0 z "},"a":{"ha":732,"x_min":0,"x_max":0,"o":"m 628 0 l 628 461 b 368 688 628 624 510 688 b 100 576 258 688 172 651 l 149 504 b 354 597 208 568 274 597 b 524 456 451 597 524 546 l 524 335 b 301 426 469 397 393 426 b 67 206 188 426 67 356 b 301 -17 67 60 188 -17 b 524 76 392 -17 468 15 l 524 0 z m 339 58 b 174 204 242 58 174 119 b 339 351 174 290 242 351 b 524 268 413 351 483 324 l 524 142 b 339 58 483 86 413 58 z "},"b":{"ha":799,"x_min":0,"x_max":0,"o":"m 208 182 l 208 486 b 408 594 244 544 326 594 b 625 335 544 594 625 483 b 408 76 625 186 544 76 b 208 182 326 76 244 124 z m 208 0 l 208 100 b 435 -17 258 32 340 -17 b 733 335 610 -17 733 117 b 435 688 733 549 610 688 b 208 569 343 688 263 643 l 208 926 l 104 926 l 104 0 z "},"c":{"ha":688,"x_min":0,"x_max":0,"o":"m 400 -17 b 646 100 522 -17 594 33 l 576 164 b 406 76 532 104 475 76 b 174 336 263 76 174 188 b 406 594 174 485 263 594 b 576 507 475 594 532 568 l 646 571 b 400 688 594 638 522 688 b 65 336 200 688 65 535 b 400 -17 65 136 200 -17 z "},"d":{"ha":799,"x_min":0,"x_max":0,"o":"m 694 0 l 694 926 l 590 926 l 590 569 b 364 688 536 643 454 688 b 65 335 188 688 65 549 b 364 -17 65 117 189 -17 b 590 100 458 -17 540 32 l 590 0 z m 389 76 b 174 335 254 76 174 186 b 389 594 174 483 254 594 b 590 486 472 594 553 544 l 590 182 b 389 76 553 124 472 76 z "},"e":{"ha":782,"x_min":0,"x_max":0,"o":"m 407 -17 b 674 86 517 -17 607 19 l 624 154 b 417 69 571 100 493 69 b 175 301 272 69 183 175 l 718 301 l 718 328 b 396 688 718 529 599 688 b 65 336 204 688 65 531 b 407 -17 65 126 208 -17 z m 615 378 l 175 378 b 394 601 181 481 251 601 b 615 378 547 601 614 478 z "},"f":{"ha":393,"x_min":0,"x_max":0,"o":"m 238 0 l 238 579 l 374 579 l 374 671 l 238 671 l 238 722 b 343 854 238 807 275 854 b 426 821 378 854 404 840 l 469 889 b 328 940 428 928 381 940 b 133 722 208 940 133 860 l 133 671 l 22 671 l 22 579 l 133 579 l 133 0 z "},"g":{"ha":797,"x_min":0,"x_max":0,"o":"m 374 -272 b 693 19 538 -272 693 -203 l 693 671 l 589 671 l 589 569 b 364 688 535 643 454 688 b 65 339 188 688 65 554 b 364 -8 65 122 189 -8 b 589 111 458 -8 540 43 l 589 15 b 374 -186 589 -132 485 -186 b 156 -94 278 -186 211 -161 l 103 -172 b 374 -272 182 -250 260 -272 z m 389 83 b 174 339 254 83 174 192 b 389 594 174 488 254 594 b 589 486 472 594 553 544 l 589 193 b 389 83 553 135 472 83 z "},"h":{"ha":767,"x_min":0,"x_max":0,"o":"m 663 0 l 663 474 b 449 688 663 619 589 688 b 208 574 347 688 256 629 l 208 926 l 104 926 l 104 0 l 208 0 l 208 490 b 407 594 249 544 326 594 b 558 442 497 594 558 560 l 558 0 z "},"i":{"ha":313,"x_min":0,"x_max":0,"o":"m 156 767 b 226 836 194 767 226 797 b 156 907 226 875 194 907 b 86 836 118 907 86 875 b 156 767 86 797 118 767 z m 208 0 l 208 671 l 104 671 l 104 0 z "},"j":{"ha":313,"x_min":0,"x_max":0,"o":"m 156 767 b 226 836 194 767 226 797 b 156 907 226 875 194 907 b 86 836 118 907 86 875 b 156 767 86 797 118 767 z m 10 -272 b 208 -65 138 -272 208 -197 l 208 671 l 104 671 l 104 -65 b -4 -186 104 -150 58 -186 b -100 -143 -46 -186 -76 -167 l -137 -222 b 10 -272 -94 -256 -58 -272 z "},"k":{"ha":714,"x_min":0,"x_max":0,"o":"m 694 0 l 396 367 l 693 671 l 561 671 l 208 314 l 208 926 l 104 926 l 104 0 l 208 0 l 208 192 l 319 301 l 561 0 z "},"l":{"ha":313,"x_min":0,"x_max":0,"o":"m 208 0 l 208 926 l 104 926 l 104 0 z "},"m":{"ha":1122,"x_min":0,"x_max":0,"o":"m 1018 0 l 1018 485 b 831 688 1018 619 953 688 b 606 563 733 688 643 624 b 425 688 586 632 528 688 b 208 574 326 688 236 617 l 208 671 l 104 671 l 104 0 l 208 0 l 208 490 b 385 594 244 544 317 594 b 508 456 472 594 508 540 l 508 0 l 613 0 l 613 492 b 790 594 647 544 721 594 b 914 456 876 594 914 540 l 914 0 z "},"n":{"ha":765,"x_min":0,"x_max":0,"o":"m 661 0 l 661 471 b 447 688 661 617 588 688 b 208 574 347 688 256 629 l 208 671 l 104 671 l 104 0 l 208 0 l 208 490 b 407 594 247 544 325 594 b 557 439 497 594 557 557 l 557 0 z "},"o":{"ha":794,"x_min":0,"x_max":0,"o":"m 397 -17 b 729 336 601 -17 729 142 b 397 688 729 531 601 688 b 65 336 193 688 65 531 b 397 -17 65 142 193 -17 z m 397 76 b 174 336 254 76 174 199 b 397 594 174 472 254 594 b 619 336 540 594 619 472 b 397 76 619 199 540 76 z "},"p":{"ha":794,"x_min":0,"x_max":0,"o":"m 435 -17 b 733 336 611 -17 733 119 b 435 688 733 554 611 688 b 208 571 340 688 257 639 l 208 671 l 104 671 l 104 -256 l 208 -256 l 208 101 b 435 -17 263 26 343 -17 z m 408 76 b 208 185 326 76 244 126 l 208 488 b 408 594 244 546 326 594 b 624 336 543 594 624 485 b 408 76 624 188 543 76 z "},"q":{"ha":794,"x_min":0,"x_max":0,"o":"m 385 76 b 171 336 250 76 171 188 b 385 594 171 485 250 594 b 585 488 468 594 550 546 l 585 185 b 385 76 550 126 468 76 z m 360 -17 b 585 101 450 -17 531 26 l 585 -256 l 689 -256 l 689 671 l 585 671 l 585 571 b 360 688 538 639 454 688 b 61 336 183 688 61 554 b 360 -17 61 119 183 -17 z "},"r":{"ha":458,"x_min":0,"x_max":0,"o":"m 208 0 l 208 475 b 390 582 239 529 326 582 b 432 578 407 582 419 581 l 432 685 b 208 563 340 685 263 633 l 208 671 l 104 671 l 104 0 z "},"s":{"ha":646,"x_min":0,"x_max":0,"o":"m 317 -17 b 581 186 490 -17 581 74 b 165 497 581 447 165 350 b 314 603 165 557 222 603 b 514 518 400 603 474 567 l 563 590 b 314 688 508 644 428 688 b 64 494 154 688 64 599 b 479 183 64 246 479 346 b 321 68 479 117 424 68 b 100 164 229 68 144 113 l 46 89 b 317 -17 114 17 207 -17 z "},"t":{"ha":408,"x_min":0,"x_max":0,"o":"m 274 -17 b 399 26 335 -17 372 1 l 368 104 b 297 76 354 89 326 76 b 229 163 251 76 229 113 l 229 579 l 365 579 l 365 671 l 229 671 l 229 854 l 125 854 l 125 671 l 14 671 l 14 579 l 125 579 l 125 140 b 274 -17 125 40 175 -17 z "},"u":{"ha":765,"x_min":0,"x_max":0,"o":"m 661 0 l 661 671 l 557 671 l 557 178 b 358 76 518 124 440 76 b 208 229 268 76 208 111 l 208 671 l 104 671 l 104 197 b 318 -17 104 51 178 -17 b 557 94 418 -17 506 36 l 557 0 z "},"v":{"ha":681,"x_min":0,"x_max":0,"o":"m 397 0 l 676 671 l 563 671 l 340 121 l 117 671 l 4 671 l 283 0 z "},"w":{"ha":1019,"x_min":0,"x_max":0,"o":"m 789 0 l 1003 671 l 894 671 l 731 136 l 554 671 l 465 671 l 289 136 l 125 671 l 17 671 l 231 0 l 335 0 l 510 539 l 685 0 z "},"x":{"ha":675,"x_min":0,"x_max":0,"o":"m 660 0 l 401 344 l 644 671 l 524 671 l 338 415 l 151 671 l 31 671 l 274 344 l 17 0 l 136 0 l 338 275 l 539 0 z "},"y":{"ha":681,"x_min":0,"x_max":0,"o":"m 67 -262 b 143 -272 86 -268 121 -272 b 340 -136 232 -271 300 -233 l 676 671 l 563 671 l 340 121 l 117 671 l 4 671 l 285 -7 l 240 -108 b 140 -179 217 -164 186 -179 b 83 -168 124 -179 99 -175 z "},"z":{"ha":656,"x_min":0,"x_max":0,"o":"m 583 0 l 583 90 l 206 90 l 578 592 l 578 671 l 72 671 l 72 579 l 442 579 l 72 81 l 72 0 z "},"":{"ha":794,"x_min":0,"x_max":0,"o":"m 332 764 l 10 0 l 132 0 l 201 167 l 593 167 l 664 0 l 785 0 l 463 764 z m 560 263 l 235 263 l 397 650 z "},"":{"ha":769,"x_min":0,"x_max":0,"o":"m 472 0 b 707 207 621 0 707 83 b 560 394 707 294 643 375 b 690 568 629 414 690 476 b 464 764 690 683 606 764 l 104 764 l 104 0 z m 457 96 l 213 96 l 213 343 l 457 343 b 594 218 547 343 594 283 b 457 96 594 143 543 96 z m 450 439 l 213 439 l 213 668 l 450 668 b 579 553 532 668 579 622 b 450 439 579 489 535 439 z "},"":{"ha":808,"x_min":0,"x_max":0,"o":"m 472 -17 b 778 140 610 -17 710 47 l 689 189 b 472 79 646 124 563 79 b 176 382 306 79 176 207 b 472 685 176 560 306 685 b 689 575 563 685 643 642 l 776 624 b 472 781 711 715 610 781 b 65 382 242 781 65 618 b 472 -17 65 147 242 -17 z "},"":{"ha":854,"x_min":0,"x_max":0,"o":"m 382 0 b 789 381 632 0 789 164 b 381 764 789 597 632 764 l 104 764 l 104 0 z m 381 96 l 213 96 l 213 668 l 382 668 b 676 381 575 668 676 539 b 381 96 676 222 572 96 z "},"":{"ha":707,"x_min":0,"x_max":0,"o":"m 635 0 l 635 96 l 213 96 l 213 343 l 628 343 l 628 439 l 213 439 l 213 668 l 635 668 l 635 764 l 104 764 l 104 0 z "},"":{"ha":682,"x_min":0,"x_max":0,"o":"m 213 0 l 213 343 l 628 343 l 628 439 l 213 439 l 213 668 l 635 668 l 635 764 l 104 764 l 104 0 z "},"":{"ha":869,"x_min":0,"x_max":0,"o":"m 474 -17 b 786 117 601 -17 711 36 l 786 399 l 442 399 l 442 307 l 678 307 l 678 158 b 474 78 639 121 567 78 b 178 382 306 78 178 207 b 474 683 178 558 306 683 b 696 583 565 683 646 643 l 781 640 b 474 781 710 722 608 781 b 65 382 244 781 65 619 b 474 -17 65 144 244 -17 z "},"":{"ha":882,"x_min":0,"x_max":0,"o":"m 778 0 l 778 764 l 669 764 l 669 440 l 213 440 l 213 764 l 104 764 l 104 0 l 213 0 l 213 344 l 669 344 l 669 0 z "},"":{"ha":318,"x_min":0,"x_max":0,"o":"m 213 0 l 213 764 l 104 764 l 104 0 z "},"":{"ha":586,"x_min":0,"x_max":0,"o":"m 218 -17 b 481 228 368 -17 481 61 l 481 764 l 372 764 l 372 236 b 213 79 372 143 310 79 b 64 157 146 79 97 114 l 11 78 b 218 -17 64 14 135 -17 z "},"":{"ha":742,"x_min":0,"x_max":0,"o":"m 722 0 l 357 401 l 693 764 l 558 764 l 213 382 l 213 764 l 104 764 l 104 0 l 213 0 l 213 257 l 288 338 l 588 0 z "},"":{"ha":636,"x_min":0,"x_max":0,"o":"m 583 0 l 583 96 l 213 96 l 213 764 l 104 764 l 104 0 z "},"":{"ha":999,"x_min":0,"x_max":0,"o":"m 894 0 l 894 764 l 744 764 l 499 199 l 253 764 l 104 764 l 104 0 l 213 0 l 213 600 l 476 0 l 524 0 l 785 600 l 785 0 z "},"":{"ha":878,"x_min":0,"x_max":0,"o":"m 774 0 l 774 764 l 664 764 l 664 181 l 218 764 l 104 764 l 104 0 l 213 0 l 213 594 l 664 0 z "},"":{"ha":919,"x_min":0,"x_max":0,"o":"m 460 -17 b 854 382 696 -17 854 157 b 460 781 854 607 696 781 b 65 382 221 781 65 607 b 460 -17 65 157 221 -17 z m 460 79 b 176 382 286 79 176 210 b 460 685 176 556 286 685 b 743 382 631 685 743 556 b 460 79 743 210 631 79 z "},"":{"ha":725,"x_min":0,"x_max":0,"o":"m 213 0 l 213 296 l 432 296 b 683 531 600 296 683 404 b 432 764 683 656 597 764 l 104 764 l 104 0 z m 422 392 l 213 392 l 213 668 l 422 668 b 571 531 519 668 571 610 b 422 392 571 450 522 392 z "},"":{"ha":919,"x_min":0,"x_max":0,"o":"m 460 -17 b 672 40 540 -17 613 4 l 746 -40 l 814 17 l 743 96 b 854 382 814 167 854 268 b 460 781 854 607 696 781 b 65 382 221 781 65 607 b 460 -17 65 157 221 -17 z m 460 79 b 176 382 286 79 176 210 b 460 685 176 556 286 685 b 743 382 631 685 743 556 b 672 174 743 300 717 226 l 567 290 l 499 232 l 604 115 b 460 79 563 92 514 79 z "},"":{"ha":757,"x_min":0,"x_max":0,"o":"m 694 0 l 478 304 b 683 531 597 314 683 399 b 432 764 683 661 593 764 l 104 764 l 104 0 l 213 0 l 213 296 l 367 296 l 567 0 z m 422 392 l 213 392 l 213 668 l 422 668 b 572 531 518 668 572 611 b 422 392 572 450 522 392 z "},"":{"ha":700,"x_min":0,"x_max":0,"o":"m 350 -17 b 650 213 554 -17 650 83 b 181 565 650 501 181 400 b 344 686 181 636 250 686 b 575 594 429 686 517 657 l 632 671 b 346 781 565 739 469 781 b 69 563 189 781 69 690 b 539 208 69 286 539 401 b 351 76 539 140 486 76 b 103 185 244 76 154 129 l 44 103 b 350 -17 107 33 214 -17 z "},"":{"ha":656,"x_min":0,"x_max":0,"o":"m 381 0 l 381 668 l 618 668 l 618 764 l 36 764 l 36 668 l 272 668 l 272 0 z "},"":{"ha":865,"x_min":0,"x_max":0,"o":"m 432 -17 b 761 294 650 -17 761 106 l 761 764 l 651 764 l 651 301 b 432 79 651 165 574 79 b 214 301 290 79 214 165 l 214 764 l 104 764 l 104 294 b 432 -17 104 107 214 -17 z "},"":{"ha":794,"x_min":0,"x_max":0,"o":"m 463 0 l 785 764 l 664 764 l 397 121 l 133 764 l 10 764 l 332 0 z "},"":{"ha":1061,"x_min":0,"x_max":0,"o":"m 817 0 l 1046 764 l 926 764 l 754 147 l 576 764 l 485 764 l 306 149 l 135 764 l 14 764 l 243 0 l 357 0 l 529 599 l 703 0 z "},"":{"ha":788,"x_min":0,"x_max":0,"o":"m 775 0 l 463 393 l 757 764 l 626 764 l 393 465 l 160 764 l 29 764 l 324 392 l 13 0 l 142 0 l 393 318 l 644 0 z "},"":{"ha":760,"x_min":0,"x_max":0,"o":"m 436 0 l 436 324 l 750 764 l 624 764 l 382 417 l 136 764 l 10 764 l 328 324 l 328 0 z "},"":{"ha":717,"x_min":0,"x_max":0,"o":"m 663 0 l 663 96 l 201 96 l 653 682 l 653 764 l 54 764 l 54 668 l 507 668 l 54 82 l 54 0 z "},"Á":{"ha":914,"x_min":0,"x_max":0,"o":"m 901 0 l 528 926 l 385 926 l 13 0 l 144 0 l 226 206 l 688 206 l 769 0 z m 653 308 l 260 308 l 457 807 z m 692 1204 l 583 1204 l 378 1004 l 457 1004 z "},"Ă":{"ha":914,"x_min":0,"x_max":0,"o":"m 901 0 l 528 926 l 385 926 l 13 0 l 144 0 l 226 206 l 688 206 l 769 0 z m 653 308 l 260 308 l 457 807 z m 700 1101 l 649 1146 b 457 1046 606 1083 538 1046 b 264 1146 375 1046 308 1085 l 213 1101 b 457 979 269 1026 358 979 b 700 1101 557 979 644 1026 z "},"Â":{"ha":914,"x_min":0,"x_max":0,"o":"m 643 1004 l 507 1204 l 407 1204 l 275 1004 l 346 1004 l 457 1151 l 572 1004 z m 901 0 l 528 926 l 385 926 l 13 0 l 144 0 l 226 206 l 688 206 l 769 0 z m 653 308 l 260 308 l 457 807 z "},"Ä":{"ha":914,"x_min":0,"x_max":0,"o":"m 667 1071 b 601 1135 667 1106 636 1135 b 536 1071 567 1135 536 1106 b 601 1006 536 1035 567 1006 b 667 1071 636 1006 667 1035 z m 379 1071 b 315 1135 379 1106 350 1135 b 250 1071 279 1135 250 1106 b 315 1006 250 1035 279 1006 b 379 1071 350 1006 379 1035 z m 901 0 l 528 926 l 385 926 l 13 0 l 144 0 l 226 206 l 688 206 l 769 0 z m 653 308 l 260 308 l 457 807 z "},"À":{"ha":914,"x_min":0,"x_max":0,"o":"m 901 0 l 528 926 l 385 926 l 13 0 l 144 0 l 226 206 l 688 206 l 769 0 z m 653 308 l 260 308 l 457 807 z m 536 1004 l 331 1204 l 222 1204 l 457 1004 z "},"Ā":{"ha":914,"x_min":0,"x_max":0,"o":"m 901 0 l 528 926 l 385 926 l 13 0 l 144 0 l 226 206 l 688 206 l 769 0 z m 653 308 l 260 308 l 457 807 z m 708 1026 l 708 1093 l 204 1093 l 204 1026 z "},"Ą":{"ha":914,"x_min":0,"x_max":0,"o":"m 929 -146 b 857 -204 917 -183 896 -204 b 796 -135 821 -204 796 -182 b 901 0 796 -76 835 -33 l 528 926 l 385 926 l 13 0 l 144 0 l 226 206 l 688 206 l 769 0 l 807 0 b 733 -137 761 -36 733 -85 b 857 -258 733 -222 792 -258 b 981 -175 924 -258 961 -219 z m 653 308 l 260 308 l 457 807 z "},"Å":{"ha":914,"x_min":0,"x_max":0,"o":"m 901 0 l 528 926 l 385 926 l 13 0 l 144 0 l 226 206 l 688 206 l 769 0 z m 653 308 l 260 308 l 457 807 z m 457 958 b 593 1094 532 958 593 1019 b 457 1232 593 1169 532 1232 b 321 1094 382 1232 321 1169 b 457 958 321 1019 382 958 z m 457 1013 b 376 1094 413 1013 376 1050 b 457 1176 376 1140 413 1176 b 538 1094 503 1176 538 1140 b 457 1013 538 1050 503 1013 z "},"Ã":{"ha":914,"x_min":0,"x_max":0,"o":"m 901 0 l 528 926 l 385 926 l 13 0 l 144 0 l 226 206 l 688 206 l 769 0 z m 653 308 l 260 308 l 457 807 z m 540 1001 b 675 1188 628 1001 675 1079 l 613 1188 b 546 1068 613 1104 583 1068 b 375 1196 479 1068 475 1196 b 240 1010 288 1196 240 1118 l 303 1010 b 369 1129 303 1093 332 1129 b 540 1001 436 1129 439 1001 z "},"Ạ":{"ha":914,"x_min":0,"x_max":0,"o":"m 901 0 l 528 926 l 385 926 l 13 0 l 144 0 l 226 206 l 688 206 l 769 0 z m 653 308 l 260 308 l 457 807 z m 457 -256 b 521 -190 493 -256 521 -226 b 457 -125 521 -154 493 -125 b 392 -190 422 -125 392 -154 b 457 -256 392 -226 422 -256 z "},"Ả":{"ha":914,"x_min":0,"x_max":0,"o":"m 901 0 l 528 926 l 385 926 l 13 0 l 144 0 l 226 206 l 688 206 l 769 0 z m 653 308 l 260 308 l 457 807 z m 401 1050 b 457 1094 411 1078 429 1094 b 507 1040 488 1094 507 1076 b 475 968 507 1017 499 992 l 531 968 b 557 1043 549 993 557 1013 b 457 1139 557 1110 510 1139 b 356 1063 404 1139 369 1106 z "},"Ấ":{"ha":914,"x_min":0,"x_max":0,"o":"m 643 947 l 507 1097 l 407 1097 l 275 947 l 346 947 l 457 1057 l 572 947 z m 901 0 l 528 926 l 385 926 l 13 0 l 144 0 l 226 206 l 688 206 l 769 0 z m 653 308 l 260 308 l 457 807 z m 913 1172 l 804 1172 l 599 1022 l 678 1022 z "},"Ậ":{"ha":914,"x_min":0,"x_max":0,"o":"m 901 0 l 528 926 l 385 926 l 13 0 l 144 0 l 226 206 l 688 206 l 769 0 z m 653 308 l 260 308 l 457 807 z m 642 1004 l 506 1204 l 406 1204 l 274 1004 l 344 1004 l 456 1151 l 571 1004 z m 457 -256 b 521 -190 493 -256 521 -226 b 457 -125 521 -154 493 -125 b 392 -190 422 -125 392 -154 b 457 -256 392 -226 422 -256 z "},"Ầ":{"ha":914,"x_min":0,"x_max":0,"o":"m 643 947 l 507 1097 l 407 1097 l 275 947 l 346 947 l 457 1057 l 572 947 z m 901 0 l 528 926 l 385 926 l 13 0 l 144 0 l 226 206 l 688 206 l 769 0 z m 653 308 l 260 308 l 457 807 z m 318 1022 l 113 1172 l 4 1172 l 239 1022 z "},"Ẩ":{"ha":914,"x_min":0,"x_max":0,"o":"m 643 947 l 507 1097 l 407 1097 l 275 947 l 346 947 l 457 1057 l 572 947 z m 901 0 l 528 926 l 385 926 l 13 0 l 144 0 l 226 206 l 688 206 l 769 0 z m 653 308 l 260 308 l 457 807 z m 594 1094 b 650 1128 604 1115 622 1128 b 700 1088 681 1128 700 1115 b 668 1033 700 1069 692 1051 l 724 1033 b 750 1090 742 1053 750 1067 b 650 1161 750 1140 703 1161 b 549 1104 597 1161 563 1136 z "},"Ắ":{"ha":914,"x_min":0,"x_max":0,"o":"m 901 0 l 528 926 l 385 926 l 13 0 l 144 0 l 226 206 l 688 206 l 769 0 z m 653 308 l 260 308 l 457 807 z m 690 1165 l 582 1165 l 376 1029 l 456 1029 z m 700 1056 l 649 1093 b 457 1008 606 1040 538 1008 b 264 1093 375 1008 308 1042 l 213 1056 b 457 951 269 992 358 951 b 700 1056 557 951 644 992 z "},"Ẫ":{"ha":914,"x_min":0,"x_max":0,"o":"m 643 942 l 507 1042 l 407 1042 l 275 942 l 346 942 l 457 1015 l 572 942 z m 901 0 l 528 926 l 385 926 l 13 0 l 144 0 l 226 206 l 688 206 l 769 0 z m 653 308 l 260 308 l 457 807 z m 539 1051 b 674 1144 626 1051 674 1090 l 611 1144 b 544 1085 611 1103 582 1085 b 374 1149 478 1085 474 1149 b 239 1056 286 1149 239 1110 l 301 1056 b 368 1115 301 1097 331 1115 b 539 1051 435 1115 438 1051 z "},"Ằ":{"ha":914,"x_min":0,"x_max":0,"o":"m 901 0 l 528 926 l 385 926 l 13 0 l 144 0 l 226 206 l 688 206 l 769 0 z m 653 308 l 260 308 l 457 807 z m 539 1029 l 333 1165 l 225 1165 l 460 1029 z m 700 1051 l 649 1089 b 457 1004 606 1036 538 1004 b 264 1089 375 1004 308 1038 l 213 1051 b 457 947 269 988 358 947 b 700 1051 557 947 644 988 z "},"Ẳ":{"ha":914,"x_min":0,"x_max":0,"o":"m 901 0 l 528 926 l 385 926 l 13 0 l 144 0 l 226 206 l 688 206 l 769 0 z m 653 308 l 260 308 l 457 807 z m 401 1089 b 457 1119 411 1108 429 1119 b 507 1082 488 1119 507 1107 b 475 1033 507 1067 499 1050 l 531 1033 b 557 1085 549 1050 557 1064 b 457 1149 557 1129 510 1149 b 356 1097 404 1149 369 1126 z m 700 1054 l 649 1092 b 457 1007 606 1039 538 1007 b 264 1092 375 1007 308 1040 l 213 1054 b 457 950 269 990 358 950 b 700 1054 557 950 644 990 z "},"Ẵ":{"ha":914,"x_min":0,"x_max":0,"o":"m 901 0 l 528 926 l 385 926 l 13 0 l 144 0 l 226 206 l 688 206 l 769 0 z m 653 308 l 260 308 l 457 807 z m 701 1018 l 650 1046 b 458 985 607 1007 539 985 b 265 1046 376 985 310 1008 l 214 1018 b 458 943 271 972 360 943 b 701 1018 558 943 646 972 z m 539 1051 b 674 1144 626 1051 674 1090 l 611 1144 b 544 1085 611 1103 582 1085 b 374 1149 478 1085 474 1149 b 239 1056 286 1149 239 1110 l 301 1056 b 368 1115 301 1097 331 1115 b 539 1051 435 1115 438 1051 z "},"Ặ":{"ha":914,"x_min":0,"x_max":0,"o":"m 901 0 l 528 926 l 385 926 l 13 0 l 144 0 l 226 206 l 688 206 l 769 0 z m 653 308 l 260 308 l 457 807 z m 457 -256 b 521 -190 493 -256 521 -226 b 457 -125 521 -154 493 -125 b 392 -190 422 -125 392 -154 b 457 -256 392 -226 422 -256 z m 700 1101 l 649 1146 b 457 1046 606 1083 538 1046 b 264 1146 375 1046 308 1085 l 213 1101 b 457 979 269 1026 358 979 b 700 1101 557 979 644 1026 z "},"Æ":{"ha":1315,"x_min":0,"x_max":0,"o":"m 1240 0 l 1240 103 l 749 103 l 749 422 l 1231 422 l 1231 525 l 749 525 l 749 824 l 1240 824 l 1240 926 l 588 926 l 10 0 l 142 0 l 268 206 l 633 206 l 633 0 z m 633 308 l 325 308 l 633 807 z "},"Ǽ":{"ha":1315,"x_min":0,"x_max":0,"o":"m 928 1204 l 819 1204 l 614 1004 l 693 1004 z m 1240 0 l 1240 103 l 749 103 l 749 422 l 1231 422 l 1231 525 l 749 525 l 749 824 l 1240 824 l 1240 926 l 588 926 l 10 0 l 142 0 l 268 206 l 633 206 l 633 0 z m 633 308 l 325 308 l 633 807 z "},"Ḃ":{"ha":874,"x_min":0,"x_max":0,"o":"m 531 0 b 799 250 700 0 799 101 b 618 478 799 361 717 463 b 781 690 703 496 781 574 b 521 926 781 829 682 926 l 108 926 l 108 0 z m 501 525 l 224 525 l 224 824 l 501 824 b 661 674 606 824 661 757 b 501 525 661 589 606 525 z m 507 103 l 224 103 l 224 422 l 507 422 b 679 263 621 422 679 347 b 507 103 679 164 615 103 z m 436 1003 b 500 1068 472 1003 500 1032 b 436 1133 500 1104 472 1133 b 371 1068 401 1133 371 1104 b 436 1003 371 1032 401 1003 z "},"Ć":{"ha":939,"x_min":0,"x_max":0,"o":"m 782 1204 l 674 1204 l 468 1004 l 547 1004 z m 547 -17 b 900 167 711 -17 822 61 l 801 221 b 547 86 749 142 653 86 b 190 463 344 86 190 243 b 547 839 190 683 344 839 b 801 704 653 839 749 782 l 899 758 b 547 942 825 863 711 942 b 71 463 281 942 71 747 b 547 -17 71 178 281 -17 z "},"Ç":{"ha":939,"x_min":0,"x_max":0,"o":"m 539 -260 b 683 -149 618 -260 683 -217 b 592 -56 683 -92 644 -56 b 540 -71 574 -56 554 -61 l 561 -17 b 900 167 718 -12 824 64 l 801 221 b 547 86 749 142 653 86 b 190 463 344 86 190 243 b 547 839 190 683 344 839 b 801 704 653 839 749 782 l 899 758 b 547 942 825 863 711 942 b 71 463 281 942 71 747 b 500 -14 71 194 256 7 l 471 -96 l 517 -122 b 569 -99 529 -108 550 -99 b 621 -147 604 -99 621 -118 b 536 -206 621 -185 581 -206 b 425 -165 499 -206 458 -193 l 399 -218 b 539 -260 426 -240 479 -260 z "},"Ĉ":{"ha":939,"x_min":0,"x_max":0,"o":"m 731 1004 l 594 1204 l 494 1204 l 363 1004 l 433 1004 l 544 1151 l 660 1004 z m 547 -17 b 900 167 711 -17 822 61 l 801 221 b 547 86 749 142 653 86 b 190 463 344 86 190 243 b 547 839 190 683 344 839 b 801 704 653 839 749 782 l 899 758 b 547 942 825 863 711 942 b 71 463 281 942 71 747 b 547 -17 71 178 281 -17 z "},"Ċ":{"ha":939,"x_min":0,"x_max":0,"o":"m 547 -17 b 900 167 711 -17 822 61 l 801 221 b 547 86 749 142 653 86 b 190 463 344 86 190 243 b 547 839 190 683 344 839 b 801 704 653 839 749 782 l 899 758 b 547 942 825 863 711 942 b 71 463 281 942 71 747 b 547 -17 71 178 281 -17 z m 550 1003 b 614 1068 586 1003 614 1032 b 550 1133 614 1104 586 1133 b 485 1068 515 1133 485 1104 b 550 1003 485 1032 515 1003 z "},"Č":{"ha":939,"x_min":0,"x_max":0,"o":"m 599 1004 l 731 1204 l 660 1204 l 549 1057 l 433 1204 l 363 1204 l 499 1004 z m 547 -17 b 900 167 711 -17 822 61 l 801 221 b 547 86 749 142 653 86 b 190 463 344 86 190 243 b 547 839 190 683 344 839 b 801 704 653 839 749 782 l 899 758 b 547 942 825 863 711 942 b 71 463 281 942 71 747 b 547 -17 71 178 281 -17 z "},"Ď":{"ha":972,"x_min":0,"x_max":0,"o":"m 540 1004 l 672 1204 l 601 1204 l 490 1057 l 375 1204 l 304 1204 l 440 1004 z m 425 0 b 900 463 713 0 900 199 b 425 926 900 725 713 926 l 108 926 l 108 0 z m 425 103 l 224 103 l 224 824 l 425 824 b 781 463 654 824 781 663 b 425 103 781 264 650 103 z "},"Đ":{"ha":1011,"x_min":0,"x_max":0,"o":"m 464 0 b 939 463 751 0 939 199 b 464 926 939 725 751 926 l 147 926 l 147 500 l 14 500 l 14 415 l 147 415 l 147 0 z m 464 103 l 263 103 l 263 415 l 497 415 l 497 500 l 263 500 l 263 824 l 464 824 b 819 463 693 824 819 663 b 464 103 819 264 689 103 z "},"Ḋ":{"ha":972,"x_min":0,"x_max":0,"o":"m 425 0 b 900 463 713 0 900 199 b 425 926 900 725 713 926 l 108 926 l 108 0 z m 425 103 l 224 103 l 224 824 l 425 824 b 781 463 654 824 781 663 b 425 103 781 264 650 103 z m 486 1003 b 550 1068 522 1003 550 1032 b 486 1133 550 1104 522 1133 b 421 1068 451 1133 421 1104 b 486 1003 421 1032 451 1003 z "},"É":{"ha":790,"x_min":0,"x_max":0,"o":"m 646 1204 l 538 1204 l 332 1004 l 411 1004 z m 715 0 l 715 103 l 224 103 l 224 422 l 706 422 l 706 525 l 224 525 l 224 824 l 715 824 l 715 926 l 108 926 l 108 0 z "},"Ĕ":{"ha":790,"x_min":0,"x_max":0,"o":"m 715 0 l 715 103 l 224 103 l 224 422 l 706 422 l 706 525 l 224 525 l 224 824 l 715 824 l 715 926 l 108 926 l 108 0 z m 657 1101 l 606 1146 b 414 1046 563 1083 494 1046 b 221 1146 332 1046 265 1085 l 169 1101 b 414 979 226 1026 315 979 b 657 1101 514 979 601 1026 z "},"Ê":{"ha":790,"x_min":0,"x_max":0,"o":"m 594 1004 l 458 1204 l 358 1204 l 226 1004 l 297 1004 l 408 1151 l 524 1004 z m 715 0 l 715 103 l 224 103 l 224 422 l 706 422 l 706 525 l 224 525 l 224 824 l 715 824 l 715 926 l 108 926 l 108 0 z "},"Ë":{"ha":790,"x_min":0,"x_max":0,"o":"m 619 1071 b 554 1135 619 1106 589 1135 b 489 1071 519 1135 489 1106 b 554 1006 489 1035 519 1006 b 619 1071 589 1006 619 1035 z m 332 1071 b 268 1135 332 1106 303 1135 b 203 1071 232 1135 203 1106 b 268 1006 203 1035 232 1006 b 332 1071 303 1006 332 1035 z m 715 0 l 715 103 l 224 103 l 224 422 l 706 422 l 706 525 l 224 525 l 224 824 l 715 824 l 715 926 l 108 926 l 108 0 z "},"Ė":{"ha":790,"x_min":0,"x_max":0,"o":"m 715 0 l 715 103 l 224 103 l 224 422 l 706 422 l 706 525 l 224 525 l 224 824 l 715 824 l 715 926 l 108 926 l 108 0 z m 417 1003 b 481 1068 453 1003 481 1032 b 417 1133 481 1104 453 1133 b 351 1068 382 1133 351 1104 b 417 1003 351 1032 382 1003 z "},"È":{"ha":790,"x_min":0,"x_max":0,"o":"m 715 0 l 715 103 l 224 103 l 224 422 l 706 422 l 706 525 l 224 525 l 224 824 l 715 824 l 715 926 l 108 926 l 108 0 z m 490 1004 l 285 1204 l 176 1204 l 411 1004 z "},"Ē":{"ha":790,"x_min":0,"x_max":0,"o":"m 715 0 l 715 103 l 224 103 l 224 422 l 706 422 l 706 525 l 224 525 l 224 824 l 715 824 l 715 926 l 108 926 l 108 0 z m 663 1026 l 663 1093 l 158 1093 l 158 1026 z "},"Ę":{"ha":790,"x_min":0,"x_max":0,"o":"m 715 0 l 715 103 l 224 103 l 224 422 l 706 422 l 706 525 l 224 525 l 224 824 l 715 824 l 715 926 l 108 926 l 108 0 l 621 0 b 547 -137 575 -36 547 -85 b 671 -258 547 -222 606 -258 b 794 -175 738 -258 775 -219 l 743 -146 b 671 -204 731 -183 710 -204 b 610 -135 635 -204 610 -182 b 715 0 610 -76 649 -33 z "},"Ě":{"ha":790,"x_min":0,"x_max":0,"o":"m 465 1004 l 597 1204 l 526 1204 l 415 1057 l 300 1204 l 229 1204 l 365 1004 z m 715 0 l 715 103 l 224 103 l 224 422 l 706 422 l 706 525 l 224 525 l 224 824 l 715 824 l 715 926 l 108 926 l 108 0 z "},"Ẹ":{"ha":790,"x_min":0,"x_max":0,"o":"m 715 0 l 715 103 l 224 103 l 224 422 l 706 422 l 706 525 l 224 525 l 224 824 l 715 824 l 715 926 l 108 926 l 108 0 z m 417 -256 b 481 -190 453 -256 481 -226 b 417 -125 481 -154 453 -125 b 351 -190 382 -125 351 -154 b 417 -256 351 -226 382 -256 z "},"Ẻ":{"ha":790,"x_min":0,"x_max":0,"o":"m 715 0 l 715 103 l 224 103 l 224 422 l 706 422 l 706 525 l 224 525 l 224 824 l 715 824 l 715 926 l 108 926 l 108 0 z m 350 1050 b 406 1094 360 1078 378 1094 b 456 1040 436 1094 456 1076 b 424 968 456 1017 447 992 l 479 968 b 506 1043 497 993 506 1013 b 406 1139 506 1110 458 1139 b 304 1063 353 1139 318 1106 z "},"Ẽ":{"ha":790,"x_min":0,"x_max":0,"o":"m 715 0 l 715 103 l 224 103 l 224 422 l 706 422 l 706 525 l 224 525 l 224 824 l 715 824 l 715 926 l 108 926 l 108 0 z m 496 1001 b 631 1188 583 1001 631 1079 l 568 1188 b 501 1068 568 1104 539 1068 b 331 1196 435 1068 431 1196 b 196 1010 243 1196 196 1118 l 258 1010 b 325 1129 258 1093 288 1129 b 496 1001 392 1129 394 1001 z "},"Ế":{"ha":790,"x_min":0,"x_max":0,"o":"m 603 947 l 467 1097 l 367 1097 l 235 947 l 306 947 l 417 1057 l 532 947 z m 872 1172 l 764 1172 l 558 1022 l 638 1022 z m 715 0 l 715 103 l 224 103 l 224 422 l 706 422 l 706 525 l 224 525 l 224 824 l 715 824 l 715 926 l 108 926 l 108 0 z "},"Ề":{"ha":790,"x_min":0,"x_max":0,"o":"m 601 947 l 465 1097 l 365 1097 l 233 947 l 304 947 l 415 1057 l 531 947 z m 715 0 l 715 103 l 224 103 l 224 422 l 706 422 l 706 525 l 224 525 l 224 824 l 715 824 l 715 926 l 108 926 l 108 0 z m 276 1022 l 71 1172 l -37 1172 l 197 1022 z "},"Ể":{"ha":790,"x_min":0,"x_max":0,"o":"m 603 947 l 467 1097 l 367 1097 l 235 947 l 306 947 l 417 1057 l 532 947 z m 715 0 l 715 103 l 224 103 l 224 422 l 706 422 l 706 525 l 224 525 l 224 824 l 715 824 l 715 926 l 108 926 l 108 0 z m 554 1094 b 610 1128 564 1115 582 1128 b 660 1088 640 1128 660 1115 b 628 1033 660 1069 651 1051 l 683 1033 b 710 1090 701 1053 710 1067 b 610 1161 710 1140 663 1161 b 508 1104 557 1161 522 1136 z "},"Ễ":{"ha":790,"x_min":0,"x_max":0,"o":"m 603 942 l 467 1042 l 367 1042 l 235 942 l 306 942 l 417 1015 l 532 942 z m 715 0 l 715 103 l 224 103 l 224 422 l 706 422 l 706 525 l 224 525 l 224 824 l 715 824 l 715 926 l 108 926 l 108 0 z m 499 1051 b 633 1144 586 1051 633 1090 l 571 1144 b 504 1085 571 1103 542 1085 b 333 1149 438 1085 433 1149 b 199 1056 246 1149 199 1110 l 261 1056 b 328 1115 261 1097 290 1115 b 499 1051 394 1115 397 1051 z "},"Ệ":{"ha":790,"x_min":0,"x_max":0,"o":"m 594 1004 l 458 1204 l 358 1204 l 226 1004 l 297 1004 l 408 1151 l 524 1004 z m 715 0 l 715 103 l 224 103 l 224 422 l 706 422 l 706 525 l 224 525 l 224 824 l 715 824 l 715 926 l 108 926 l 108 0 z m 417 -256 b 481 -190 453 -256 481 -226 b 417 -125 481 -154 453 -125 b 351 -190 382 -125 351 -154 b 417 -256 351 -226 382 -256 z "},"Ḟ":{"ha":764,"x_min":0,"x_max":0,"o":"m 413 1003 b 476 1068 449 1003 476 1032 b 413 1133 476 1104 449 1133 b 347 1068 378 1133 347 1104 b 413 1003 347 1032 378 1003 z m 224 0 l 224 422 l 706 422 l 706 525 l 224 525 l 224 824 l 715 824 l 715 926 l 108 926 l 108 0 z "},"Ĝ":{"ha":990,"x_min":0,"x_max":0,"o":"m 738 1004 l 601 1204 l 501 1204 l 369 1004 l 440 1004 l 551 1151 l 667 1004 z m 547 -18 b 911 142 699 -18 825 46 l 911 476 l 478 476 l 478 374 l 796 374 l 796 185 b 547 85 750 139 658 85 b 190 463 344 85 190 243 b 547 839 190 683 344 839 b 815 711 658 839 757 786 l 907 768 b 547 942 825 869 711 942 b 71 463 283 942 71 750 b 547 -18 71 175 283 -18 z "},"Ğ":{"ha":990,"x_min":0,"x_max":0,"o":"m 547 -18 b 911 142 699 -18 825 46 l 911 476 l 478 476 l 478 374 l 796 374 l 796 185 b 547 85 750 139 658 85 b 190 463 344 85 190 243 b 547 839 190 683 344 839 b 815 711 658 839 757 786 l 907 768 b 547 942 825 869 711 942 b 71 463 283 942 71 750 b 547 -18 71 175 283 -18 z m 794 1101 l 743 1146 b 551 1046 700 1083 632 1046 b 358 1146 469 1046 403 1085 l 307 1101 b 551 979 364 1026 453 979 b 794 1101 651 979 739 1026 z "},"Ġ":{"ha":990,"x_min":0,"x_max":0,"o":"m 547 -18 b 911 142 699 -18 825 46 l 911 476 l 478 476 l 478 374 l 796 374 l 796 185 b 547 85 750 139 658 85 b 190 463 344 85 190 243 b 547 839 190 683 344 839 b 815 711 658 839 757 786 l 907 768 b 547 942 825 869 711 942 b 71 463 283 942 71 750 b 547 -18 71 175 283 -18 z m 550 1003 b 614 1068 586 1003 614 1032 b 550 1133 614 1104 586 1133 b 485 1068 515 1133 485 1104 b 550 1003 485 1032 515 1003 z "},"Ģ":{"ha":990,"x_min":0,"x_max":0,"o":"m 622 -192 b 549 -99 622 -132 588 -99 b 485 -164 513 -99 485 -128 b 543 -225 485 -199 510 -225 b 558 -222 547 -225 557 -224 b 478 -342 554 -262 519 -314 l 524 -378 b 622 -192 578 -337 622 -267 z m 547 -18 b 911 142 699 -18 825 46 l 911 476 l 478 476 l 478 374 l 796 374 l 796 185 b 547 85 750 139 658 85 b 190 463 344 85 190 243 b 547 839 190 683 344 839 b 815 711 658 839 757 786 l 907 768 b 547 942 825 869 711 942 b 71 463 283 942 71 750 b 547 -18 71 175 283 -18 z "},"Ħ":{"ha":1015,"x_min":0,"x_max":0,"o":"m 894 0 l 894 692 l 1001 692 l 1001 758 l 894 758 l 894 926 l 779 926 l 779 758 l 238 758 l 238 926 l 122 926 l 122 758 l 14 758 l 14 692 l 122 692 l 122 0 l 238 0 l 238 425 l 779 425 l 779 0 z m 238 528 l 238 692 l 779 692 l 779 528 z "},"Ĥ":{"ha":989,"x_min":0,"x_max":0,"o":"m 675 1004 l 539 1204 l 439 1204 l 307 1004 l 378 1004 l 489 1151 l 604 1004 z m 881 0 l 881 926 l 765 926 l 765 528 l 224 528 l 224 926 l 108 926 l 108 0 l 224 0 l 224 425 l 765 425 l 765 0 z "},"Ḣ":{"ha":989,"x_min":0,"x_max":0,"o":"m 881 0 l 881 926 l 765 926 l 765 528 l 224 528 l 224 926 l 108 926 l 108 0 l 224 0 l 224 425 l 765 425 l 765 0 z m 493 1003 b 557 1068 529 1003 557 1032 b 493 1133 557 1104 529 1133 b 428 1068 458 1133 428 1104 b 493 1003 428 1032 458 1003 z "},"Í":{"ha":332,"x_min":0,"x_max":0,"o":"m 224 0 l 224 926 l 108 926 l 108 0 z m 401 1204 l 293 1204 l 88 1004 l 167 1004 z "},"Ĭ":{"ha":332,"x_min":0,"x_max":0,"o":"m 224 0 l 224 926 l 108 926 l 108 0 z m 411 1101 l 360 1146 b 168 1046 317 1083 249 1046 b -25 1146 86 1046 19 1085 l -76 1101 b 168 979 -19 1026 69 979 b 411 1101 268 979 356 1026 z "},"Î":{"ha":332,"x_min":0,"x_max":0,"o":"m 351 1004 l 215 1204 l 115 1204 l -17 1004 l 54 1004 l 165 1151 l 281 1004 z m 224 0 l 224 926 l 108 926 l 108 0 z "},"Ï":{"ha":332,"x_min":0,"x_max":0,"o":"m 375 1071 b 310 1135 375 1106 344 1135 b 244 1071 275 1135 244 1106 b 310 1006 244 1035 275 1006 b 375 1071 344 1006 375 1035 z m 88 1071 b 24 1135 88 1106 58 1135 b -42 1071 -12 1135 -42 1106 b 24 1006 -42 1035 -12 1006 b 88 1071 58 1006 88 1035 z m 224 0 l 224 926 l 108 926 l 108 0 z "},"İ":{"ha":332,"x_min":0,"x_max":0,"o":"m 224 0 l 224 926 l 108 926 l 108 0 z m 167 1003 b 231 1068 203 1003 231 1032 b 167 1133 231 1104 203 1133 b 101 1068 132 1133 101 1104 b 167 1003 101 1032 132 1003 z "},"Ì":{"ha":332,"x_min":0,"x_max":0,"o":"m 224 0 l 224 926 l 108 926 l 108 0 z m 244 1004 l 39 1204 l -69 1204 l 165 1004 z "},"Ī":{"ha":332,"x_min":0,"x_max":0,"o":"m 224 0 l 224 926 l 108 926 l 108 0 z m 419 1026 l 419 1093 l -85 1093 l -85 1026 z "},"Į":{"ha":332,"x_min":0,"x_max":0,"o":"m 251 -146 b 179 -204 239 -183 218 -204 b 118 -135 143 -204 118 -182 b 224 0 118 -76 157 -33 l 224 926 l 108 926 l 108 0 l 129 0 b 56 -137 83 -36 56 -85 b 179 -258 56 -222 114 -258 b 303 -175 246 -258 283 -219 z "},"Ĩ":{"ha":332,"x_min":0,"x_max":0,"o":"m 224 0 l 224 926 l 108 926 l 108 0 z m 249 1001 b 383 1188 336 1001 383 1079 l 321 1188 b 254 1068 321 1104 292 1068 b 83 1196 188 1068 183 1196 b -51 1010 -4 1196 -51 1118 l 11 1010 b 78 1129 11 1093 40 1129 b 249 1001 144 1129 147 1001 z "},"Ỉ":{"ha":332,"x_min":0,"x_max":0,"o":"m 224 0 l 224 926 l 108 926 l 108 0 z m 111 1050 b 167 1094 121 1078 139 1094 b 217 1040 197 1094 217 1076 b 185 968 217 1017 208 992 l 240 968 b 267 1043 258 993 267 1013 b 167 1139 267 1110 219 1139 b 65 1063 114 1139 79 1106 z "},"Ị":{"ha":332,"x_min":0,"x_max":0,"o":"m 224 0 l 224 926 l 108 926 l 108 0 z m 167 -256 b 231 -190 203 -256 231 -226 b 167 -125 231 -154 203 -125 b 101 -190 132 -125 101 -154 b 167 -256 101 -226 132 -256 z "},"Ĳ":{"ha":990,"x_min":0,"x_max":0,"o":"m 224 0 l 224 926 l 108 926 l 108 0 z m 589 -17 b 883 279 754 -17 883 78 l 883 926 l 768 926 l 768 281 b 582 86 768 165 696 86 b 407 178 501 86 447 129 l 347 90 b 589 -17 411 15 490 -17 z "},"Ĵ":{"ha":660,"x_min":0,"x_max":0,"o":"m 678 1004 l 542 1204 l 442 1204 l 310 1004 l 381 1004 l 492 1151 l 607 1004 z m 257 -17 b 551 279 422 -17 551 78 l 551 926 l 436 926 l 436 281 b 250 86 436 165 364 86 b 75 178 169 86 115 129 l 15 90 b 257 -17 79 15 158 -17 z "},"Ķ":{"ha":842,"x_min":0,"x_max":0,"o":"m 500 -192 b 426 -99 500 -132 465 -99 b 363 -164 390 -99 363 -128 b 421 -225 363 -199 388 -225 b 436 -222 425 -225 435 -224 b 356 -342 432 -262 397 -314 l 401 -378 b 500 -192 456 -337 500 -267 z m 811 0 l 392 486 l 778 926 l 633 926 l 224 447 l 224 926 l 108 926 l 108 0 l 224 0 l 224 311 l 317 417 l 668 0 z "},"Ĺ":{"ha":708,"x_min":0,"x_max":0,"o":"m 615 1204 l 507 1204 l 301 1004 l 381 1004 z m 654 0 l 654 103 l 224 103 l 224 926 l 108 926 l 108 0 z "},"Ľ":{"ha":708,"x_min":0,"x_max":0,"o":"m 492 851 b 418 944 492 911 457 944 b 354 879 382 944 354 915 b 413 818 354 844 379 818 b 428 821 417 818 426 819 b 347 701 424 781 389 729 l 393 665 b 492 851 447 706 492 776 z m 654 0 l 654 103 l 224 103 l 224 926 l 108 926 l 108 0 z "},"Ļ":{"ha":708,"x_min":0,"x_max":0,"o":"m 443 -192 b 369 -99 443 -132 408 -99 b 306 -164 333 -99 306 -128 b 364 -225 306 -199 331 -225 b 379 -222 368 -225 378 -224 b 299 -342 375 -262 340 -314 l 344 -378 b 443 -192 399 -337 443 -267 z m 654 0 l 654 103 l 224 103 l 224 926 l 108 926 l 108 0 z "},"Ŀ":{"ha":708,"x_min":0,"x_max":0,"o":"m 654 0 l 654 103 l 224 103 l 224 926 l 108 926 l 108 0 z m 589 474 b 513 550 589 515 554 550 b 436 474 471 550 436 515 b 513 399 436 433 471 399 b 589 474 554 399 589 433 z "},"Ł":{"ha":735,"x_min":0,"x_max":0,"o":"m 14 307 l 135 376 l 135 0 l 681 0 l 681 103 l 250 103 l 250 443 l 385 521 l 385 621 l 250 543 l 250 926 l 135 926 l 135 476 l 14 407 z "},"Ń":{"ha":983,"x_min":0,"x_max":0,"o":"m 738 1204 l 629 1204 l 424 1004 l 503 1004 z m 875 0 l 875 926 l 760 926 l 760 203 l 226 926 l 108 926 l 108 0 l 224 0 l 224 739 l 764 0 z "},"Ň":{"ha":983,"x_min":0,"x_max":0,"o":"m 542 1004 l 674 1204 l 603 1204 l 492 1057 l 376 1204 l 306 1204 l 442 1004 z m 875 0 l 875 926 l 760 926 l 760 203 l 226 926 l 108 926 l 108 0 l 224 0 l 224 739 l 764 0 z "},"Ņ":{"ha":983,"x_min":0,"x_max":0,"o":"m 571 -192 b 497 -99 571 -132 536 -99 b 433 -164 461 -99 433 -128 b 492 -225 433 -199 458 -225 b 507 -222 496 -225 506 -224 b 426 -342 503 -262 468 -314 l 472 -378 b 571 -192 526 -337 571 -267 z m 875 0 l 875 926 l 760 926 l 760 203 l 226 926 l 108 926 l 108 0 l 224 0 l 224 739 l 764 0 z "},"Ñ":{"ha":983,"x_min":0,"x_max":0,"o":"m 572 1001 b 707 1188 660 1001 707 1079 l 644 1188 b 578 1068 644 1104 615 1068 b 407 1196 511 1068 507 1196 b 272 1010 319 1196 272 1118 l 335 1010 b 401 1129 335 1093 364 1129 b 572 1001 468 1129 471 1001 z m 875 0 l 875 926 l 760 926 l 760 203 l 226 926 l 108 926 l 108 0 l 224 0 l 224 739 l 764 0 z "},"Ŋ":{"ha":983,"x_min":0,"x_max":0,"o":"m 581 -272 b 875 21 746 -272 875 -181 l 875 926 l 760 926 l 760 203 l 226 926 l 108 926 l 108 0 l 224 0 l 224 739 l 758 6 b 574 -169 753 -99 682 -169 b 400 -78 493 -169 439 -126 l 339 -165 b 581 -272 403 -240 483 -272 z "},"Ó":{"ha":1063,"x_min":0,"x_max":0,"o":"m 767 1204 l 658 1204 l 453 1004 l 532 1004 z m 531 -17 b 990 463 804 -17 990 189 b 531 942 990 736 804 942 b 71 463 256 942 71 736 b 531 -17 71 189 256 -17 z m 531 86 b 190 463 322 86 190 247 b 531 839 190 679 322 839 b 871 463 738 839 871 679 b 531 86 871 247 738 86 z "},"Ŏ":{"ha":1063,"x_min":0,"x_max":0,"o":"m 531 -17 b 990 463 804 -17 990 189 b 531 942 990 736 804 942 b 71 463 256 942 71 736 b 531 -17 71 189 256 -17 z m 531 86 b 190 463 322 86 190 247 b 531 839 190 679 322 839 b 871 463 738 839 871 679 b 531 86 871 247 738 86 z m 774 1101 l 722 1146 b 531 1046 679 1083 611 1046 b 338 1146 449 1046 382 1085 l 286 1101 b 531 979 343 1026 432 979 b 774 1101 631 979 718 1026 z "},"Ô":{"ha":1063,"x_min":0,"x_max":0,"o":"m 718 1004 l 582 1204 l 482 1204 l 350 1004 l 421 1004 l 532 1151 l 647 1004 z m 531 -17 b 990 463 804 -17 990 189 b 531 942 990 736 804 942 b 71 463 256 942 71 736 b 531 -17 71 189 256 -17 z m 531 86 b 190 463 322 86 190 247 b 531 839 190 679 322 839 b 871 463 738 839 871 679 b 531 86 871 247 738 86 z "},"Ö":{"ha":1063,"x_min":0,"x_max":0,"o":"m 739 1071 b 674 1135 739 1106 708 1135 b 608 1071 639 1135 608 1106 b 674 1006 608 1035 639 1006 b 739 1071 708 1006 739 1035 z m 451 1071 b 388 1135 451 1106 422 1135 b 322 1071 351 1135 322 1106 b 388 1006 322 1035 351 1006 b 451 1071 422 1006 451 1035 z m 531 -17 b 990 463 804 -17 990 189 b 531 942 990 736 804 942 b 71 463 256 942 71 736 b 531 -17 71 189 256 -17 z m 531 86 b 190 463 322 86 190 247 b 531 839 190 679 322 839 b 871 463 738 839 871 679 b 531 86 871 247 738 86 z "},"Ò":{"ha":1063,"x_min":0,"x_max":0,"o":"m 611 1004 l 406 1204 l 297 1204 l 532 1004 z m 531 -17 b 990 463 804 -17 990 189 b 531 942 990 736 804 942 b 71 463 256 942 71 736 b 531 -17 71 189 256 -17 z m 531 86 b 190 463 322 86 190 247 b 531 839 190 679 322 839 b 871 463 738 839 871 679 b 531 86 871 247 738 86 z "},"Ő":{"ha":1063,"x_min":0,"x_max":0,"o":"m 604 1204 l 508 1204 l 378 1004 l 444 1004 z m 801 1204 l 706 1204 l 575 1004 l 642 1004 z m 531 -17 b 990 463 804 -17 990 189 b 531 942 990 736 804 942 b 71 463 256 942 71 736 b 531 -17 71 189 256 -17 z m 531 86 b 190 463 322 86 190 247 b 531 839 190 679 322 839 b 871 463 738 839 871 679 b 531 86 871 247 738 86 z "},"Ō":{"ha":1063,"x_min":0,"x_max":0,"o":"m 782 1026 l 782 1093 l 278 1093 l 278 1026 z m 531 -17 b 990 463 804 -17 990 189 b 531 942 990 736 804 942 b 71 463 256 942 71 736 b 531 -17 71 189 256 -17 z m 531 86 b 190 463 322 86 190 247 b 531 839 190 679 322 839 b 871 463 738 839 871 679 b 531 86 871 247 738 86 z "},"Ø":{"ha":1063,"x_min":0,"x_max":0,"o":"m 531 -17 b 990 463 804 -17 990 189 b 825 840 990 619 929 754 l 883 926 l 792 926 l 763 883 b 531 942 696 921 618 942 b 71 463 256 942 71 736 b 229 90 71 308 129 176 l 168 0 l 260 0 l 290 46 b 531 -17 358 6 439 -17 z m 531 86 b 350 135 461 86 400 103 l 763 747 b 871 463 832 681 871 579 b 531 86 871 247 738 86 z m 190 463 b 531 839 190 679 322 839 b 703 794 596 839 654 822 l 292 183 b 190 463 226 250 190 349 z "},"Ǿ":{"ha":1063,"x_min":0,"x_max":0,"o":"m 767 1204 l 658 1204 l 453 1004 l 532 1004 z m 531 -17 b 990 463 804 -17 990 189 b 825 840 990 619 929 754 l 883 926 l 792 926 l 763 883 b 531 942 696 921 618 942 b 71 463 256 942 71 736 b 229 90 71 308 129 176 l 168 0 l 260 0 l 290 46 b 531 -17 358 6 439 -17 z m 531 86 b 350 135 461 86 400 103 l 763 747 b 871 463 832 681 871 579 b 531 86 871 247 738 86 z m 190 463 b 531 839 190 679 322 839 b 703 794 596 839 654 822 l 292 183 b 190 463 226 250 190 349 z "},"Õ":{"ha":1063,"x_min":0,"x_max":0,"o":"m 531 -17 b 990 463 804 -17 990 189 b 531 942 990 736 804 942 b 71 463 256 942 71 736 b 531 -17 71 189 256 -17 z m 531 86 b 190 463 322 86 190 247 b 531 839 190 679 322 839 b 871 463 738 839 871 679 b 531 86 871 247 738 86 z m 614 1001 b 749 1188 701 1001 749 1079 l 686 1188 b 619 1068 686 1104 657 1068 b 449 1196 553 1068 549 1196 b 314 1010 361 1196 314 1118 l 376 1010 b 443 1129 376 1093 406 1129 b 614 1001 510 1129 513 1001 z "},"Ọ":{"ha":1063,"x_min":0,"x_max":0,"o":"m 531 -17 b 990 463 804 -17 990 189 b 531 942 990 736 804 942 b 71 463 256 942 71 736 b 531 -17 71 189 256 -17 z m 531 86 b 190 463 322 86 190 247 b 531 839 190 679 322 839 b 871 463 738 839 871 679 b 531 86 871 247 738 86 z m 533 -256 b 597 -190 569 -256 597 -226 b 533 -125 597 -154 569 -125 b 468 -190 499 -125 468 -154 b 533 -256 468 -226 499 -256 z "},"Ỏ":{"ha":1063,"x_min":0,"x_max":0,"o":"m 531 -17 b 990 463 804 -17 990 189 b 531 942 990 736 804 942 b 71 463 256 942 71 736 b 531 -17 71 189 256 -17 z m 531 86 b 190 463 322 86 190 247 b 531 839 190 679 322 839 b 871 463 738 839 871 679 b 531 86 871 247 738 86 z m 474 1050 b 529 1094 483 1078 501 1094 b 579 1040 560 1094 579 1076 b 547 968 579 1017 571 992 l 603 968 b 629 1043 621 993 629 1013 b 529 1139 629 1110 582 1139 b 428 1063 476 1139 442 1106 z "},"Ố":{"ha":1063,"x_min":0,"x_max":0,"o":"m 713 947 l 576 1097 l 476 1097 l 344 947 l 415 947 l 526 1057 l 642 947 z m 982 1172 l 874 1172 l 668 1022 l 747 1022 z m 531 -17 b 990 463 804 -17 990 189 b 531 942 990 736 804 942 b 71 463 256 942 71 736 b 531 -17 71 189 256 -17 z m 531 86 b 190 463 322 86 190 247 b 531 839 190 679 322 839 b 871 463 738 839 871 679 b 531 86 871 247 738 86 z "},"Ồ":{"ha":1063,"x_min":0,"x_max":0,"o":"m 711 947 l 575 1097 l 475 1097 l 343 947 l 414 947 l 525 1057 l 640 947 z m 531 -17 b 990 463 804 -17 990 189 b 531 942 990 736 804 942 b 71 463 256 942 71 736 b 531 -17 71 189 256 -17 z m 531 86 b 190 463 322 86 190 247 b 531 839 190 679 322 839 b 871 463 738 839 871 679 b 531 86 871 247 738 86 z m 386 1022 l 181 1172 l 72 1172 l 307 1022 z "},"Ổ":{"ha":1063,"x_min":0,"x_max":0,"o":"m 711 947 l 575 1097 l 475 1097 l 343 947 l 414 947 l 525 1057 l 640 947 z m 531 -17 b 990 463 804 -17 990 189 b 531 942 990 736 804 942 b 71 463 256 942 71 736 b 531 -17 71 189 256 -17 z m 531 86 b 190 463 322 86 190 247 b 531 839 190 679 322 839 b 871 463 738 839 871 679 b 531 86 871 247 738 86 z m 663 1094 b 718 1128 672 1115 690 1128 b 768 1088 749 1128 768 1115 b 736 1033 768 1069 760 1051 l 792 1033 b 818 1090 810 1053 818 1067 b 718 1161 818 1140 771 1161 b 617 1104 665 1161 631 1136 z "},"Ỗ":{"ha":1063,"x_min":0,"x_max":0,"o":"m 714 942 l 578 1042 l 478 1042 l 346 942 l 417 942 l 528 1015 l 643 942 z m 531 -17 b 990 463 804 -17 990 189 b 531 942 990 736 804 942 b 71 463 256 942 71 736 b 531 -17 71 189 256 -17 z m 531 86 b 190 463 322 86 190 247 b 531 839 190 679 322 839 b 871 463 738 839 871 679 b 531 86 871 247 738 86 z m 610 1051 b 744 1144 697 1051 744 1090 l 682 1144 b 615 1085 682 1103 653 1085 b 444 1149 549 1085 544 1149 b 310 1056 357 1149 310 1110 l 372 1056 b 439 1115 372 1097 401 1115 b 610 1051 506 1115 508 1051 z "},"Ộ":{"ha":1063,"x_min":0,"x_max":0,"o":"m 718 1004 l 582 1204 l 482 1204 l 350 1004 l 421 1004 l 532 1151 l 647 1004 z m 531 -17 b 990 463 804 -17 990 189 b 531 942 990 736 804 942 b 71 463 256 942 71 736 b 531 -17 71 189 256 -17 z m 531 86 b 190 463 322 86 190 247 b 531 839 190 679 322 839 b 871 463 738 839 871 679 b 531 86 871 247 738 86 z m 535 -256 b 599 -190 571 -256 599 -226 b 535 -125 599 -154 571 -125 b 469 -190 500 -125 469 -154 b 535 -256 469 -226 500 -256 z "},"Ơ":{"ha":1063,"x_min":0,"x_max":0,"o":"m 531 -17 b 990 463 804 -17 990 189 b 908 747 990 571 960 668 b 999 922 958 785 999 851 b 929 1010 999 978 967 1010 b 871 949 896 1010 871 982 b 925 892 871 917 893 892 b 940 894 931 892 939 893 b 876 789 936 858 910 817 b 531 942 794 883 675 942 b 71 463 256 942 71 736 b 531 -17 71 189 256 -17 z m 531 86 b 190 463 322 86 190 247 b 531 839 190 679 322 839 b 871 463 738 839 871 679 b 531 86 871 247 738 86 z "},"Ớ":{"ha":1063,"x_min":0,"x_max":0,"o":"m 767 1204 l 658 1204 l 453 1004 l 532 1004 z m 531 -17 b 990 463 804 -17 990 189 b 908 747 990 571 960 668 b 999 922 958 785 999 851 b 929 1010 999 978 967 1010 b 871 949 896 1010 871 982 b 925 892 871 917 893 892 b 940 894 931 892 939 893 b 876 789 936 858 910 817 b 531 942 794 883 675 942 b 71 463 256 942 71 736 b 531 -17 71 189 256 -17 z m 531 86 b 190 463 322 86 190 247 b 531 839 190 679 322 839 b 871 463 738 839 871 679 b 531 86 871 247 738 86 z "},"Ờ":{"ha":1063,"x_min":0,"x_max":0,"o":"m 531 -17 b 990 463 804 -17 990 189 b 908 747 990 571 960 668 b 999 922 958 785 999 851 b 929 1010 999 978 967 1010 b 871 949 896 1010 871 982 b 925 892 871 917 893 892 b 940 894 931 892 939 893 b 876 789 936 858 910 817 b 531 942 794 883 675 942 b 71 463 256 942 71 736 b 531 -17 71 189 256 -17 z m 531 86 b 190 463 322 86 190 247 b 531 839 190 679 322 839 b 871 463 738 839 871 679 b 531 86 871 247 738 86 z m 611 1004 l 406 1204 l 297 1204 l 532 1004 z "},"Ở":{"ha":1063,"x_min":0,"x_max":0,"o":"m 531 -17 b 990 463 804 -17 990 189 b 908 747 990 571 960 668 b 999 922 958 785 999 851 b 929 1010 999 978 967 1010 b 871 949 896 1010 871 982 b 925 892 871 917 893 892 b 940 894 931 892 939 893 b 876 789 936 858 910 817 b 531 942 794 883 675 942 b 71 463 256 942 71 736 b 531 -17 71 189 256 -17 z m 531 86 b 190 463 322 86 190 247 b 531 839 190 679 322 839 b 871 463 738 839 871 679 b 531 86 871 247 738 86 z m 475 1050 b 531 1094 485 1078 503 1094 b 581 1040 561 1094 581 1076 b 549 968 581 1017 572 992 l 604 968 b 631 1043 622 993 631 1013 b 531 1139 631 1110 583 1139 b 429 1063 478 1139 443 1106 z "},"Ỡ":{"ha":1063,"x_min":0,"x_max":0,"o":"m 531 -17 b 990 463 804 -17 990 189 b 908 747 990 571 960 668 b 999 922 958 785 999 851 b 929 1010 999 978 967 1010 b 871 949 896 1010 871 982 b 925 892 871 917 893 892 b 940 894 931 892 939 893 b 876 789 936 858 910 817 b 531 942 794 883 675 942 b 71 463 256 942 71 736 b 531 -17 71 189 256 -17 z m 531 86 b 190 463 322 86 190 247 b 531 839 190 679 322 839 b 871 463 738 839 871 679 b 531 86 871 247 738 86 z m 614 1001 b 749 1188 701 1001 749 1079 l 686 1188 b 619 1068 686 1104 657 1068 b 449 1196 553 1068 549 1196 b 314 1010 361 1196 314 1118 l 376 1010 b 443 1129 376 1093 406 1129 b 614 1001 510 1129 513 1001 z "},"Ợ":{"ha":1063,"x_min":0,"x_max":0,"o":"m 531 -17 b 990 463 804 -17 990 189 b 908 747 990 571 960 668 b 999 922 958 785 999 851 b 929 1010 999 978 967 1010 b 871 949 896 1010 871 982 b 925 892 871 917 893 892 b 940 894 931 892 939 893 b 876 789 936 858 910 817 b 531 942 794 883 675 942 b 71 463 256 942 71 736 b 531 -17 71 189 256 -17 z m 531 86 b 190 463 322 86 190 247 b 531 839 190 679 322 839 b 871 463 738 839 871 679 b 531 86 871 247 738 86 z m 533 -256 b 597 -190 569 -256 597 -226 b 533 -125 597 -154 569 -125 b 468 -190 499 -125 468 -154 b 533 -256 468 -226 499 -256 z "},"Œ":{"ha":1535,"x_min":0,"x_max":0,"o":"m 1460 0 l 1460 103 l 967 103 l 967 422 l 1450 422 l 1450 525 l 967 525 l 967 824 l 1460 824 l 1460 926 l 851 926 l 851 758 b 521 940 783 879 651 940 b 71 463 251 940 71 736 b 521 -17 71 189 251 -17 b 851 167 651 -17 783 46 l 851 0 z m 851 310 b 533 86 797 163 676 86 b 190 463 322 86 190 246 b 533 838 190 679 322 838 b 851 615 676 838 797 764 z "},"Ṗ":{"ha":815,"x_min":0,"x_max":0,"o":"m 224 0 l 224 368 l 481 368 b 771 647 664 368 771 496 b 481 926 771 799 667 926 l 108 926 l 108 0 z m 467 471 l 224 471 l 224 824 l 467 824 b 651 647 576 824 651 751 b 467 471 651 543 576 471 z m 407 1003 b 471 1068 443 1003 471 1032 b 407 1133 471 1104 443 1133 b 342 1068 372 1133 342 1104 b 407 1003 342 1032 372 1003 z "},"Ŕ":{"ha":844,"x_min":0,"x_max":0,"o":"m 667 1204 l 558 1204 l 353 1004 l 432 1004 z m 781 0 l 531 378 b 771 647 657 389 771 481 b 481 926 771 818 650 926 l 108 926 l 108 0 l 224 0 l 224 368 l 408 368 l 644 0 z m 467 469 l 224 469 l 224 824 l 467 824 b 651 647 576 824 651 751 b 467 469 651 543 576 469 z "},"Ř":{"ha":844,"x_min":0,"x_max":0,"o":"m 476 1004 l 608 1204 l 538 1204 l 426 1057 l 311 1204 l 240 1204 l 376 1004 z m 781 0 l 531 378 b 771 647 657 389 771 481 b 481 926 771 818 650 926 l 108 926 l 108 0 l 224 0 l 224 368 l 408 368 l 644 0 z m 467 469 l 224 469 l 224 824 l 467 824 b 651 647 576 824 651 751 b 467 469 651 543 576 469 z "},"Ŗ":{"ha":844,"x_min":0,"x_max":0,"o":"m 503 -192 b 429 -99 503 -132 468 -99 b 365 -164 393 -99 365 -128 b 424 -225 365 -199 390 -225 b 439 -222 428 -225 438 -224 b 358 -342 435 -262 400 -314 l 404 -378 b 503 -192 458 -337 503 -267 z m 781 0 l 531 378 b 771 647 657 389 771 481 b 481 926 771 818 650 926 l 108 926 l 108 0 l 224 0 l 224 368 l 408 368 l 644 0 z m 467 469 l 224 469 l 224 824 l 467 824 b 651 647 576 824 651 751 b 467 469 651 543 576 469 z "},"Ś":{"ha":814,"x_min":0,"x_max":0,"o":"m 639 1204 l 531 1204 l 325 1004 l 404 1004 z m 408 -17 b 750 256 658 -17 750 121 b 201 690 750 601 201 482 b 392 838 201 778 281 838 b 660 726 493 838 590 803 l 729 811 b 400 940 651 893 542 940 b 82 683 218 940 82 836 b 631 246 82 353 631 485 b 413 86 631 175 578 86 b 121 218 282 86 182 150 l 53 131 b 408 -17 129 44 247 -17 z "},"Š":{"ha":814,"x_min":0,"x_max":0,"o":"m 449 1004 l 581 1204 l 510 1204 l 399 1057 l 283 1204 l 213 1204 l 349 1004 z m 408 -17 b 750 256 658 -17 750 121 b 201 690 750 601 201 482 b 392 838 201 778 281 838 b 660 726 493 838 590 803 l 729 811 b 400 940 651 893 542 940 b 82 683 218 940 82 836 b 631 246 82 353 631 485 b 413 86 631 175 578 86 b 121 218 282 86 182 150 l 53 131 b 408 -17 129 44 247 -17 z "},"Ŝ":{"ha":814,"x_min":0,"x_max":0,"o":"m 581 1004 l 444 1204 l 344 1204 l 213 1004 l 283 1004 l 394 1151 l 510 1004 z m 408 -17 b 750 256 658 -17 750 121 b 201 690 750 601 201 482 b 392 838 201 778 281 838 b 660 726 493 838 590 803 l 729 811 b 400 940 651 893 542 940 b 82 683 218 940 82 836 b 631 246 82 353 631 485 b 413 86 631 175 578 86 b 121 218 282 86 182 150 l 53 131 b 408 -17 129 44 247 -17 z "},"Ş":{"ha":814,"x_min":0,"x_max":0,"o":"m 400 -265 b 544 -154 479 -265 544 -222 b 453 -61 544 -97 506 -61 b 401 -76 435 -61 415 -67 l 425 -17 b 750 256 663 -10 750 124 b 201 690 750 601 201 482 b 392 838 201 778 281 838 b 660 726 493 838 590 803 l 729 811 b 400 940 651 893 542 940 b 82 683 218 940 82 836 b 631 246 82 353 631 485 b 413 86 631 175 578 86 b 121 218 282 86 182 150 l 53 131 b 364 -15 122 53 225 -4 l 332 -101 l 378 -128 b 431 -104 390 -114 411 -104 b 482 -153 465 -104 482 -124 b 397 -211 482 -190 442 -211 b 286 -171 360 -211 319 -199 l 260 -224 b 400 -265 288 -246 340 -265 z "},"Ș":{"ha":814,"x_min":0,"x_max":0,"o":"m 479 -192 b 406 -99 479 -132 444 -99 b 342 -164 369 -99 342 -128 b 400 -225 342 -199 367 -225 b 415 -222 404 -225 414 -224 b 335 -342 411 -262 376 -314 l 381 -378 b 479 -192 435 -337 479 -267 z m 408 -17 b 750 256 658 -17 750 121 b 201 690 750 601 201 482 b 392 838 201 778 281 838 b 660 726 493 838 590 803 l 729 811 b 400 940 651 893 542 940 b 82 683 218 940 82 836 b 631 246 82 353 631 485 b 413 86 631 175 578 86 b 121 218 282 86 182 150 l 53 131 b 408 -17 129 44 247 -17 z "},"Ṡ":{"ha":814,"x_min":0,"x_max":0,"o":"m 408 -17 b 750 256 658 -17 750 121 b 201 690 750 601 201 482 b 392 838 201 778 281 838 b 660 726 493 838 590 803 l 729 811 b 400 940 651 893 542 940 b 82 683 218 940 82 836 b 631 246 82 353 631 485 b 413 86 631 175 578 86 b 121 218 282 86 182 150 l 53 131 b 408 -17 129 44 247 -17 z m 407 1003 b 471 1068 443 1003 471 1032 b 407 1133 471 1104 443 1133 b 342 1068 372 1133 342 1104 b 407 1003 342 1032 372 1003 z "},"Ŧ":{"ha":792,"x_min":0,"x_max":0,"o":"m 453 0 l 453 408 l 664 408 l 664 475 l 453 475 l 453 824 l 747 824 l 747 926 l 44 926 l 44 824 l 338 824 l 338 475 l 129 475 l 129 408 l 338 408 l 338 0 z "},"Ť":{"ha":792,"x_min":0,"x_max":0,"o":"m 447 1004 l 579 1204 l 508 1204 l 397 1057 l 282 1204 l 211 1204 l 347 1004 z m 453 0 l 453 824 l 747 824 l 747 926 l 44 926 l 44 824 l 338 824 l 338 0 z "},"Ţ":{"ha":792,"x_min":0,"x_max":0,"o":"m 474 -192 b 400 -99 474 -132 439 -99 b 336 -164 364 -99 336 -128 b 394 -225 336 -199 361 -225 b 410 -222 399 -225 408 -224 b 329 -342 406 -262 371 -314 l 375 -378 b 474 -192 429 -337 474 -267 z m 453 0 l 453 824 l 747 824 l 747 926 l 44 926 l 44 824 l 338 824 l 338 0 z "},"Ț":{"ha":792,"x_min":0,"x_max":0,"o":"m 474 -192 b 400 -99 474 -132 439 -99 b 336 -164 364 -99 336 -128 b 394 -225 336 -199 361 -225 b 410 -222 399 -225 408 -224 b 329 -342 406 -262 371 -314 l 375 -378 b 474 -192 429 -337 474 -267 z m 453 0 l 453 824 l 747 824 l 747 926 l 44 926 l 44 824 l 338 824 l 338 0 z "},"Ṫ":{"ha":792,"x_min":0,"x_max":0,"o":"m 453 0 l 453 824 l 747 824 l 747 926 l 44 926 l 44 824 l 338 824 l 338 0 z m 394 1003 b 458 1068 431 1003 458 1032 b 394 1133 458 1104 431 1133 b 329 1068 360 1133 329 1104 b 394 1003 329 1032 360 1003 z "},"Ú":{"ha":972,"x_min":0,"x_max":0,"o":"m 721 1204 l 613 1204 l 407 1004 l 486 1004 z m 486 -17 b 864 361 738 -17 864 131 l 864 926 l 749 926 l 749 363 b 486 86 749 193 657 86 b 224 363 315 86 224 193 l 224 926 l 108 926 l 108 360 b 486 -17 108 132 235 -17 z "},"Ŭ":{"ha":972,"x_min":0,"x_max":0,"o":"m 486 -17 b 864 361 738 -17 864 131 l 864 926 l 749 926 l 749 363 b 486 86 749 193 657 86 b 224 363 315 86 224 193 l 224 926 l 108 926 l 108 360 b 486 -17 108 132 235 -17 z m 733 1101 l 682 1146 b 490 1046 639 1083 571 1046 b 297 1146 408 1046 342 1085 l 246 1101 b 490 979 303 1026 392 979 b 733 1101 590 979 678 1026 z "},"Û":{"ha":972,"x_min":0,"x_max":0,"o":"m 674 1004 l 538 1204 l 438 1204 l 306 1004 l 376 1004 l 488 1151 l 603 1004 z m 486 -17 b 864 361 738 -17 864 131 l 864 926 l 749 926 l 749 363 b 486 86 749 193 657 86 b 224 363 315 86 224 193 l 224 926 l 108 926 l 108 360 b 486 -17 108 132 235 -17 z "},"Ü":{"ha":972,"x_min":0,"x_max":0,"o":"m 696 1071 b 631 1135 696 1106 665 1135 b 565 1071 596 1135 565 1106 b 631 1006 565 1035 596 1006 b 696 1071 665 1006 696 1035 z m 408 1071 b 344 1135 408 1106 379 1135 b 279 1071 308 1135 279 1106 b 344 1006 279 1035 308 1006 b 408 1071 379 1006 408 1035 z m 486 -17 b 864 361 738 -17 864 131 l 864 926 l 749 926 l 749 363 b 486 86 749 193 657 86 b 224 363 315 86 224 193 l 224 926 l 108 926 l 108 360 b 486 -17 108 132 235 -17 z "},"Ù":{"ha":972,"x_min":0,"x_max":0,"o":"m 486 -17 b 864 361 738 -17 864 131 l 864 926 l 749 926 l 749 363 b 486 86 749 193 657 86 b 224 363 315 86 224 193 l 224 926 l 108 926 l 108 360 b 486 -17 108 132 235 -17 z m 565 1004 l 360 1204 l 251 1204 l 486 1004 z "},"Ű":{"ha":972,"x_min":0,"x_max":0,"o":"m 486 -17 b 864 361 738 -17 864 131 l 864 926 l 749 926 l 749 363 b 486 86 749 193 657 86 b 224 363 315 86 224 193 l 224 926 l 108 926 l 108 360 b 486 -17 108 132 235 -17 z m 561 1204 l 465 1204 l 335 1004 l 401 1004 z m 758 1204 l 663 1204 l 532 1004 l 599 1004 z "},"Ū":{"ha":972,"x_min":0,"x_max":0,"o":"m 486 -17 b 864 361 738 -17 864 131 l 864 926 l 749 926 l 749 363 b 486 86 749 193 657 86 b 224 363 315 86 224 193 l 224 926 l 108 926 l 108 360 b 486 -17 108 132 235 -17 z m 739 1026 l 739 1093 l 235 1093 l 235 1026 z "},"Ų":{"ha":972,"x_min":0,"x_max":0,"o":"m 486 -17 l 507 -17 b 453 -137 474 -50 453 -92 b 576 -258 453 -222 511 -258 b 700 -175 643 -258 681 -219 l 649 -146 b 576 -204 636 -183 615 -204 b 515 -135 540 -204 515 -182 b 621 0 515 -76 554 -33 b 864 361 782 44 864 176 l 864 926 l 749 926 l 749 363 b 486 86 749 193 657 86 b 224 363 315 86 224 193 l 224 926 l 108 926 l 108 360 b 486 -17 108 132 235 -17 z "},"Ů":{"ha":972,"x_min":0,"x_max":0,"o":"m 488 986 b 624 1122 563 986 624 1047 b 488 1260 624 1197 563 1260 b 351 1122 413 1260 351 1197 b 488 986 351 1047 413 986 z m 488 1040 b 407 1122 443 1040 407 1078 b 488 1204 407 1168 443 1204 b 568 1122 533 1204 568 1168 b 488 1040 568 1078 533 1040 z m 486 -17 b 864 361 738 -17 864 131 l 864 926 l 749 926 l 749 363 b 486 86 749 193 657 86 b 224 363 315 86 224 193 l 224 926 l 108 926 l 108 360 b 486 -17 108 132 235 -17 z "},"Ũ":{"ha":972,"x_min":0,"x_max":0,"o":"m 486 -17 b 864 361 738 -17 864 131 l 864 926 l 749 926 l 749 363 b 486 86 749 193 657 86 b 224 363 315 86 224 193 l 224 926 l 108 926 l 108 360 b 486 -17 108 132 235 -17 z m 572 1001 b 707 1188 660 1001 707 1079 l 644 1188 b 578 1068 644 1104 615 1068 b 407 1196 511 1068 507 1196 b 272 1010 319 1196 272 1118 l 335 1010 b 401 1129 335 1093 364 1129 b 572 1001 468 1129 471 1001 z "},"Ụ":{"ha":972,"x_min":0,"x_max":0,"o":"m 486 -17 b 864 361 738 -17 864 131 l 864 926 l 749 926 l 749 363 b 486 86 749 193 657 86 b 224 363 315 86 224 193 l 224 926 l 108 926 l 108 360 b 486 -17 108 132 235 -17 z m 492 -256 b 556 -190 528 -256 556 -226 b 492 -125 556 -154 528 -125 b 426 -190 457 -125 426 -154 b 492 -256 426 -226 457 -256 z "},"Ư":{"ha":972,"x_min":0,"x_max":0,"o":"m 1025 1011 b 956 1099 1025 1067 992 1099 b 896 1039 921 1099 896 1071 b 950 982 896 1006 919 982 b 965 983 956 982 964 983 b 864 851 961 932 917 878 l 864 926 l 749 926 l 749 363 b 486 86 749 193 657 86 b 224 363 315 86 224 193 l 224 926 l 108 926 l 108 360 b 486 -17 108 132 235 -17 b 864 361 738 -17 864 131 l 864 797 b 1025 1011 964 838 1025 922 z "},"Ủ":{"ha":972,"x_min":0,"x_max":0,"o":"m 486 -17 b 864 361 738 -17 864 131 l 864 926 l 749 926 l 749 363 b 486 86 749 193 657 86 b 224 363 315 86 224 193 l 224 926 l 108 926 l 108 360 b 486 -17 108 132 235 -17 z m 432 1050 b 488 1094 442 1078 460 1094 b 538 1040 518 1094 538 1076 b 506 968 538 1017 529 992 l 561 968 b 588 1043 579 993 588 1013 b 488 1139 588 1110 540 1139 b 386 1063 435 1139 400 1106 z "},"Ứ":{"ha":972,"x_min":0,"x_max":0,"o":"m 721 1204 l 613 1204 l 407 1004 l 486 1004 z m 1025 1011 b 956 1099 1025 1067 992 1099 b 896 1039 921 1099 896 1071 b 950 982 896 1006 919 982 b 965 983 956 982 964 983 b 864 851 961 932 917 878 l 864 926 l 749 926 l 749 363 b 486 86 749 193 657 86 b 224 363 315 86 224 193 l 224 926 l 108 926 l 108 360 b 486 -17 108 132 235 -17 b 864 361 738 -17 864 131 l 864 797 b 1025 1011 964 838 1025 922 z "},"Ừ":{"ha":972,"x_min":0,"x_max":0,"o":"m 565 1004 l 360 1204 l 251 1204 l 486 1004 z m 1025 1011 b 956 1099 1025 1067 992 1099 b 896 1039 921 1099 896 1071 b 950 982 896 1006 919 982 b 965 983 956 982 964 983 b 864 851 961 932 917 878 l 864 926 l 749 926 l 749 363 b 486 86 749 193 657 86 b 224 363 315 86 224 193 l 224 926 l 108 926 l 108 360 b 486 -17 108 132 235 -17 b 864 361 738 -17 864 131 l 864 797 b 1025 1011 964 838 1025 922 z "},"Ử":{"ha":972,"x_min":0,"x_max":0,"o":"m 432 1050 b 488 1094 442 1078 460 1094 b 538 1040 518 1094 538 1076 b 506 968 538 1017 529 992 l 561 968 b 588 1043 579 993 588 1013 b 488 1139 588 1110 540 1139 b 386 1063 435 1139 400 1106 z m 1025 1011 b 956 1099 1025 1067 992 1099 b 896 1039 921 1099 896 1071 b 950 982 896 1006 919 982 b 965 983 956 982 964 983 b 864 851 961 932 917 878 l 864 926 l 749 926 l 749 363 b 486 86 749 193 657 86 b 224 363 315 86 224 193 l 224 926 l 108 926 l 108 360 b 486 -17 108 132 235 -17 b 864 361 738 -17 864 131 l 864 797 b 1025 1011 964 838 1025 922 z "},"Ữ":{"ha":972,"x_min":0,"x_max":0,"o":"m 1025 1011 b 956 1099 1025 1067 992 1099 b 896 1039 921 1099 896 1071 b 950 982 896 1006 919 982 b 965 983 956 982 964 983 b 864 851 961 932 917 878 l 864 926 l 749 926 l 749 363 b 486 86 749 193 657 86 b 224 363 315 86 224 193 l 224 926 l 108 926 l 108 360 b 486 -17 108 132 235 -17 b 864 361 738 -17 864 131 l 864 797 b 1025 1011 964 838 1025 922 z m 569 1001 b 704 1188 657 1001 704 1079 l 642 1188 b 575 1068 642 1104 613 1068 b 404 1196 508 1068 504 1196 b 269 1010 317 1196 269 1118 l 332 1010 b 399 1129 332 1093 361 1129 b 569 1001 465 1129 468 1001 z "},"Ự":{"ha":972,"x_min":0,"x_max":0,"o":"m 492 -256 b 556 -190 528 -256 556 -226 b 492 -125 556 -154 528 -125 b 426 -190 457 -125 426 -154 b 492 -256 426 -226 457 -256 z m 1025 1011 b 956 1099 1025 1067 992 1099 b 896 1039 921 1099 896 1071 b 950 982 896 1006 919 982 b 965 983 956 982 964 983 b 864 851 961 932 917 878 l 864 926 l 749 926 l 749 363 b 486 86 749 193 657 86 b 224 363 315 86 224 193 l 224 926 l 108 926 l 108 360 b 486 -17 108 132 235 -17 b 864 361 738 -17 864 131 l 864 797 b 1025 1011 964 838 1025 922 z "},"Ẃ":{"ha":1226,"x_min":0,"x_max":0,"o":"m 847 1204 l 739 1204 l 533 1004 l 613 1004 z m 942 0 l 1206 926 l 1078 926 l 874 154 l 661 926 l 565 926 l 353 154 l 147 926 l 19 926 l 283 0 l 408 0 l 613 747 l 817 0 z "},"Ŵ":{"ha":1226,"x_min":0,"x_max":0,"o":"m 797 1004 l 661 1204 l 561 1204 l 429 1004 l 500 1004 l 611 1151 l 726 1004 z m 942 0 l 1206 926 l 1078 926 l 874 154 l 661 926 l 565 926 l 353 154 l 147 926 l 19 926 l 283 0 l 408 0 l 613 747 l 817 0 z "},"Ẅ":{"ha":1226,"x_min":0,"x_max":0,"o":"m 821 1071 b 756 1135 821 1106 790 1135 b 690 1071 721 1135 690 1106 b 756 1006 690 1035 721 1006 b 821 1071 790 1006 821 1035 z m 533 1071 b 469 1135 533 1106 504 1135 b 404 1071 433 1135 404 1106 b 469 1006 404 1035 433 1006 b 533 1071 504 1006 533 1035 z m 942 0 l 1206 926 l 1078 926 l 874 154 l 661 926 l 565 926 l 353 154 l 147 926 l 19 926 l 283 0 l 408 0 l 613 747 l 817 0 z "},"Ẁ":{"ha":1226,"x_min":0,"x_max":0,"o":"m 942 0 l 1206 926 l 1078 926 l 874 154 l 661 926 l 565 926 l 353 154 l 147 926 l 19 926 l 283 0 l 408 0 l 613 747 l 817 0 z m 692 1004 l 486 1204 l 378 1204 l 613 1004 z "},"Ý":{"ha":869,"x_min":0,"x_max":0,"o":"m 493 0 l 493 392 l 857 926 l 722 926 l 435 496 l 147 926 l 13 926 l 378 392 l 378 0 z m 669 1204 l 561 1204 l 356 1004 l 435 1004 z "},"Ŷ":{"ha":869,"x_min":0,"x_max":0,"o":"m 621 1004 l 485 1204 l 385 1204 l 253 1004 l 324 1004 l 435 1151 l 550 1004 z m 493 0 l 493 392 l 857 926 l 722 926 l 435 496 l 147 926 l 13 926 l 378 392 l 378 0 z "},"Ÿ":{"ha":869,"x_min":0,"x_max":0,"o":"m 646 1071 b 581 1135 646 1106 615 1135 b 515 1071 546 1135 515 1106 b 581 1006 515 1035 546 1006 b 646 1071 615 1006 646 1035 z m 358 1071 b 294 1135 358 1106 329 1135 b 229 1071 258 1135 229 1106 b 294 1006 229 1035 258 1006 b 358 1071 329 1006 358 1035 z m 493 0 l 493 392 l 857 926 l 722 926 l 435 496 l 147 926 l 13 926 l 378 392 l 378 0 z "},"Ỳ":{"ha":869,"x_min":0,"x_max":0,"o":"m 493 0 l 493 392 l 857 926 l 722 926 l 435 496 l 147 926 l 13 926 l 378 392 l 378 0 z m 514 1004 l 308 1204 l 200 1204 l 435 1004 z "},"Ź":{"ha":813,"x_min":0,"x_max":0,"o":"m 640 1204 l 532 1204 l 326 1004 l 406 1004 z m 744 0 l 744 103 l 214 103 l 735 831 l 735 926 l 67 926 l 67 824 l 588 824 l 67 96 l 67 0 z "},"Ž":{"ha":813,"x_min":0,"x_max":0,"o":"m 454 1004 l 586 1204 l 515 1204 l 404 1057 l 289 1204 l 218 1204 l 354 1004 z m 744 0 l 744 103 l 214 103 l 735 831 l 735 926 l 67 926 l 67 824 l 588 824 l 67 96 l 67 0 z "},"Ż":{"ha":813,"x_min":0,"x_max":0,"o":"m 744 0 l 744 103 l 214 103 l 735 831 l 735 926 l 67 926 l 67 824 l 588 824 l 67 96 l 67 0 z m 403 1003 b 467 1068 439 1003 467 1032 b 403 1133 467 1104 439 1133 b 338 1068 368 1133 338 1104 b 403 1003 338 1032 368 1003 z "},"Ð":{"ha":1011,"x_min":0,"x_max":0,"o":"m 464 0 b 939 463 751 0 939 199 b 464 926 939 725 751 926 l 147 926 l 147 500 l 14 500 l 14 415 l 147 415 l 147 0 z m 464 103 l 263 103 l 263 415 l 497 415 l 497 500 l 263 500 l 263 824 l 464 824 b 819 463 693 824 819 663 b 464 103 819 264 689 103 z "},"Þ":{"ha":815,"x_min":0,"x_max":0,"o":"m 224 0 l 224 203 l 481 203 b 771 481 664 203 771 329 b 481 761 771 632 667 761 l 224 761 l 224 926 l 108 926 l 108 0 z m 467 306 l 224 306 l 224 658 l 467 658 b 651 481 576 658 651 585 b 467 306 651 376 576 306 z "},"á":{"ha":732,"x_min":0,"x_max":0,"o":"m 628 0 l 628 461 b 368 688 628 624 510 688 b 100 576 258 688 172 651 l 149 504 b 354 597 208 568 274 597 b 524 456 451 597 524 546 l 524 335 b 301 426 469 397 393 426 b 67 206 188 426 67 356 b 301 -17 67 60 188 -17 b 524 76 392 -17 468 15 l 524 0 z m 339 58 b 174 204 242 58 174 119 b 339 351 174 290 242 351 b 524 268 413 351 483 324 l 524 142 b 339 58 483 86 413 58 z m 603 972 l 494 972 l 289 772 l 368 772 z "},"ă":{"ha":732,"x_min":0,"x_max":0,"o":"m 628 0 l 628 461 b 368 688 628 624 510 688 b 100 576 258 688 172 651 l 149 504 b 354 597 208 568 274 597 b 524 456 451 597 524 546 l 524 335 b 301 426 469 397 393 426 b 67 206 188 426 67 356 b 301 -17 67 60 188 -17 b 524 76 392 -17 468 15 l 524 0 z m 339 58 b 174 204 242 58 174 119 b 339 351 174 290 242 351 b 524 268 413 351 483 324 l 524 142 b 339 58 483 86 413 58 z m 610 869 l 558 914 b 367 814 515 851 447 814 b 174 914 285 814 218 853 l 122 869 b 367 747 179 794 268 747 b 610 869 467 747 554 794 z "},"â":{"ha":732,"x_min":0,"x_max":0,"o":"m 628 0 l 628 461 b 368 688 628 624 510 688 b 100 576 258 688 172 651 l 149 504 b 354 597 208 568 274 597 b 524 456 451 597 524 546 l 524 335 b 301 426 469 397 393 426 b 67 206 188 426 67 356 b 301 -17 67 60 188 -17 b 524 76 392 -17 468 15 l 524 0 z m 339 58 b 174 204 242 58 174 119 b 339 351 174 290 242 351 b 524 268 413 351 483 324 l 524 142 b 339 58 483 86 413 58 z m 553 772 l 417 972 l 317 972 l 185 772 l 256 772 l 367 919 l 482 772 z "},"ä":{"ha":732,"x_min":0,"x_max":0,"o":"m 628 0 l 628 461 b 368 688 628 624 510 688 b 100 576 258 688 172 651 l 149 504 b 354 597 208 568 274 597 b 524 456 451 597 524 546 l 524 335 b 301 426 469 397 393 426 b 67 206 188 426 67 356 b 301 -17 67 60 188 -17 b 524 76 392 -17 468 15 l 524 0 z m 339 58 b 174 204 242 58 174 119 b 339 351 174 290 242 351 b 524 268 413 351 483 324 l 524 142 b 339 58 483 86 413 58 z m 576 839 b 511 903 576 874 546 903 b 446 839 476 903 446 874 b 511 774 446 803 476 774 b 576 839 546 774 576 803 z m 289 839 b 225 903 289 874 260 903 b 160 839 189 903 160 874 b 225 774 160 803 189 774 b 289 839 260 774 289 803 z "},"à":{"ha":732,"x_min":0,"x_max":0,"o":"m 628 0 l 628 461 b 368 688 628 624 510 688 b 100 576 258 688 172 651 l 149 504 b 354 597 208 568 274 597 b 524 456 451 597 524 546 l 524 335 b 301 426 469 397 393 426 b 67 206 188 426 67 356 b 301 -17 67 60 188 -17 b 524 76 392 -17 468 15 l 524 0 z m 339 58 b 174 204 242 58 174 119 b 339 351 174 290 242 351 b 524 268 413 351 483 324 l 524 142 b 339 58 483 86 413 58 z m 447 772 l 242 972 l 133 972 l 368 772 z "},"ā":{"ha":732,"x_min":0,"x_max":0,"o":"m 628 0 l 628 461 b 368 688 628 624 510 688 b 100 576 258 688 172 651 l 149 504 b 354 597 208 568 274 597 b 524 456 451 597 524 546 l 524 335 b 301 426 469 397 393 426 b 67 206 188 426 67 356 b 301 -17 67 60 188 -17 b 524 76 392 -17 468 15 l 524 0 z m 339 58 b 174 204 242 58 174 119 b 339 351 174 290 242 351 b 524 268 413 351 483 324 l 524 142 b 339 58 483 86 413 58 z m 618 794 l 618 861 l 114 861 l 114 794 z "},"ą":{"ha":732,"x_min":0,"x_max":0,"o":"m 656 -146 b 583 -204 643 -183 622 -204 b 522 -135 547 -204 522 -182 b 628 0 522 -76 561 -33 l 628 461 b 368 688 628 624 510 688 b 100 576 258 688 172 651 l 149 504 b 354 597 208 568 274 597 b 524 456 451 597 524 546 l 524 335 b 301 426 469 397 393 426 b 67 206 188 426 67 356 b 301 -17 67 60 188 -17 b 524 76 392 -17 468 15 l 524 0 l 533 0 b 460 -137 488 -36 460 -85 b 583 -258 460 -222 518 -258 b 707 -175 650 -258 688 -219 z m 339 58 b 174 204 242 58 174 119 b 339 351 174 290 242 351 b 524 268 413 351 483 324 l 524 142 b 339 58 483 86 413 58 z "},"å":{"ha":732,"x_min":0,"x_max":0,"o":"m 628 0 l 628 461 b 368 688 628 624 510 688 b 100 576 258 688 172 651 l 149 504 b 354 597 208 568 274 597 b 524 456 451 597 524 546 l 524 335 b 301 426 469 397 393 426 b 67 206 188 426 67 356 b 301 -17 67 60 188 -17 b 524 76 392 -17 468 15 l 524 0 z m 339 58 b 174 204 242 58 174 119 b 339 351 174 290 242 351 b 524 268 413 351 483 324 l 524 142 b 339 58 483 86 413 58 z m 368 754 b 504 890 443 754 504 815 b 368 1028 504 965 443 1028 b 232 890 293 1028 232 965 b 368 754 232 815 293 754 z m 368 808 b 288 890 324 808 288 846 b 368 972 288 936 324 972 b 449 890 414 972 449 936 b 368 808 449 846 414 808 z "},"ã":{"ha":732,"x_min":0,"x_max":0,"o":"m 628 0 l 628 461 b 368 688 628 624 510 688 b 100 576 258 688 172 651 l 149 504 b 354 597 208 568 274 597 b 524 456 451 597 524 546 l 524 335 b 301 426 469 397 393 426 b 67 206 188 426 67 356 b 301 -17 67 60 188 -17 b 524 76 392 -17 468 15 l 524 0 z m 339 58 b 174 204 242 58 174 119 b 339 351 174 290 242 351 b 524 268 413 351 483 324 l 524 142 b 339 58 483 86 413 58 z m 451 769 b 586 956 539 769 586 847 l 524 956 b 457 836 524 872 494 836 b 286 964 390 836 386 964 b 151 778 199 964 151 886 l 214 778 b 281 897 214 861 243 897 b 451 769 347 897 350 769 z "},"ạ":{"ha":732,"x_min":0,"x_max":0,"o":"m 628 0 l 628 461 b 368 688 628 624 510 688 b 100 576 258 688 172 651 l 149 504 b 354 597 208 568 274 597 b 524 456 451 597 524 546 l 524 335 b 301 426 469 397 393 426 b 67 206 188 426 67 356 b 301 -17 67 60 188 -17 b 524 76 392 -17 468 15 l 524 0 z m 339 58 b 174 204 242 58 174 119 b 339 351 174 290 242 351 b 524 268 413 351 483 324 l 524 142 b 339 58 483 86 413 58 z m 367 -256 b 431 -190 403 -256 431 -226 b 367 -125 431 -154 403 -125 b 301 -190 332 -125 301 -154 b 367 -256 301 -226 332 -256 z "},"ả":{"ha":732,"x_min":0,"x_max":0,"o":"m 628 0 l 628 461 b 368 688 628 624 510 688 b 100 576 258 688 172 651 l 149 504 b 354 597 208 568 274 597 b 524 456 451 597 524 546 l 524 335 b 301 426 469 397 393 426 b 67 206 188 426 67 356 b 301 -17 67 60 188 -17 b 524 76 392 -17 468 15 l 524 0 z m 339 58 b 174 204 242 58 174 119 b 339 351 174 290 242 351 b 524 268 413 351 483 324 l 524 142 b 339 58 483 86 413 58 z m 311 814 b 367 858 321 842 339 858 b 417 804 397 858 417 840 b 385 732 417 781 408 756 l 440 732 b 467 807 458 757 467 776 b 367 903 467 874 419 903 b 265 826 314 903 279 869 z "},"ấ":{"ha":732,"x_min":0,"x_max":0,"o":"m 628 0 l 628 461 b 368 688 628 624 510 688 b 100 576 258 688 172 651 l 149 504 b 354 597 208 568 274 597 b 524 456 451 597 524 546 l 524 335 b 301 426 469 397 393 426 b 67 206 188 426 67 356 b 301 -17 67 60 188 -17 b 524 76 392 -17 468 15 l 524 0 z m 339 58 b 174 204 242 58 174 119 b 339 351 174 290 242 351 b 524 268 413 351 483 324 l 524 142 b 339 58 483 86 413 58 z m 553 772 l 417 972 l 317 972 l 185 772 l 256 772 l 367 919 l 482 772 z m 815 1069 l 707 1069 l 501 869 l 581 869 z "},"ậ":{"ha":732,"x_min":0,"x_max":0,"o":"m 628 0 l 628 461 b 368 688 628 624 510 688 b 100 576 258 688 172 651 l 149 504 b 354 597 208 568 274 597 b 524 456 451 597 524 546 l 524 335 b 301 426 469 397 393 426 b 67 206 188 426 67 356 b 301 -17 67 60 188 -17 b 524 76 392 -17 468 15 l 524 0 z m 339 58 b 174 204 242 58 174 119 b 339 351 174 290 242 351 b 524 268 413 351 483 324 l 524 142 b 339 58 483 86 413 58 z m 550 772 l 414 972 l 314 972 l 182 772 l 253 772 l 364 919 l 479 772 z m 367 -256 b 431 -190 403 -256 431 -226 b 367 -125 431 -154 403 -125 b 301 -190 332 -125 301 -154 b 367 -256 301 -226 332 -256 z "},"ầ":{"ha":732,"x_min":0,"x_max":0,"o":"m 628 0 l 628 461 b 368 688 628 624 510 688 b 100 576 258 688 172 651 l 149 504 b 354 597 208 568 274 597 b 524 456 451 597 524 546 l 524 335 b 301 426 469 397 393 426 b 67 206 188 426 67 356 b 301 -17 67 60 188 -17 b 524 76 392 -17 468 15 l 524 0 z m 339 58 b 174 204 242 58 174 119 b 339 351 174 290 242 351 b 524 268 413 351 483 324 l 524 142 b 339 58 483 86 413 58 z m 553 772 l 417 972 l 317 972 l 185 772 l 256 772 l 367 919 l 482 772 z m 235 869 l 29 1069 l -79 1069 l 156 869 z "},"ẩ":{"ha":732,"x_min":0,"x_max":0,"o":"m 628 0 l 628 461 b 368 688 628 624 510 688 b 100 576 258 688 172 651 l 149 504 b 354 597 208 568 274 597 b 524 456 451 597 524 546 l 524 335 b 301 426 469 397 393 426 b 67 206 188 426 67 356 b 301 -17 67 60 188 -17 b 524 76 392 -17 468 15 l 524 0 z m 339 58 b 174 204 242 58 174 119 b 339 351 174 290 242 351 b 524 268 413 351 483 324 l 524 142 b 339 58 483 86 413 58 z m 553 772 l 417 972 l 317 972 l 185 772 l 256 772 l 367 919 l 482 772 z m 438 1008 b 493 1053 447 1036 465 1053 b 543 999 524 1053 543 1035 b 511 926 543 975 535 950 l 567 926 b 593 1001 585 951 593 971 b 493 1097 593 1068 546 1097 b 392 1021 440 1097 406 1064 z "},"ắ":{"ha":732,"x_min":0,"x_max":0,"o":"m 628 0 l 628 461 b 368 688 628 624 510 688 b 100 576 258 688 172 651 l 149 504 b 354 597 208 568 274 597 b 524 456 451 597 524 546 l 524 335 b 301 426 469 397 393 426 b 67 206 188 426 67 356 b 301 -17 67 60 188 -17 b 524 76 392 -17 468 15 l 524 0 z m 339 58 b 174 204 242 58 174 119 b 339 351 174 290 242 351 b 524 268 413 351 483 324 l 524 142 b 339 58 483 86 413 58 z m 604 1064 l 496 1064 l 290 864 l 369 864 z m 611 846 l 560 890 b 368 790 517 828 449 790 b 175 890 286 790 219 829 l 124 846 b 368 724 181 771 269 724 b 611 846 468 724 556 771 z "},"ẫ":{"ha":732,"x_min":0,"x_max":0,"o":"m 628 0 l 628 461 b 368 688 628 624 510 688 b 100 576 258 688 172 651 l 149 504 b 354 597 208 568 274 597 b 524 456 451 597 524 546 l 524 335 b 301 426 469 397 393 426 b 67 206 188 426 67 356 b 301 -17 67 60 188 -17 b 524 76 392 -17 468 15 l 524 0 z m 339 58 b 174 204 242 58 174 119 b 339 351 174 290 242 351 b 524 268 413 351 483 324 l 524 142 b 339 58 483 86 413 58 z m 553 726 l 417 926 l 317 926 l 185 726 l 256 726 l 367 874 l 482 726 z m 449 947 b 583 1133 536 947 583 1025 l 521 1133 b 454 1014 521 1050 492 1014 b 283 1142 388 1014 383 1142 b 149 956 196 1142 149 1064 l 211 956 b 278 1075 211 1039 240 1075 b 449 947 344 1075 347 947 z "},"ằ":{"ha":732,"x_min":0,"x_max":0,"o":"m 628 0 l 628 461 b 368 688 628 624 510 688 b 100 576 258 688 172 651 l 149 504 b 354 597 208 568 274 597 b 524 456 451 597 524 546 l 524 335 b 301 426 469 397 393 426 b 67 206 188 426 67 356 b 301 -17 67 60 188 -17 b 524 76 392 -17 468 15 l 524 0 z m 339 58 b 174 204 242 58 174 119 b 339 351 174 290 242 351 b 524 268 413 351 483 324 l 524 142 b 339 58 483 86 413 58 z m 443 864 l 238 1064 l 129 1064 l 364 864 z m 611 851 l 560 896 b 368 796 517 833 449 796 b 175 896 286 796 219 835 l 124 851 b 368 729 181 776 269 729 b 611 851 468 729 556 776 z "},"ẳ":{"ha":732,"x_min":0,"x_max":0,"o":"m 628 0 l 628 461 b 368 688 628 624 510 688 b 100 576 258 688 172 651 l 149 504 b 354 597 208 568 274 597 b 524 456 451 597 524 546 l 524 335 b 301 426 469 397 393 426 b 67 206 188 426 67 356 b 301 -17 67 60 188 -17 b 524 76 392 -17 468 15 l 524 0 z m 339 58 b 174 204 242 58 174 119 b 339 351 174 290 242 351 b 524 268 413 351 483 324 l 524 142 b 339 58 483 86 413 58 z m 311 946 b 367 990 321 974 339 990 b 417 936 397 990 417 972 b 385 864 417 913 408 888 l 440 864 b 467 939 458 889 467 908 b 367 1035 467 1006 419 1035 b 265 958 314 1035 279 1001 z m 611 851 l 560 896 b 368 796 517 833 449 796 b 175 896 286 796 219 835 l 124 851 b 368 729 181 776 269 729 b 611 851 468 729 556 776 z "},"ẵ":{"ha":732,"x_min":0,"x_max":0,"o":"m 628 0 l 628 461 b 368 688 628 624 510 688 b 100 576 258 688 172 651 l 149 504 b 354 597 208 568 274 597 b 524 456 451 597 524 546 l 524 335 b 301 426 469 397 393 426 b 67 206 188 426 67 356 b 301 -17 67 60 188 -17 b 524 76 392 -17 468 15 l 524 0 z m 339 58 b 174 204 242 58 174 119 b 339 351 174 290 242 351 b 524 268 413 351 483 324 l 524 142 b 339 58 483 86 413 58 z m 611 851 l 560 896 b 368 796 517 833 449 796 b 175 896 286 796 219 835 l 124 851 b 368 729 181 776 269 729 b 611 851 468 729 556 776 z m 449 913 b 583 1099 536 913 583 990 l 521 1099 b 454 979 521 1015 492 979 b 283 1107 388 979 383 1107 b 149 921 196 1107 149 1029 l 211 921 b 278 1040 211 1004 240 1040 b 449 913 344 1040 347 913 z "},"ặ":{"ha":732,"x_min":0,"x_max":0,"o":"m 628 0 l 628 461 b 368 688 628 624 510 688 b 100 576 258 688 172 651 l 149 504 b 354 597 208 568 274 597 b 524 456 451 597 524 546 l 524 335 b 301 426 469 397 393 426 b 67 206 188 426 67 356 b 301 -17 67 60 188 -17 b 524 76 392 -17 468 15 l 524 0 z m 339 58 b 174 204 242 58 174 119 b 339 351 174 290 242 351 b 524 268 413 351 483 324 l 524 142 b 339 58 483 86 413 58 z m 367 -256 b 431 -190 403 -256 431 -226 b 367 -125 431 -154 403 -125 b 301 -190 332 -125 301 -154 b 367 -256 301 -226 332 -256 z m 607 869 l 556 914 b 364 814 513 851 444 814 b 171 914 282 814 215 853 l 119 869 b 364 747 176 794 265 747 b 607 869 464 747 551 794 z "},"æ":{"ha":1235,"x_min":0,"x_max":0,"o":"m 1171 301 l 1171 328 b 871 688 1171 529 1063 688 b 622 542 749 688 668 622 b 385 688 597 644 494 688 b 100 576 269 688 174 651 l 149 504 b 372 597 214 569 285 597 b 557 457 482 597 557 546 l 557 338 b 314 426 497 399 413 426 b 67 206 183 426 67 350 b 336 -17 67 60 192 -17 b 613 144 460 -17 565 49 b 881 -17 667 33 763 -17 b 1128 86 975 -17 1063 19 l 1078 157 b 885 72 1028 101 957 72 b 661 301 751 72 671 175 z m 661 378 b 864 601 665 481 732 601 b 1068 378 1008 601 1067 478 z m 557 250 b 356 72 557 161 474 72 b 174 211 247 72 174 126 b 356 351 174 296 247 351 b 557 267 435 351 511 321 z "},"ǽ":{"ha":1235,"x_min":0,"x_max":0,"o":"m 814 972 l 706 972 l 500 772 l 579 772 z m 1171 301 l 1171 328 b 871 688 1171 529 1063 688 b 622 542 749 688 668 622 b 385 688 597 644 494 688 b 100 576 269 688 174 651 l 149 504 b 372 597 214 569 285 597 b 557 457 482 597 557 546 l 557 338 b 314 426 497 399 413 426 b 67 206 183 426 67 350 b 336 -17 67 60 192 -17 b 613 144 460 -17 565 49 b 881 -17 667 33 763 -17 b 1128 86 975 -17 1063 19 l 1078 157 b 885 72 1028 101 957 72 b 661 301 751 72 671 175 z m 661 378 b 864 601 665 481 732 601 b 1068 378 1008 601 1067 478 z m 557 250 b 356 72 557 161 474 72 b 174 211 247 72 174 126 b 356 351 174 296 247 351 b 557 267 435 351 511 321 z "},"ḃ":{"ha":799,"x_min":0,"x_max":0,"o":"m 208 182 l 208 486 b 408 594 244 544 326 594 b 625 335 544 594 625 483 b 408 76 625 186 544 76 b 208 182 326 76 244 124 z m 208 0 l 208 100 b 435 -17 258 32 340 -17 b 733 335 610 -17 733 117 b 435 688 733 549 610 688 b 208 569 343 688 263 643 l 208 926 l 104 926 l 104 0 z m 408 1003 b 472 1068 444 1003 472 1032 b 408 1133 472 1104 444 1133 b 343 1068 374 1133 343 1104 b 408 1003 343 1032 374 1003 z "},"ć":{"ha":688,"x_min":0,"x_max":0,"o":"m 633 972 l 525 972 l 319 772 l 399 772 z m 400 -17 b 646 100 522 -17 594 33 l 576 164 b 406 76 532 104 475 76 b 174 336 263 76 174 188 b 406 594 174 485 263 594 b 576 507 475 594 532 568 l 646 571 b 400 688 594 638 522 688 b 65 336 200 688 65 535 b 400 -17 65 136 200 -17 z "},"ç":{"ha":688,"x_min":0,"x_max":0,"o":"m 401 -262 b 546 -151 481 -262 546 -219 b 454 -58 546 -94 507 -58 b 403 -74 436 -58 417 -64 l 425 -15 b 646 100 532 -8 597 38 l 576 164 b 406 76 532 104 475 76 b 174 336 263 76 174 188 b 406 594 174 485 263 594 b 576 507 475 594 532 568 l 646 571 b 400 688 594 638 522 688 b 65 336 200 688 65 535 b 364 -14 65 147 185 3 l 333 -99 l 379 -125 b 432 -101 392 -111 413 -101 b 483 -150 467 -101 483 -121 b 399 -208 483 -187 443 -208 b 288 -168 361 -208 321 -196 l 261 -221 b 401 -262 289 -243 342 -262 z "},"ĉ":{"ha":688,"x_min":0,"x_max":0,"o":"m 585 772 l 449 972 l 349 972 l 217 772 l 288 772 l 399 919 l 514 772 z m 400 -17 b 646 100 522 -17 594 33 l 576 164 b 406 76 532 104 475 76 b 174 336 263 76 174 188 b 406 594 174 485 263 594 b 576 507 475 594 532 568 l 646 571 b 400 688 594 638 522 688 b 65 336 200 688 65 535 b 400 -17 65 136 200 -17 z "},"ċ":{"ha":688,"x_min":0,"x_max":0,"o":"m 400 -17 b 646 100 522 -17 594 33 l 576 164 b 406 76 532 104 475 76 b 174 336 263 76 174 188 b 406 594 174 485 263 594 b 576 507 475 594 532 568 l 646 571 b 400 688 594 638 522 688 b 65 336 200 688 65 535 b 400 -17 65 136 200 -17 z m 403 771 b 467 836 439 771 467 800 b 403 901 467 872 439 901 b 338 836 368 901 338 872 b 403 771 338 800 368 771 z "},"č":{"ha":688,"x_min":0,"x_max":0,"o":"m 453 772 l 585 972 l 514 972 l 403 825 l 288 972 l 217 972 l 353 772 z m 400 -17 b 646 100 522 -17 594 33 l 576 164 b 406 76 532 104 475 76 b 174 336 263 76 174 188 b 406 594 174 485 263 594 b 576 507 475 594 532 568 l 646 571 b 400 688 594 638 522 688 b 65 336 200 688 65 535 b 400 -17 65 136 200 -17 z "},"ď":{"ha":894,"x_min":0,"x_max":0,"o":"m 900 851 b 826 944 900 911 865 944 b 763 879 790 944 763 915 b 821 818 763 844 788 818 b 836 821 825 818 835 819 b 756 701 832 781 797 729 l 801 665 b 900 851 856 706 900 776 z m 694 0 l 694 926 l 590 926 l 590 569 b 364 688 536 643 454 688 b 65 335 188 688 65 549 b 364 -17 65 117 189 -17 b 590 100 458 -17 540 32 l 590 0 z m 389 76 b 174 335 254 76 174 186 b 389 594 174 483 254 594 b 590 486 472 594 553 544 l 590 182 b 389 76 553 124 472 76 z "},"đ":{"ha":801,"x_min":0,"x_max":0,"o":"m 694 0 l 694 743 l 789 743 l 789 810 l 694 810 l 694 926 l 590 926 l 590 810 l 372 810 l 372 743 l 590 743 l 590 569 b 364 688 536 643 454 688 b 65 335 188 688 65 549 b 364 -17 65 117 189 -17 b 590 100 458 -17 540 32 l 590 0 z m 389 76 b 174 335 254 76 174 186 b 389 594 174 483 254 594 b 590 486 472 594 553 544 l 590 182 b 389 76 553 124 472 76 z "},"ḋ":{"ha":799,"x_min":0,"x_max":0,"o":"m 694 0 l 694 926 l 590 926 l 590 569 b 364 688 536 643 454 688 b 65 335 188 688 65 549 b 364 -17 65 117 189 -17 b 590 100 458 -17 540 32 l 590 0 z m 389 76 b 174 335 254 76 174 186 b 389 594 174 483 254 594 b 590 486 472 594 553 544 l 590 182 b 389 76 553 124 472 76 z m 392 1003 b 456 1068 428 1003 456 1032 b 392 1133 456 1104 428 1133 b 326 1068 357 1133 326 1104 b 392 1003 326 1032 357 1003 z "},"é":{"ha":782,"x_min":0,"x_max":0,"o":"m 631 972 l 522 972 l 317 772 l 396 772 z m 407 -17 b 674 86 517 -17 607 19 l 624 154 b 417 69 571 100 493 69 b 175 301 272 69 183 175 l 718 301 l 718 328 b 396 688 718 529 599 688 b 65 336 204 688 65 531 b 407 -17 65 126 208 -17 z m 615 378 l 175 378 b 394 601 181 481 251 601 b 615 378 547 601 614 478 z "},"ĕ":{"ha":782,"x_min":0,"x_max":0,"o":"m 407 -17 b 674 86 517 -17 607 19 l 624 154 b 417 69 571 100 493 69 b 175 301 272 69 183 175 l 718 301 l 718 328 b 396 688 718 529 599 688 b 65 336 204 688 65 531 b 407 -17 65 126 208 -17 z m 615 378 l 175 378 b 394 601 181 481 251 601 b 615 378 547 601 614 478 z m 642 869 l 590 914 b 399 814 547 851 479 814 b 206 914 317 814 250 853 l 154 869 b 399 747 211 794 300 747 b 642 869 499 747 586 794 z "},"ê":{"ha":782,"x_min":0,"x_max":0,"o":"m 582 772 l 446 972 l 346 972 l 214 772 l 285 772 l 396 919 l 511 772 z m 407 -17 b 674 86 517 -17 607 19 l 624 154 b 417 69 571 100 493 69 b 175 301 272 69 183 175 l 718 301 l 718 328 b 396 688 718 529 599 688 b 65 336 204 688 65 531 b 407 -17 65 126 208 -17 z m 615 378 l 175 378 b 394 601 181 481 251 601 b 615 378 547 601 614 478 z "},"ë":{"ha":782,"x_min":0,"x_max":0,"o":"m 606 839 b 540 903 606 874 575 903 b 475 839 506 903 475 874 b 540 774 475 803 506 774 b 606 839 575 774 606 803 z m 318 839 b 254 903 318 874 289 903 b 189 839 218 903 189 874 b 254 774 189 803 218 774 b 318 839 289 774 318 803 z m 407 -17 b 674 86 517 -17 607 19 l 624 154 b 417 69 571 100 493 69 b 175 301 272 69 183 175 l 718 301 l 718 328 b 396 688 718 529 599 688 b 65 336 204 688 65 531 b 407 -17 65 126 208 -17 z m 615 378 l 175 378 b 394 601 181 481 251 601 b 615 378 547 601 614 478 z "},"ė":{"ha":782,"x_min":0,"x_max":0,"o":"m 407 -17 b 674 86 517 -17 607 19 l 624 154 b 417 69 571 100 493 69 b 175 301 272 69 183 175 l 718 301 l 718 328 b 396 688 718 529 599 688 b 65 336 204 688 65 531 b 407 -17 65 126 208 -17 z m 615 378 l 175 378 b 394 601 181 481 251 601 b 615 378 547 601 614 478 z m 397 771 b 461 836 433 771 461 800 b 397 901 461 872 433 901 b 332 836 363 901 332 872 b 397 771 332 800 363 771 z "},"è":{"ha":782,"x_min":0,"x_max":0,"o":"m 407 -17 b 674 86 517 -17 607 19 l 624 154 b 417 69 571 100 493 69 b 175 301 272 69 183 175 l 718 301 l 718 328 b 396 688 718 529 599 688 b 65 336 204 688 65 531 b 407 -17 65 126 208 -17 z m 615 378 l 175 378 b 394 601 181 481 251 601 b 615 378 547 601 614 478 z m 475 772 l 269 972 l 161 972 l 396 772 z "},"ē":{"ha":782,"x_min":0,"x_max":0,"o":"m 407 -17 b 674 86 517 -17 607 19 l 624 154 b 417 69 571 100 493 69 b 175 301 272 69 183 175 l 718 301 l 718 328 b 396 688 718 529 599 688 b 65 336 204 688 65 531 b 407 -17 65 126 208 -17 z m 615 378 l 175 378 b 394 601 181 481 251 601 b 615 378 547 601 614 478 z m 647 794 l 647 861 l 143 861 l 143 794 z "},"ę":{"ha":782,"x_min":0,"x_max":0,"o":"m 407 -17 l 414 -17 b 360 -137 381 -50 360 -92 b 483 -258 360 -222 418 -258 b 607 -175 550 -258 588 -219 l 556 -146 b 483 -204 543 -183 522 -204 b 422 -135 447 -204 422 -182 b 526 0 422 -76 460 -33 b 674 86 583 15 632 44 l 624 154 b 417 69 571 100 493 69 b 175 301 272 69 183 175 l 718 301 l 718 328 b 396 688 718 529 599 688 b 65 336 204 688 65 531 b 407 -17 65 126 208 -17 z m 615 378 l 175 378 b 394 601 181 481 251 601 b 615 378 547 601 614 478 z "},"ě":{"ha":782,"x_min":0,"x_max":0,"o":"m 449 772 l 581 972 l 510 972 l 399 825 l 283 972 l 213 972 l 349 772 z m 407 -17 b 674 86 517 -17 607 19 l 624 154 b 417 69 571 100 493 69 b 175 301 272 69 183 175 l 718 301 l 718 328 b 396 688 718 529 599 688 b 65 336 204 688 65 531 b 407 -17 65 126 208 -17 z m 615 378 l 175 378 b 394 601 181 481 251 601 b 615 378 547 601 614 478 z "},"ẹ":{"ha":782,"x_min":0,"x_max":0,"o":"m 407 -17 b 674 86 517 -17 607 19 l 624 154 b 417 69 571 100 493 69 b 175 301 272 69 183 175 l 718 301 l 718 328 b 396 688 718 529 599 688 b 65 336 204 688 65 531 b 407 -17 65 126 208 -17 z m 615 378 l 175 378 b 394 601 181 481 251 601 b 615 378 547 601 614 478 z m 397 -256 b 461 -190 433 -256 461 -226 b 397 -125 461 -154 433 -125 b 332 -190 363 -125 332 -154 b 397 -256 332 -226 363 -256 z "},"ẻ":{"ha":782,"x_min":0,"x_max":0,"o":"m 407 -17 b 674 86 517 -17 607 19 l 624 154 b 417 69 571 100 493 69 b 175 301 272 69 183 175 l 718 301 l 718 328 b 396 688 718 529 599 688 b 65 336 204 688 65 531 b 407 -17 65 126 208 -17 z m 615 378 l 175 378 b 394 601 181 481 251 601 b 615 378 547 601 614 478 z m 339 814 b 394 858 349 842 367 858 b 444 804 425 858 444 840 b 413 732 444 781 436 756 l 468 732 b 494 807 486 757 494 776 b 394 903 494 874 447 903 b 293 826 342 903 307 869 z "},"ẽ":{"ha":782,"x_min":0,"x_max":0,"o":"m 407 -17 b 674 86 517 -17 607 19 l 624 154 b 417 69 571 100 493 69 b 175 301 272 69 183 175 l 718 301 l 718 328 b 396 688 718 529 599 688 b 65 336 204 688 65 531 b 407 -17 65 126 208 -17 z m 615 378 l 175 378 b 394 601 181 481 251 601 b 615 378 547 601 614 478 z m 478 769 b 613 956 565 769 613 847 l 550 956 b 483 836 550 872 521 836 b 313 964 417 836 413 964 b 178 778 225 964 178 886 l 240 778 b 307 897 240 861 269 897 b 478 769 374 897 376 769 z "},"ế":{"ha":782,"x_min":0,"x_max":0,"o":"m 581 772 l 444 972 l 344 972 l 213 772 l 283 772 l 394 919 l 510 772 z m 839 1069 l 731 1069 l 525 869 l 604 869 z m 407 -17 b 674 86 517 -17 607 19 l 624 154 b 417 69 571 100 493 69 b 175 301 272 69 183 175 l 718 301 l 718 328 b 396 688 718 529 599 688 b 65 336 204 688 65 531 b 407 -17 65 126 208 -17 z m 615 378 l 175 378 b 394 601 181 481 251 601 b 615 378 547 601 614 478 z "},"ề":{"ha":782,"x_min":0,"x_max":0,"o":"m 579 772 l 443 972 l 343 972 l 211 772 l 282 772 l 393 919 l 508 772 z m 407 -17 b 674 86 517 -17 607 19 l 624 154 b 417 69 571 100 493 69 b 175 301 272 69 183 175 l 718 301 l 718 328 b 396 688 718 529 599 688 b 65 336 204 688 65 531 b 407 -17 65 126 208 -17 z m 615 378 l 175 378 b 394 601 181 481 251 601 b 615 378 547 601 614 478 z m 261 869 l 56 1069 l -53 1069 l 182 869 z "},"ể":{"ha":782,"x_min":0,"x_max":0,"o":"m 578 772 l 442 972 l 342 972 l 210 772 l 281 772 l 392 919 l 507 772 z m 407 -17 b 674 86 517 -17 607 19 l 624 154 b 417 69 571 100 493 69 b 175 301 272 69 183 175 l 718 301 l 718 328 b 396 688 718 529 599 688 b 65 336 204 688 65 531 b 407 -17 65 126 208 -17 z m 615 378 l 175 378 b 394 601 181 481 251 601 b 615 378 547 601 614 478 z m 463 1008 b 518 1053 472 1036 490 1053 b 568 999 549 1053 568 1035 b 536 926 568 975 560 950 l 592 926 b 618 1001 610 951 618 971 b 518 1097 618 1068 571 1097 b 417 1021 465 1097 431 1064 z "},"ễ":{"ha":782,"x_min":0,"x_max":0,"o":"m 578 726 l 442 926 l 342 926 l 210 726 l 281 726 l 392 874 l 507 726 z m 407 -17 b 674 86 517 -17 607 19 l 624 154 b 417 69 571 100 493 69 b 175 301 272 69 183 175 l 718 301 l 718 328 b 396 688 718 529 599 688 b 65 336 204 688 65 531 b 407 -17 65 126 208 -17 z m 615 378 l 175 378 b 394 601 181 481 251 601 b 615 378 547 601 614 478 z m 472 947 b 607 1133 560 947 607 1025 l 544 1133 b 478 1014 544 1050 515 1014 b 307 1142 411 1014 407 1142 b 172 956 219 1142 172 1064 l 235 956 b 301 1075 235 1039 264 1075 b 472 947 368 1075 371 947 z "},"ệ":{"ha":782,"x_min":0,"x_max":0,"o":"m 582 772 l 446 972 l 346 972 l 214 772 l 285 772 l 396 919 l 511 772 z m 407 -17 b 674 86 517 -17 607 19 l 624 154 b 417 69 571 100 493 69 b 175 301 272 69 183 175 l 718 301 l 718 328 b 396 688 718 529 599 688 b 65 336 204 688 65 531 b 407 -17 65 126 208 -17 z m 615 378 l 175 378 b 394 601 181 481 251 601 b 615 378 547 601 614 478 z m 397 -256 b 461 -190 433 -256 461 -226 b 397 -125 461 -154 433 -125 b 332 -190 363 -125 332 -154 b 397 -256 332 -226 363 -256 z "},"ﬀ":{"ha":788,"x_min":0,"x_max":0,"o":"m 238 0 l 238 579 l 374 579 l 374 671 l 238 671 l 238 722 b 343 854 238 807 275 854 b 426 821 378 854 404 840 l 469 889 b 328 940 428 928 381 940 b 133 722 208 940 133 860 l 133 671 l 22 671 l 22 579 l 133 579 l 133 0 z m 631 0 l 631 579 l 767 579 l 767 671 l 631 671 l 631 722 b 736 854 631 807 668 854 b 819 821 771 854 797 840 l 863 889 b 721 940 821 928 774 940 b 526 722 601 940 526 860 l 526 671 l 415 671 l 415 579 l 526 579 l 526 0 z "},"ﬁ":{"ha":707,"x_min":0,"x_max":0,"o":"m 238 0 l 238 579 l 374 579 l 374 671 l 238 671 l 238 722 b 343 854 238 807 275 854 b 403 838 369 854 388 847 l 429 917 b 328 940 403 933 367 940 b 133 722 211 940 133 861 l 133 671 l 22 671 l 22 579 l 133 579 l 133 0 z m 549 767 b 619 836 588 767 619 797 b 549 907 619 875 588 907 b 479 836 511 907 479 875 b 549 767 479 797 511 767 z m 601 0 l 601 671 l 497 671 l 497 0 z "},"":{"ha":707,"x_min":0,"x_max":0,"o":"m 238 0 l 238 579 l 374 579 l 374 671 l 238 671 l 238 722 b 343 854 238 807 275 854 b 403 838 369 854 388 847 l 429 917 b 328 940 403 933 367 940 b 133 722 211 940 133 861 l 133 671 l 22 671 l 22 579 l 133 579 l 133 0 z m 549 767 b 619 836 588 767 619 797 b 549 907 619 875 588 907 b 479 836 511 907 479 875 b 549 767 479 797 511 767 z m 403 -272 b 601 -65 531 -272 601 -197 l 601 671 l 497 671 l 497 -65 b 389 -186 497 -150 451 -186 b 293 -143 347 -186 317 -167 l 256 -222 b 403 -272 299 -256 335 -272 z "},"ﬂ":{"ha":707,"x_min":0,"x_max":0,"o":"m 238 0 l 238 579 l 374 579 l 374 671 l 238 671 l 238 722 b 343 854 238 807 275 854 b 403 838 369 854 388 847 l 429 917 b 328 940 403 933 367 940 b 133 722 211 940 133 861 l 133 671 l 22 671 l 22 579 l 133 579 l 133 0 z m 601 0 l 601 926 l 497 926 l 497 0 z "},"ﬃ":{"ha":1100,"x_min":0,"x_max":0,"o":"m 631 0 l 631 579 l 767 579 l 767 671 l 631 671 l 631 722 b 736 854 631 807 668 854 b 796 838 763 854 781 847 l 822 917 b 721 940 796 933 760 940 b 526 722 604 940 526 861 l 526 671 l 415 671 l 415 579 l 526 579 l 526 0 z m 943 767 b 1014 836 982 767 1014 797 b 943 907 1014 875 982 907 b 874 836 906 907 874 875 b 943 767 874 797 906 767 z m 996 0 l 996 671 l 892 671 l 892 0 z m 238 0 l 238 579 l 374 579 l 374 671 l 238 671 l 238 722 b 343 854 238 807 275 854 b 426 821 378 854 404 840 l 469 889 b 328 940 428 928 381 940 b 133 722 208 940 133 860 l 133 671 l 22 671 l 22 579 l 133 579 l 133 0 z "},"":{"ha":1100,"x_min":0,"x_max":0,"o":"m 631 0 l 631 579 l 767 579 l 767 671 l 631 671 l 631 722 b 736 854 631 807 668 854 b 796 838 763 854 781 847 l 822 917 b 721 940 796 933 760 940 b 526 722 604 940 526 861 l 526 671 l 415 671 l 415 579 l 526 579 l 526 0 z m 943 767 b 1014 836 982 767 1014 797 b 943 907 1014 875 982 907 b 874 836 906 907 874 875 b 943 767 874 797 906 767 z m 797 -272 b 996 -65 925 -272 996 -197 l 996 671 l 892 671 l 892 -65 b 783 -186 892 -150 846 -186 b 688 -143 742 -186 711 -167 l 650 -222 b 797 -272 693 -256 729 -272 z m 238 0 l 238 579 l 374 579 l 374 671 l 238 671 l 238 722 b 343 854 238 807 275 854 b 426 821 378 854 404 840 l 469 889 b 328 940 428 928 381 940 b 133 722 208 940 133 860 l 133 671 l 22 671 l 22 579 l 133 579 l 133 0 z "},"ﬄ":{"ha":1100,"x_min":0,"x_max":0,"o":"m 631 0 l 631 579 l 767 579 l 767 671 l 631 671 l 631 722 b 736 854 631 807 668 854 b 796 838 763 854 781 847 l 822 917 b 721 940 796 933 760 940 b 526 722 604 940 526 861 l 526 671 l 415 671 l 415 579 l 526 579 l 526 0 z m 996 0 l 996 926 l 892 926 l 892 0 z m 238 0 l 238 579 l 374 579 l 374 671 l 238 671 l 238 722 b 343 854 238 807 275 854 b 426 821 378 854 404 840 l 469 889 b 328 940 428 928 381 940 b 133 722 208 940 133 860 l 133 671 l 22 671 l 22 579 l 133 579 l 133 0 z "},"ḟ":{"ha":393,"x_min":0,"x_max":0,"o":"m 329 1003 b 393 1068 365 1003 393 1032 b 329 1133 393 1104 365 1133 b 264 1068 294 1133 264 1104 b 329 1003 264 1032 294 1003 z m 238 0 l 238 579 l 374 579 l 374 671 l 238 671 l 238 722 b 343 854 238 807 275 854 b 426 821 378 854 404 840 l 469 889 b 328 940 428 928 381 940 b 133 722 208 940 133 860 l 133 671 l 22 671 l 22 579 l 133 579 l 133 0 z "},"ĝ":{"ha":797,"x_min":0,"x_max":0,"o":"m 588 772 l 451 972 l 351 972 l 219 772 l 290 772 l 401 919 l 517 772 z m 374 -272 b 693 19 538 -272 693 -203 l 693 671 l 589 671 l 589 569 b 364 688 535 643 454 688 b 65 339 188 688 65 554 b 364 -8 65 122 189 -8 b 589 111 458 -8 540 43 l 589 15 b 374 -186 589 -132 485 -186 b 156 -94 278 -186 211 -161 l 103 -172 b 374 -272 182 -250 260 -272 z m 389 83 b 174 339 254 83 174 192 b 389 594 174 488 254 594 b 589 486 472 594 553 544 l 589 193 b 389 83 553 135 472 83 z "},"ğ":{"ha":797,"x_min":0,"x_max":0,"o":"m 374 -272 b 693 19 538 -272 693 -203 l 693 671 l 589 671 l 589 569 b 364 688 535 643 454 688 b 65 339 188 688 65 554 b 364 -8 65 122 189 -8 b 589 111 458 -8 540 43 l 589 15 b 374 -186 589 -132 485 -186 b 156 -94 278 -186 211 -161 l 103 -172 b 374 -272 182 -250 260 -272 z m 389 83 b 174 339 254 83 174 192 b 389 594 174 488 254 594 b 589 486 472 594 553 544 l 589 193 b 389 83 553 135 472 83 z m 646 869 l 594 914 b 403 814 551 851 483 814 b 210 914 321 814 254 853 l 158 869 b 403 747 215 794 304 747 b 646 869 503 747 590 794 z "},"ġ":{"ha":797,"x_min":0,"x_max":0,"o":"m 374 -272 b 693 19 538 -272 693 -203 l 693 671 l 589 671 l 589 569 b 364 688 535 643 454 688 b 65 339 188 688 65 554 b 364 -8 65 122 189 -8 b 589 111 458 -8 540 43 l 589 15 b 374 -186 589 -132 485 -186 b 156 -94 278 -186 211 -161 l 103 -172 b 374 -272 182 -250 260 -272 z m 389 83 b 174 339 254 83 174 192 b 389 594 174 488 254 594 b 589 486 472 594 553 544 l 589 193 b 389 83 553 135 472 83 z m 401 771 b 465 836 438 771 465 800 b 401 901 465 872 438 901 b 336 836 367 901 336 872 b 401 771 336 800 367 771 z "},"ģ":{"ha":797,"x_min":0,"x_max":0,"o":"m 331 849 b 397 765 331 792 365 765 b 464 829 435 765 464 796 b 400 892 464 864 431 892 b 393 890 396 892 393 890 b 472 1007 396 932 433 981 l 426 1044 b 331 849 374 1007 331 932 z m 374 -272 b 693 19 538 -272 693 -203 l 693 671 l 589 671 l 589 569 b 364 688 535 643 454 688 b 65 339 188 688 65 554 b 364 -8 65 122 189 -8 b 589 111 458 -8 540 43 l 589 15 b 374 -186 589 -132 485 -186 b 156 -94 278 -186 211 -161 l 103 -172 b 374 -272 182 -250 260 -272 z m 389 83 b 174 339 254 83 174 192 b 389 594 174 488 254 594 b 589 486 472 594 553 544 l 589 193 b 389 83 553 135 472 83 z "},"ħ":{"ha":769,"x_min":0,"x_max":0,"o":"m 428 743 l 428 810 l 211 810 l 211 926 l 107 926 l 107 810 l 13 810 l 13 743 l 107 743 l 107 0 l 211 0 l 211 490 b 410 594 251 544 329 594 b 561 442 500 594 561 560 l 561 0 l 665 0 l 665 474 b 451 688 665 619 592 688 b 211 574 350 688 258 629 l 211 743 z "},"ĥ":{"ha":767,"x_min":0,"x_max":0,"o":"m 569 1004 l 433 1204 l 333 1204 l 201 1004 l 272 1004 l 383 1151 l 499 1004 z m 663 0 l 663 474 b 449 688 663 619 589 688 b 208 574 347 688 256 629 l 208 926 l 104 926 l 104 0 l 208 0 l 208 490 b 407 594 249 544 326 594 b 558 442 497 594 558 560 l 558 0 z "},"ḣ":{"ha":767,"x_min":0,"x_max":0,"o":"m 663 0 l 663 474 b 449 688 663 619 589 688 b 208 574 347 688 256 629 l 208 926 l 104 926 l 104 0 l 208 0 l 208 490 b 407 594 249 544 326 594 b 558 442 497 594 558 560 l 558 0 z m 383 1003 b 447 1068 419 1003 447 1032 b 383 1133 447 1104 419 1133 b 318 1068 349 1133 318 1104 b 383 1003 318 1032 349 1003 z "},"ı":{"ha":313,"x_min":0,"x_max":0,"o":"m 208 0 l 208 671 l 104 671 l 104 0 z "},"í":{"ha":313,"x_min":0,"x_max":0,"o":"m 392 972 l 283 972 l 78 772 l 157 772 z m 208 0 l 208 671 l 104 671 l 104 0 z "},"ĭ":{"ha":313,"x_min":0,"x_max":0,"o":"m 208 0 l 208 671 l 104 671 l 104 0 z m 400 869 l 349 914 b 157 814 306 851 238 814 b -36 914 75 814 8 853 l -87 869 b 157 747 -31 794 58 747 b 400 869 257 747 344 794 z "},"î":{"ha":313,"x_min":0,"x_max":0,"o":"m 340 772 l 204 972 l 104 972 l -28 772 l 43 772 l 154 919 l 269 772 z m 208 0 l 208 671 l 104 671 l 104 0 z "},"ï":{"ha":313,"x_min":0,"x_max":0,"o":"m 365 839 b 300 903 365 874 335 903 b 235 839 265 903 235 874 b 300 774 235 803 265 774 b 365 839 335 774 365 803 z m 78 839 b 14 903 78 874 49 903 b -51 839 -22 903 -51 874 b 14 774 -51 803 -22 774 b 78 839 49 774 78 803 z m 208 0 l 208 671 l 104 671 l 104 0 z "},"ì":{"ha":313,"x_min":0,"x_max":0,"o":"m 208 0 l 208 671 l 104 671 l 104 0 z m 235 772 l 29 972 l -79 972 l 156 772 z "},"ī":{"ha":313,"x_min":0,"x_max":0,"o":"m 208 0 l 208 671 l 104 671 l 104 0 z m 408 794 l 408 861 l -96 861 l -96 794 z "},"į":{"ha":313,"x_min":0,"x_max":0,"o":"m 236 -146 b 164 -204 224 -183 203 -204 b 103 -135 128 -204 103 -182 b 208 0 103 -76 142 -33 l 208 671 l 104 671 l 104 0 l 114 0 b 40 -137 68 -36 40 -85 b 164 -258 40 -222 99 -258 b 288 -175 231 -258 268 -219 z m 156 767 b 226 836 194 767 226 797 b 156 907 226 875 194 907 b 86 836 118 907 86 875 b 156 767 86 797 118 767 z "},"ĩ":{"ha":313,"x_min":0,"x_max":0,"o":"m 208 0 l 208 671 l 104 671 l 104 0 z m 239 769 b 374 956 326 769 374 847 l 311 956 b 244 836 311 872 282 836 b 74 964 178 836 174 964 b -61 778 -14 964 -61 886 l 1 778 b 68 897 1 861 31 897 b 239 769 135 897 138 769 z "},"ỉ":{"ha":313,"x_min":0,"x_max":0,"o":"m 208 0 l 208 671 l 104 671 l 104 0 z m 101 814 b 157 858 111 842 129 858 b 207 804 188 858 207 840 b 175 732 207 781 199 756 l 231 732 b 257 807 249 757 257 776 b 157 903 257 874 210 903 b 56 826 104 903 69 869 z "},"ị":{"ha":313,"x_min":0,"x_max":0,"o":"m 156 767 b 226 836 194 767 226 797 b 156 907 226 875 194 907 b 86 836 118 907 86 875 b 156 767 86 797 118 767 z m 208 0 l 208 671 l 104 671 l 104 0 z m 157 -256 b 221 -190 193 -256 221 -226 b 157 -125 221 -154 193 -125 b 92 -190 122 -125 92 -154 b 157 -256 92 -226 122 -256 z "},"ĳ":{"ha":626,"x_min":0,"x_max":0,"o":"m 156 767 b 226 836 194 767 226 797 b 156 907 226 875 194 907 b 86 836 118 907 86 875 b 156 767 86 797 118 767 z m 208 0 l 208 671 l 104 671 l 104 0 z m 468 767 b 539 836 507 767 539 797 b 468 907 539 875 507 907 b 399 836 431 907 399 875 b 468 767 399 797 431 767 z m 322 -272 b 521 -65 450 -272 521 -197 l 521 671 l 417 671 l 417 -65 b 308 -186 417 -150 371 -186 b 213 -143 267 -186 236 -167 l 175 -222 b 322 -272 218 -256 254 -272 z "},"ȷ":{"ha":313,"x_min":0,"x_max":0,"o":"m 10 -272 b 208 -65 138 -272 208 -197 l 208 671 l 104 671 l 104 -65 b -4 -186 104 -150 58 -186 b -100 -143 -46 -186 -76 -167 l -137 -222 b 10 -272 -94 -256 -58 -272 z "},"ĵ":{"ha":313,"x_min":0,"x_max":0,"o":"m 343 772 l 207 972 l 107 972 l -25 772 l 46 772 l 157 919 l 272 772 z m 10 -272 b 208 -65 138 -272 208 -197 l 208 671 l 104 671 l 104 -65 b -4 -186 104 -150 58 -186 b -100 -143 -46 -186 -76 -167 l -137 -222 b 10 -272 -94 -256 -58 -272 z "},"ķ":{"ha":714,"x_min":0,"x_max":0,"o":"m 436 -192 b 363 -99 436 -132 401 -99 b 299 -164 326 -99 299 -128 b 357 -225 299 -199 324 -225 b 372 -222 361 -225 371 -224 b 292 -342 368 -262 333 -314 l 338 -378 b 436 -192 392 -337 436 -267 z m 694 0 l 396 367 l 693 671 l 561 671 l 208 314 l 208 926 l 104 926 l 104 0 l 208 0 l 208 192 l 319 301 l 561 0 z "},"ĸ":{"ha":714,"x_min":0,"x_max":0,"o":"m 694 0 l 396 367 l 693 671 l 561 671 l 208 314 l 208 671 l 104 671 l 104 0 l 208 0 l 208 192 l 319 301 l 561 0 z "},"ĺ":{"ha":313,"x_min":0,"x_max":0,"o":"m 392 1204 l 283 1204 l 78 1004 l 157 1004 z m 208 0 l 208 926 l 104 926 l 104 0 z "},"ļ":{"ha":313,"x_min":0,"x_max":0,"o":"m 236 -192 b 163 -99 236 -132 201 -99 b 99 -164 126 -99 99 -128 b 157 -225 99 -199 124 -225 b 172 -222 161 -225 171 -224 b 92 -342 168 -262 133 -314 l 138 -378 b 236 -192 192 -337 236 -267 z m 208 0 l 208 926 l 104 926 l 104 0 z "},"ľ":{"ha":404,"x_min":0,"x_max":0,"o":"m 432 851 b 358 944 432 911 397 944 b 294 879 322 944 294 915 b 353 818 294 844 319 818 b 368 821 357 818 367 819 b 288 701 364 781 329 729 l 333 665 b 432 851 388 706 432 776 z m 208 0 l 208 926 l 104 926 l 104 0 z "},"ŀ":{"ha":426,"x_min":0,"x_max":0,"o":"m 208 0 l 208 926 l 104 926 l 104 0 z m 446 339 b 369 415 446 381 411 415 b 293 339 328 415 293 381 b 369 264 293 299 328 264 b 446 339 411 264 446 299 z "},"ł":{"ha":399,"x_min":0,"x_max":0,"o":"m 14 317 l 147 393 l 147 0 l 251 0 l 251 453 l 383 528 l 383 611 l 251 536 l 251 926 l 147 926 l 147 476 l 14 400 z "},"ń":{"ha":765,"x_min":0,"x_max":0,"o":"m 617 972 l 508 972 l 303 772 l 382 772 z m 661 0 l 661 471 b 447 688 661 617 588 688 b 208 574 347 688 256 629 l 208 671 l 104 671 l 104 0 l 208 0 l 208 490 b 407 594 247 544 325 594 b 557 439 497 594 557 557 l 557 0 z "},"ŉ":{"ha":765,"x_min":0,"x_max":0,"o":"m 224 939 b 150 1032 224 999 189 1032 b 86 967 114 1032 86 1003 b 144 906 86 932 111 906 b 160 908 149 906 158 907 b 79 789 156 868 121 817 l 125 753 b 224 939 179 793 224 864 z m 661 0 l 661 471 b 447 688 661 617 588 688 b 208 574 347 688 256 629 l 208 671 l 104 671 l 104 0 l 208 0 l 208 490 b 407 594 247 544 325 594 b 557 439 497 594 557 557 l 557 0 z "},"ň":{"ha":765,"x_min":0,"x_max":0,"o":"m 436 772 l 568 972 l 497 972 l 386 825 l 271 972 l 200 972 l 336 772 z m 661 0 l 661 471 b 447 688 661 617 588 688 b 208 574 347 688 256 629 l 208 671 l 104 671 l 104 0 l 208 0 l 208 490 b 407 594 247 544 325 594 b 557 439 497 594 557 557 l 557 0 z "},"ņ":{"ha":765,"x_min":0,"x_max":0,"o":"m 458 -192 b 385 -99 458 -132 424 -99 b 321 -164 349 -99 321 -128 b 379 -225 321 -199 346 -225 b 394 -222 383 -225 393 -224 b 314 -342 390 -262 356 -314 l 360 -378 b 458 -192 414 -337 458 -267 z m 661 0 l 661 471 b 447 688 661 617 588 688 b 208 574 347 688 256 629 l 208 671 l 104 671 l 104 0 l 208 0 l 208 490 b 407 594 247 544 325 594 b 557 439 497 594 557 557 l 557 0 z "},"ñ":{"ha":765,"x_min":0,"x_max":0,"o":"m 661 0 l 661 471 b 447 688 661 617 588 688 b 208 574 347 688 256 629 l 208 671 l 104 671 l 104 0 l 208 0 l 208 490 b 407 594 247 544 325 594 b 557 439 497 594 557 557 l 557 0 z m 467 769 b 601 956 554 769 601 847 l 539 956 b 472 836 539 872 510 836 b 301 964 406 836 401 964 b 167 778 214 964 167 886 l 229 778 b 296 897 229 861 258 897 b 467 769 363 897 365 769 z "},"ŋ":{"ha":765,"x_min":0,"x_max":0,"o":"m 661 471 b 447 688 661 617 588 688 b 208 574 347 688 256 629 l 208 671 l 104 671 l 104 0 l 208 0 l 208 490 b 407 594 247 544 325 594 b 557 439 497 594 557 557 l 557 -65 b 449 -179 557 -144 511 -179 b 353 -137 407 -179 376 -161 l 317 -222 b 463 -272 360 -256 394 -272 b 661 -65 592 -272 661 -197 z "},"ó":{"ha":794,"x_min":0,"x_max":0,"o":"m 632 972 l 524 972 l 318 772 l 397 772 z m 397 -17 b 729 336 601 -17 729 142 b 397 688 729 531 601 688 b 65 336 193 688 65 531 b 397 -17 65 142 193 -17 z m 397 76 b 174 336 254 76 174 199 b 397 594 174 472 254 594 b 619 336 540 594 619 472 b 397 76 619 199 540 76 z "},"ŏ":{"ha":794,"x_min":0,"x_max":0,"o":"m 397 -17 b 729 336 601 -17 729 142 b 397 688 729 531 601 688 b 65 336 193 688 65 531 b 397 -17 65 142 193 -17 z m 397 76 b 174 336 254 76 174 199 b 397 594 174 472 254 594 b 619 336 540 594 619 472 b 397 76 619 199 540 76 z m 642 869 l 590 914 b 399 814 547 851 479 814 b 206 914 317 814 250 853 l 154 869 b 399 747 211 794 300 747 b 642 869 499 747 586 794 z "},"ô":{"ha":794,"x_min":0,"x_max":0,"o":"m 582 772 l 446 972 l 346 972 l 214 772 l 285 772 l 396 919 l 511 772 z m 397 -17 b 729 336 601 -17 729 142 b 397 688 729 531 601 688 b 65 336 193 688 65 531 b 397 -17 65 142 193 -17 z m 397 76 b 174 336 254 76 174 199 b 397 594 174 472 254 594 b 619 336 540 594 619 472 b 397 76 619 199 540 76 z "},"ö":{"ha":794,"x_min":0,"x_max":0,"o":"m 606 839 b 540 903 606 874 575 903 b 475 839 506 903 475 874 b 540 774 475 803 506 774 b 606 839 575 774 606 803 z m 318 839 b 254 903 318 874 289 903 b 189 839 218 903 189 874 b 254 774 189 803 218 774 b 318 839 289 774 318 803 z m 397 -17 b 729 336 601 -17 729 142 b 397 688 729 531 601 688 b 65 336 193 688 65 531 b 397 -17 65 142 193 -17 z m 397 76 b 174 336 254 76 174 199 b 397 594 174 472 254 594 b 619 336 540 594 619 472 b 397 76 619 199 540 76 z "},"ò":{"ha":794,"x_min":0,"x_max":0,"o":"m 397 -17 b 729 336 601 -17 729 142 b 397 688 729 531 601 688 b 65 336 193 688 65 531 b 397 -17 65 142 193 -17 z m 397 76 b 174 336 254 76 174 199 b 397 594 174 472 254 594 b 619 336 540 594 619 472 b 397 76 619 199 540 76 z m 476 772 l 271 972 l 163 972 l 397 772 z "},"ő":{"ha":794,"x_min":0,"x_max":0,"o":"m 471 972 l 375 972 l 244 772 l 311 772 z m 668 972 l 572 972 l 442 772 l 508 772 z m 397 -17 b 729 336 601 -17 729 142 b 397 688 729 531 601 688 b 65 336 193 688 65 531 b 397 -17 65 142 193 -17 z m 397 76 b 174 336 254 76 174 199 b 397 594 174 472 254 594 b 619 336 540 594 619 472 b 397 76 619 199 540 76 z "},"ō":{"ha":794,"x_min":0,"x_max":0,"o":"m 649 794 l 649 861 l 144 861 l 144 794 z m 397 -17 b 729 336 601 -17 729 142 b 397 688 729 531 601 688 b 65 336 193 688 65 531 b 397 -17 65 142 193 -17 z m 397 76 b 174 336 254 76 174 199 b 397 594 174 472 254 594 b 619 336 540 594 619 472 b 397 76 619 199 540 76 z "},"ø":{"ha":794,"x_min":0,"x_max":0,"o":"m 164 0 l 200 46 b 397 -17 253 6 319 -17 b 729 336 601 -17 729 142 b 632 592 729 438 694 528 l 694 671 l 619 671 l 588 631 b 397 688 536 667 471 688 b 65 336 193 688 65 531 b 156 85 65 238 97 149 l 89 0 z m 397 76 b 261 124 342 76 297 94 l 567 510 b 619 336 601 463 619 401 b 397 76 619 199 540 76 z m 174 336 b 397 594 174 472 254 594 b 525 553 449 594 492 579 l 221 168 b 174 336 190 214 174 274 z "},"ǿ":{"ha":794,"x_min":0,"x_max":0,"o":"m 632 972 l 524 972 l 318 772 l 397 772 z m 164 0 l 200 46 b 397 -17 253 6 319 -17 b 729 336 601 -17 729 142 b 632 592 729 438 694 528 l 694 671 l 619 671 l 588 631 b 397 688 536 667 471 688 b 65 336 193 688 65 531 b 156 85 65 238 97 149 l 89 0 z m 397 76 b 261 124 342 76 297 94 l 567 510 b 619 336 601 463 619 401 b 397 76 619 199 540 76 z m 174 336 b 397 594 174 472 254 594 b 525 553 449 594 492 579 l 221 168 b 174 336 190 214 174 274 z "},"õ":{"ha":794,"x_min":0,"x_max":0,"o":"m 397 -17 b 729 336 601 -17 729 142 b 397 688 729 531 601 688 b 65 336 193 688 65 531 b 397 -17 65 142 193 -17 z m 397 76 b 174 336 254 76 174 199 b 397 594 174 472 254 594 b 619 336 540 594 619 472 b 397 76 619 199 540 76 z m 481 769 b 615 956 568 769 615 847 l 553 956 b 486 836 553 872 524 836 b 315 964 419 836 415 964 b 181 778 228 964 181 886 l 243 778 b 310 897 243 861 272 897 b 481 769 376 897 379 769 z "},"ọ":{"ha":794,"x_min":0,"x_max":0,"o":"m 397 -17 b 729 336 601 -17 729 142 b 397 688 729 531 601 688 b 65 336 193 688 65 531 b 397 -17 65 142 193 -17 z m 397 76 b 174 336 254 76 174 199 b 397 594 174 472 254 594 b 619 336 540 594 619 472 b 397 76 619 199 540 76 z m 397 -256 b 461 -190 433 -256 461 -226 b 397 -125 461 -154 433 -125 b 332 -190 363 -125 332 -154 b 397 -256 332 -226 363 -256 z "},"ỏ":{"ha":794,"x_min":0,"x_max":0,"o":"m 397 -17 b 729 336 601 -17 729 142 b 397 688 729 531 601 688 b 65 336 193 688 65 531 b 397 -17 65 142 193 -17 z m 397 76 b 174 336 254 76 174 199 b 397 594 174 472 254 594 b 619 336 540 594 619 472 b 397 76 619 199 540 76 z m 342 814 b 397 858 351 842 369 858 b 447 804 428 858 447 840 b 415 732 447 781 439 756 l 471 732 b 497 807 489 757 497 776 b 397 903 497 874 450 903 b 296 826 344 903 310 869 z "},"ố":{"ha":794,"x_min":0,"x_max":0,"o":"m 582 772 l 446 972 l 346 972 l 214 772 l 285 772 l 396 919 l 511 772 z m 842 1069 l 733 1069 l 528 869 l 607 869 z m 397 -17 b 729 336 601 -17 729 142 b 397 688 729 531 601 688 b 65 336 193 688 65 531 b 397 -17 65 142 193 -17 z m 397 76 b 174 336 254 76 174 199 b 397 594 174 472 254 594 b 619 336 540 594 619 472 b 397 76 619 199 540 76 z "},"ồ":{"ha":794,"x_min":0,"x_max":0,"o":"m 582 772 l 446 972 l 346 972 l 214 772 l 285 772 l 396 919 l 511 772 z m 397 -17 b 729 336 601 -17 729 142 b 397 688 729 531 601 688 b 65 336 193 688 65 531 b 397 -17 65 142 193 -17 z m 397 76 b 174 336 254 76 174 199 b 397 594 174 472 254 594 b 619 336 540 594 619 472 b 397 76 619 199 540 76 z m 264 869 l 58 1069 l -50 1069 l 185 869 z "},"ổ":{"ha":794,"x_min":0,"x_max":0,"o":"m 582 772 l 446 972 l 346 972 l 214 772 l 285 772 l 396 919 l 511 772 z m 397 -17 b 729 336 601 -17 729 142 b 397 688 729 531 601 688 b 65 336 193 688 65 531 b 397 -17 65 142 193 -17 z m 397 76 b 174 336 254 76 174 199 b 397 594 174 472 254 594 b 619 336 540 594 619 472 b 397 76 619 199 540 76 z m 465 1008 b 521 1053 475 1036 493 1053 b 571 999 551 1053 571 1035 b 539 926 571 975 563 950 l 594 926 b 621 1001 613 951 621 971 b 521 1097 621 1068 574 1097 b 419 1021 468 1097 433 1064 z "},"ỗ":{"ha":794,"x_min":0,"x_max":0,"o":"m 579 726 l 443 926 l 343 926 l 211 726 l 282 726 l 393 874 l 508 726 z m 397 -17 b 729 336 601 -17 729 142 b 397 688 729 531 601 688 b 65 336 193 688 65 531 b 397 -17 65 142 193 -17 z m 397 76 b 174 336 254 76 174 199 b 397 594 174 472 254 594 b 619 336 540 594 619 472 b 397 76 619 199 540 76 z m 475 947 b 610 1133 563 947 610 1025 l 547 1133 b 481 1014 547 1050 518 1014 b 310 1142 414 1014 410 1142 b 175 956 222 1142 175 1064 l 238 956 b 304 1075 238 1039 267 1075 b 475 947 371 1075 374 947 z "},"ộ":{"ha":794,"x_min":0,"x_max":0,"o":"m 581 772 l 444 972 l 344 972 l 213 772 l 283 772 l 394 919 l 510 772 z m 397 -17 b 729 336 601 -17 729 142 b 397 688 729 531 601 688 b 65 336 193 688 65 531 b 397 -17 65 142 193 -17 z m 397 76 b 174 336 254 76 174 199 b 397 594 174 472 254 594 b 619 336 540 594 619 472 b 397 76 619 199 540 76 z m 397 -256 b 461 -190 433 -256 461 -226 b 397 -125 461 -154 433 -125 b 332 -190 363 -125 332 -154 b 397 -256 332 -226 363 -256 z "},"ơ":{"ha":794,"x_min":0,"x_max":0,"o":"m 732 736 b 663 824 732 792 700 824 b 603 764 629 824 603 796 b 658 707 603 731 626 707 b 674 708 663 707 671 708 b 615 608 669 675 646 635 b 397 688 560 657 486 688 b 65 336 193 688 65 531 b 397 -17 65 142 193 -17 b 729 336 601 -17 729 142 b 651 569 729 425 701 508 b 732 736 697 608 732 671 z m 397 76 b 174 336 254 76 174 199 b 397 594 174 472 254 594 b 619 336 540 594 619 472 b 397 76 619 199 540 76 z "},"ớ":{"ha":794,"x_min":0,"x_max":0,"o":"m 632 972 l 524 972 l 318 772 l 397 772 z m 732 736 b 663 824 732 792 700 824 b 603 764 629 824 603 796 b 658 707 603 731 626 707 b 674 708 663 707 671 708 b 615 608 669 675 646 635 b 397 688 560 657 486 688 b 65 336 193 688 65 531 b 397 -17 65 142 193 -17 b 729 336 601 -17 729 142 b 651 569 729 425 701 508 b 732 736 697 608 732 671 z m 397 76 b 174 336 254 76 174 199 b 397 594 174 472 254 594 b 619 336 540 594 619 472 b 397 76 619 199 540 76 z "},"ờ":{"ha":794,"x_min":0,"x_max":0,"o":"m 732 736 b 663 824 732 792 700 824 b 603 764 629 824 603 796 b 658 707 603 731 626 707 b 674 708 663 707 671 708 b 615 608 669 675 646 635 b 397 688 560 657 486 688 b 65 336 193 688 65 531 b 397 -17 65 142 193 -17 b 729 336 601 -17 729 142 b 651 569 729 425 701 508 b 732 736 697 608 732 671 z m 397 76 b 174 336 254 76 174 199 b 397 594 174 472 254 594 b 619 336 540 594 619 472 b 397 76 619 199 540 76 z m 476 772 l 271 972 l 163 972 l 397 772 z "},"ở":{"ha":794,"x_min":0,"x_max":0,"o":"m 732 736 b 663 824 732 792 700 824 b 603 764 629 824 603 796 b 658 707 603 731 626 707 b 674 708 663 707 671 708 b 615 608 669 675 646 635 b 397 688 560 657 486 688 b 65 336 193 688 65 531 b 397 -17 65 142 193 -17 b 729 336 601 -17 729 142 b 651 569 729 425 701 508 b 732 736 697 608 732 671 z m 397 76 b 174 336 254 76 174 199 b 397 594 174 472 254 594 b 619 336 540 594 619 472 b 397 76 619 199 540 76 z m 342 814 b 397 858 351 842 369 858 b 447 804 428 858 447 840 b 415 732 447 781 439 756 l 471 732 b 497 807 489 757 497 776 b 397 903 497 874 450 903 b 296 826 344 903 310 869 z "},"ỡ":{"ha":794,"x_min":0,"x_max":0,"o":"m 732 736 b 663 824 732 792 700 824 b 603 764 629 824 603 796 b 658 707 603 731 626 707 b 674 708 663 707 671 708 b 615 608 669 675 646 635 b 397 688 560 657 486 688 b 65 336 193 688 65 531 b 397 -17 65 142 193 -17 b 729 336 601 -17 729 142 b 651 569 729 425 701 508 b 732 736 697 608 732 671 z m 397 76 b 174 336 254 76 174 199 b 397 594 174 472 254 594 b 619 336 540 594 619 472 b 397 76 619 199 540 76 z m 479 769 b 614 956 567 769 614 847 l 551 956 b 485 836 551 872 522 836 b 314 964 418 836 414 964 b 179 778 226 964 179 886 l 242 778 b 308 897 242 861 271 897 b 479 769 375 897 378 769 z "},"ợ":{"ha":794,"x_min":0,"x_max":0,"o":"m 732 736 b 663 824 732 792 700 824 b 603 764 629 824 603 796 b 658 707 603 731 626 707 b 674 708 663 707 671 708 b 615 608 669 675 646 635 b 397 688 560 657 486 688 b 65 336 193 688 65 531 b 397 -17 65 142 193 -17 b 729 336 601 -17 729 142 b 651 569 729 425 701 508 b 732 736 697 608 732 671 z m 397 76 b 174 336 254 76 174 199 b 397 594 174 472 254 594 b 619 336 540 594 619 472 b 397 76 619 199 540 76 z m 397 -256 b 461 -190 433 -256 461 -226 b 397 -125 461 -154 433 -125 b 332 -190 363 -125 332 -154 b 397 -256 332 -226 363 -256 z "},"œ":{"ha":1336,"x_min":0,"x_max":0,"o":"m 1272 301 l 1272 328 b 950 688 1272 529 1153 688 b 675 496 790 688 706 568 b 397 688 644 567 564 688 b 65 336 193 688 65 531 b 397 -17 65 142 193 -17 b 674 175 564 -17 640 101 b 963 -17 708 97 790 -17 b 1229 86 1071 -17 1161 19 l 1179 154 b 971 69 1125 100 1049 69 b 731 301 826 69 739 175 z m 729 378 b 949 601 735 481 806 601 b 1171 378 1101 601 1168 478 z m 619 336 b 397 75 619 194 538 75 b 174 336 257 75 174 194 b 397 594 174 476 257 594 b 619 336 538 594 619 476 z "},"ṗ":{"ha":794,"x_min":0,"x_max":0,"o":"m 435 -17 b 733 336 611 -17 733 119 b 435 688 733 554 611 688 b 208 571 340 688 257 639 l 208 671 l 104 671 l 104 -256 l 208 -256 l 208 101 b 435 -17 263 26 343 -17 z m 408 76 b 208 185 326 76 244 126 l 208 488 b 408 594 244 546 326 594 b 624 336 543 594 624 485 b 408 76 624 188 543 76 z m 407 771 b 471 836 443 771 471 800 b 407 901 471 872 443 901 b 342 836 372 901 342 872 b 407 771 342 800 372 771 z "},"ŕ":{"ha":458,"x_min":0,"x_max":0,"o":"m 503 972 l 394 972 l 189 772 l 268 772 z m 208 0 l 208 475 b 390 582 239 529 326 582 b 432 578 407 582 419 581 l 432 685 b 208 563 340 685 263 633 l 208 671 l 104 671 l 104 0 z "},"ř":{"ha":458,"x_min":0,"x_max":0,"o":"m 318 772 l 450 972 l 379 972 l 268 825 l 153 972 l 82 972 l 218 772 z m 208 0 l 208 475 b 390 582 239 529 326 582 b 432 578 407 582 419 581 l 432 685 b 208 563 340 685 263 633 l 208 671 l 104 671 l 104 0 z "},"ŗ":{"ha":458,"x_min":0,"x_max":0,"o":"m 307 -192 b 233 -99 307 -132 272 -99 b 169 -164 197 -99 169 -128 b 228 -225 169 -199 194 -225 b 243 -222 232 -225 242 -224 b 163 -342 239 -262 204 -314 l 208 -378 b 307 -192 263 -337 307 -267 z m 208 0 l 208 475 b 390 582 239 529 326 582 b 432 578 407 582 419 581 l 432 685 b 208 563 340 685 263 633 l 208 671 l 104 671 l 104 0 z "},"ś":{"ha":646,"x_min":0,"x_max":0,"o":"m 551 972 l 443 972 l 238 772 l 317 772 z m 317 -17 b 581 186 490 -17 581 74 b 165 497 581 447 165 350 b 314 603 165 557 222 603 b 514 518 400 603 474 567 l 563 590 b 314 688 508 644 428 688 b 64 494 154 688 64 599 b 479 183 64 246 479 346 b 321 68 479 117 424 68 b 100 164 229 68 144 113 l 46 89 b 317 -17 114 17 207 -17 z "},"š":{"ha":646,"x_min":0,"x_max":0,"o":"m 369 772 l 501 972 l 431 972 l 319 825 l 204 972 l 133 972 l 269 772 z m 317 -17 b 581 186 490 -17 581 74 b 165 497 581 447 165 350 b 314 603 165 557 222 603 b 514 518 400 603 474 567 l 563 590 b 314 688 508 644 428 688 b 64 494 154 688 64 599 b 479 183 64 246 479 346 b 321 68 479 117 424 68 b 100 164 229 68 144 113 l 46 89 b 317 -17 114 17 207 -17 z "},"ŝ":{"ha":646,"x_min":0,"x_max":0,"o":"m 501 772 l 365 972 l 265 972 l 133 772 l 204 772 l 315 919 l 431 772 z m 317 -17 b 581 186 490 -17 581 74 b 165 497 581 447 165 350 b 314 603 165 557 222 603 b 514 518 400 603 474 567 l 563 590 b 314 688 508 644 428 688 b 64 494 154 688 64 599 b 479 183 64 246 479 346 b 321 68 479 117 424 68 b 100 164 229 68 144 113 l 46 89 b 317 -17 114 17 207 -17 z "},"ş":{"ha":646,"x_min":0,"x_max":0,"o":"m 315 -265 b 460 -154 394 -265 460 -222 b 368 -61 460 -97 421 -61 b 317 -76 350 -61 331 -67 l 340 -15 b 581 186 499 -8 581 78 b 165 497 581 447 165 350 b 314 603 165 557 222 603 b 514 518 400 603 474 567 l 563 590 b 314 688 508 644 428 688 b 64 494 154 688 64 599 b 479 183 64 246 479 346 b 321 68 479 117 424 68 b 100 164 229 68 144 113 l 46 89 b 279 -15 106 25 185 -8 l 247 -101 l 293 -128 b 346 -104 306 -114 326 -104 b 397 -153 381 -104 397 -124 b 313 -211 397 -190 357 -211 b 201 -171 275 -211 235 -199 l 175 -224 b 315 -265 203 -246 256 -265 z "},"ș":{"ha":646,"x_min":0,"x_max":0,"o":"m 404 -192 b 331 -99 404 -132 369 -99 b 267 -164 294 -99 267 -128 b 325 -225 267 -199 292 -225 b 340 -222 329 -225 339 -224 b 260 -342 336 -262 301 -314 l 306 -378 b 404 -192 360 -337 404 -267 z m 317 -17 b 581 186 490 -17 581 74 b 165 497 581 447 165 350 b 314 603 165 557 222 603 b 514 518 400 603 474 567 l 563 590 b 314 688 508 644 428 688 b 64 494 154 688 64 599 b 479 183 64 246 479 346 b 321 68 479 117 424 68 b 100 164 229 68 144 113 l 46 89 b 317 -17 114 17 207 -17 z "},"ṡ":{"ha":646,"x_min":0,"x_max":0,"o":"m 317 -17 b 581 186 490 -17 581 74 b 165 497 581 447 165 350 b 314 603 165 557 222 603 b 514 518 400 603 474 567 l 563 590 b 314 688 508 644 428 688 b 64 494 154 688 64 599 b 479 183 64 246 479 346 b 321 68 479 117 424 68 b 100 164 229 68 144 113 l 46 89 b 317 -17 114 17 207 -17 z m 322 771 b 386 836 358 771 386 800 b 322 901 386 872 358 901 b 257 836 288 901 257 872 b 322 771 257 800 288 771 z "},"ß":{"ha":829,"x_min":0,"x_max":0,"o":"m 803 188 b 404 496 803 449 404 350 b 613 765 404 610 613 613 b 369 940 613 874 497 940 b 104 693 207 940 104 829 l 104 0 l 208 0 l 208 693 b 368 847 208 789 281 847 b 506 753 433 847 506 815 b 303 494 506 664 303 646 b 701 185 303 251 701 346 b 544 68 701 125 650 68 b 339 164 451 68 378 113 l 286 92 b 544 -17 344 32 410 -17 b 803 188 717 -17 803 79 z "},"ſ":{"ha":393,"x_min":0,"x_max":0,"o":"m 238 0 l 238 722 b 343 847 238 800 275 847 b 426 815 378 847 404 835 l 469 889 b 328 940 428 928 381 940 b 133 722 208 940 133 860 l 133 671 l 22 671 l 22 579 l 133 579 l 133 0 z "},"ŧ":{"ha":408,"x_min":0,"x_max":0,"o":"m 274 -17 b 399 26 335 -17 372 1 l 368 104 b 297 76 354 89 326 76 b 229 163 251 76 229 113 l 229 314 l 326 314 l 326 381 l 229 381 l 229 579 l 365 579 l 365 671 l 229 671 l 229 854 l 125 854 l 125 671 l 14 671 l 14 579 l 125 579 l 125 381 l 14 381 l 14 314 l 125 314 l 125 140 b 274 -17 125 40 175 -17 z "},"ť":{"ha":435,"x_min":0,"x_max":0,"o":"m 451 939 b 378 1032 451 999 417 1032 b 314 967 342 1032 314 1003 b 372 906 314 932 339 906 b 388 908 376 906 386 907 b 307 789 383 868 349 817 l 353 753 b 451 939 407 793 451 864 z m 274 -17 b 399 26 335 -17 372 1 l 368 104 b 297 76 354 89 326 76 b 229 163 251 76 229 113 l 229 579 l 365 579 l 365 671 l 229 671 l 229 854 l 125 854 l 125 671 l 14 671 l 14 579 l 125 579 l 125 140 b 274 -17 125 40 175 -17 z "},"ţ":{"ha":408,"x_min":0,"x_max":0,"o":"m 282 -192 b 208 -99 282 -132 247 -99 b 144 -164 172 -99 144 -128 b 203 -225 144 -199 169 -225 b 218 -222 207 -225 217 -224 b 138 -342 214 -262 179 -314 l 183 -378 b 282 -192 238 -337 282 -267 z m 274 -17 b 399 26 335 -17 372 1 l 368 104 b 297 76 354 89 326 76 b 229 163 251 76 229 113 l 229 579 l 365 579 l 365 671 l 229 671 l 229 854 l 125 854 l 125 671 l 14 671 l 14 579 l 125 579 l 125 140 b 274 -17 125 40 175 -17 z "},"ț":{"ha":408,"x_min":0,"x_max":0,"o":"m 282 -192 b 208 -99 282 -132 247 -99 b 144 -164 172 -99 144 -128 b 203 -225 144 -199 169 -225 b 218 -222 207 -225 217 -224 b 138 -342 214 -262 179 -314 l 183 -378 b 282 -192 238 -337 282 -267 z m 274 -17 b 399 26 335 -17 372 1 l 368 104 b 297 76 354 89 326 76 b 229 163 251 76 229 113 l 229 579 l 365 579 l 365 671 l 229 671 l 229 854 l 125 854 l 125 671 l 14 671 l 14 579 l 125 579 l 125 140 b 274 -17 125 40 175 -17 z "},"ṫ":{"ha":408,"x_min":0,"x_max":0,"o":"m 274 -17 b 399 26 335 -17 372 1 l 368 104 b 297 76 354 89 326 76 b 229 163 251 76 229 113 l 229 579 l 365 579 l 365 671 l 229 671 l 229 854 l 125 854 l 125 671 l 14 671 l 14 579 l 125 579 l 125 140 b 274 -17 125 40 175 -17 z m 186 1003 b 250 1068 222 1003 250 1032 b 186 1133 250 1104 222 1133 b 121 1068 151 1133 121 1104 b 186 1003 121 1032 151 1003 z "},"ú":{"ha":765,"x_min":0,"x_max":0,"o":"m 617 972 l 508 972 l 303 772 l 382 772 z m 661 0 l 661 671 l 557 671 l 557 178 b 358 76 518 124 440 76 b 208 229 268 76 208 111 l 208 671 l 104 671 l 104 197 b 318 -17 104 51 178 -17 b 557 94 418 -17 506 36 l 557 0 z "},"ŭ":{"ha":765,"x_min":0,"x_max":0,"o":"m 661 0 l 661 671 l 557 671 l 557 178 b 358 76 518 124 440 76 b 208 229 268 76 208 111 l 208 671 l 104 671 l 104 197 b 318 -17 104 51 178 -17 b 557 94 418 -17 506 36 l 557 0 z m 628 869 l 576 914 b 385 814 533 851 465 814 b 192 914 303 814 236 853 l 140 869 b 385 747 197 794 286 747 b 628 869 485 747 572 794 z "},"û":{"ha":765,"x_min":0,"x_max":0,"o":"m 567 772 l 431 972 l 331 972 l 199 772 l 269 772 l 381 919 l 496 772 z m 661 0 l 661 671 l 557 671 l 557 178 b 358 76 518 124 440 76 b 208 229 268 76 208 111 l 208 671 l 104 671 l 104 197 b 318 -17 104 51 178 -17 b 557 94 418 -17 506 36 l 557 0 z "},"ü":{"ha":765,"x_min":0,"x_max":0,"o":"m 593 839 b 528 903 593 874 563 903 b 463 839 493 903 463 874 b 528 774 463 803 493 774 b 593 839 563 774 593 803 z m 306 839 b 242 903 306 874 276 903 b 176 839 206 903 176 874 b 242 774 176 803 206 774 b 306 839 276 774 306 803 z m 661 0 l 661 671 l 557 671 l 557 178 b 358 76 518 124 440 76 b 208 229 268 76 208 111 l 208 671 l 104 671 l 104 197 b 318 -17 104 51 178 -17 b 557 94 418 -17 506 36 l 557 0 z "},"ù":{"ha":765,"x_min":0,"x_max":0,"o":"m 661 0 l 661 671 l 557 671 l 557 178 b 358 76 518 124 440 76 b 208 229 268 76 208 111 l 208 671 l 104 671 l 104 197 b 318 -17 104 51 178 -17 b 557 94 418 -17 506 36 l 557 0 z m 461 772 l 256 972 l 147 972 l 382 772 z "},"ű":{"ha":765,"x_min":0,"x_max":0,"o":"m 661 0 l 661 671 l 557 671 l 557 178 b 358 76 518 124 440 76 b 208 229 268 76 208 111 l 208 671 l 104 671 l 104 197 b 318 -17 104 51 178 -17 b 557 94 418 -17 506 36 l 557 0 z m 457 972 l 361 972 l 231 772 l 297 772 z m 654 972 l 558 972 l 428 772 l 494 772 z "},"ū":{"ha":765,"x_min":0,"x_max":0,"o":"m 661 0 l 661 671 l 557 671 l 557 178 b 358 76 518 124 440 76 b 208 229 268 76 208 111 l 208 671 l 104 671 l 104 197 b 318 -17 104 51 178 -17 b 557 94 418 -17 506 36 l 557 0 z m 633 794 l 633 861 l 129 861 l 129 794 z "},"ų":{"ha":765,"x_min":0,"x_max":0,"o":"m 661 0 l 661 671 l 557 671 l 557 178 b 358 76 518 124 440 76 b 208 229 268 76 208 111 l 208 671 l 104 671 l 104 197 b 318 -17 104 51 178 -17 b 557 94 418 -17 506 36 l 557 0 l 567 0 b 493 -137 521 -36 493 -85 b 617 -258 493 -222 551 -258 b 740 -175 683 -258 721 -219 l 689 -146 b 617 -204 676 -183 656 -204 b 556 -135 581 -204 556 -182 b 661 0 556 -76 594 -33 z "},"ů":{"ha":765,"x_min":0,"x_max":0,"o":"m 383 754 b 519 890 458 754 519 815 b 383 1028 519 965 458 1028 b 247 890 308 1028 247 965 b 383 754 247 815 308 754 z m 383 808 b 303 890 339 808 303 846 b 383 972 303 936 339 972 b 464 890 429 972 464 936 b 383 808 464 846 429 808 z m 661 0 l 661 671 l 557 671 l 557 178 b 358 76 518 124 440 76 b 208 229 268 76 208 111 l 208 671 l 104 671 l 104 197 b 318 -17 104 51 178 -17 b 557 94 418 -17 506 36 l 557 0 z "},"ũ":{"ha":765,"x_min":0,"x_max":0,"o":"m 661 0 l 661 671 l 557 671 l 557 178 b 358 76 518 124 440 76 b 208 229 268 76 208 111 l 208 671 l 104 671 l 104 197 b 318 -17 104 51 178 -17 b 557 94 418 -17 506 36 l 557 0 z m 465 769 b 600 956 553 769 600 847 l 538 956 b 471 836 538 872 508 836 b 300 964 404 836 400 964 b 165 778 213 964 165 886 l 228 778 b 294 897 228 861 257 897 b 465 769 361 897 364 769 z "},"ụ":{"ha":765,"x_min":0,"x_max":0,"o":"m 661 0 l 661 671 l 557 671 l 557 178 b 358 76 518 124 440 76 b 208 229 268 76 208 111 l 208 671 l 104 671 l 104 197 b 318 -17 104 51 178 -17 b 557 94 418 -17 506 36 l 557 0 z m 386 -256 b 450 -190 422 -256 450 -226 b 386 -125 450 -154 422 -125 b 321 -190 351 -125 321 -154 b 386 -256 321 -226 351 -256 z "},"ư":{"ha":765,"x_min":0,"x_max":0,"o":"m 661 0 l 661 544 b 792 744 742 588 792 665 b 721 832 792 800 758 832 b 661 772 688 832 661 804 b 717 715 661 739 685 715 b 732 717 721 715 731 717 b 661 604 729 676 700 633 l 661 671 l 557 671 l 557 178 b 358 76 518 124 440 76 b 208 229 268 76 208 111 l 208 671 l 104 671 l 104 197 b 318 -17 104 51 178 -17 b 557 94 418 -17 506 36 l 557 0 z "},"ủ":{"ha":765,"x_min":0,"x_max":0,"o":"m 661 0 l 661 671 l 557 671 l 557 178 b 358 76 518 124 440 76 b 208 229 268 76 208 111 l 208 671 l 104 671 l 104 197 b 318 -17 104 51 178 -17 b 557 94 418 -17 506 36 l 557 0 z m 328 814 b 383 858 338 842 356 858 b 433 804 414 858 433 840 b 401 732 433 781 425 756 l 457 732 b 483 807 475 757 483 776 b 383 903 483 874 436 903 b 282 826 331 903 296 869 z "},"ứ":{"ha":765,"x_min":0,"x_max":0,"o":"m 617 972 l 508 972 l 303 772 l 382 772 z m 661 0 l 661 544 b 792 744 742 588 792 665 b 721 832 792 800 758 832 b 661 772 688 832 661 804 b 717 715 661 739 685 715 b 732 717 721 715 731 717 b 661 604 729 676 700 633 l 661 671 l 557 671 l 557 178 b 358 76 518 124 440 76 b 208 229 268 76 208 111 l 208 671 l 104 671 l 104 197 b 318 -17 104 51 178 -17 b 557 94 418 -17 506 36 l 557 0 z "},"ừ":{"ha":765,"x_min":0,"x_max":0,"o":"m 461 772 l 256 972 l 147 972 l 382 772 z m 661 0 l 661 544 b 792 744 742 588 792 665 b 721 832 792 800 758 832 b 661 772 688 832 661 804 b 717 715 661 739 685 715 b 732 717 721 715 731 717 b 661 604 729 676 700 633 l 661 671 l 557 671 l 557 178 b 358 76 518 124 440 76 b 208 229 268 76 208 111 l 208 671 l 104 671 l 104 197 b 318 -17 104 51 178 -17 b 557 94 418 -17 506 36 l 557 0 z "},"ử":{"ha":765,"x_min":0,"x_max":0,"o":"m 328 814 b 383 858 338 842 356 858 b 433 804 414 858 433 840 b 401 732 433 781 425 756 l 457 732 b 483 807 475 757 483 776 b 383 903 483 874 436 903 b 282 826 331 903 296 869 z m 661 0 l 661 544 b 792 744 742 588 792 665 b 721 832 792 800 758 832 b 661 772 688 832 661 804 b 717 715 661 739 685 715 b 732 717 721 715 731 717 b 661 604 729 676 700 633 l 661 671 l 557 671 l 557 178 b 358 76 518 124 440 76 b 208 229 268 76 208 111 l 208 671 l 104 671 l 104 197 b 318 -17 104 51 178 -17 b 557 94 418 -17 506 36 l 557 0 z "},"ữ":{"ha":765,"x_min":0,"x_max":0,"o":"m 661 0 l 661 544 b 792 744 742 588 792 665 b 721 832 792 800 758 832 b 661 772 688 832 661 804 b 717 715 661 739 685 715 b 732 717 721 715 731 717 b 661 604 729 676 700 633 l 661 671 l 557 671 l 557 178 b 358 76 518 124 440 76 b 208 229 268 76 208 111 l 208 671 l 104 671 l 104 197 b 318 -17 104 51 178 -17 b 557 94 418 -17 506 36 l 557 0 z m 465 769 b 600 956 553 769 600 847 l 538 956 b 471 836 538 872 508 836 b 300 964 404 836 400 964 b 165 778 213 964 165 886 l 228 778 b 294 897 228 861 257 897 b 465 769 361 897 364 769 z "},"ự":{"ha":765,"x_min":0,"x_max":0,"o":"m 386 -256 b 450 -190 422 -256 450 -226 b 386 -125 450 -154 422 -125 b 321 -190 351 -125 321 -154 b 386 -256 321 -226 351 -256 z m 661 0 l 661 544 b 792 744 742 588 792 665 b 721 832 792 800 758 832 b 661 772 688 832 661 804 b 717 715 661 739 685 715 b 732 717 721 715 731 717 b 661 604 729 676 700 633 l 661 671 l 557 671 l 557 178 b 358 76 518 124 440 76 b 208 229 268 76 208 111 l 208 671 l 104 671 l 104 197 b 318 -17 104 51 178 -17 b 557 94 418 -17 506 36 l 557 0 z "},"ẃ":{"ha":1019,"x_min":0,"x_max":0,"o":"m 744 972 l 636 972 l 431 772 l 510 772 z m 789 0 l 1003 671 l 894 671 l 731 136 l 554 671 l 465 671 l 289 136 l 125 671 l 17 671 l 231 0 l 335 0 l 510 539 l 685 0 z "},"ŵ":{"ha":1019,"x_min":0,"x_max":0,"o":"m 694 772 l 558 972 l 458 972 l 326 772 l 397 772 l 508 919 l 624 772 z m 789 0 l 1003 671 l 894 671 l 731 136 l 554 671 l 465 671 l 289 136 l 125 671 l 17 671 l 231 0 l 335 0 l 510 539 l 685 0 z "},"ẅ":{"ha":1019,"x_min":0,"x_max":0,"o":"m 718 839 b 653 903 718 874 688 903 b 588 839 618 903 588 874 b 653 774 588 803 618 774 b 718 839 688 774 718 803 z m 431 839 b 367 903 431 874 401 903 b 301 839 331 903 301 874 b 367 774 301 803 331 774 b 431 839 401 774 431 803 z m 789 0 l 1003 671 l 894 671 l 731 136 l 554 671 l 465 671 l 289 136 l 125 671 l 17 671 l 231 0 l 335 0 l 510 539 l 685 0 z "},"ẁ":{"ha":1019,"x_min":0,"x_max":0,"o":"m 789 0 l 1003 671 l 894 671 l 731 136 l 554 671 l 465 671 l 289 136 l 125 671 l 17 671 l 231 0 l 335 0 l 510 539 l 685 0 z m 589 772 l 383 972 l 275 972 l 510 772 z "},"ý":{"ha":681,"x_min":0,"x_max":0,"o":"m 67 -262 b 143 -272 86 -268 121 -272 b 340 -136 232 -271 300 -233 l 676 671 l 563 671 l 340 121 l 117 671 l 4 671 l 285 -7 l 240 -108 b 140 -179 217 -164 186 -179 b 83 -168 124 -179 99 -175 z m 575 972 l 467 972 l 261 772 l 340 772 z "},"ŷ":{"ha":681,"x_min":0,"x_max":0,"o":"m 67 -262 b 143 -272 86 -268 121 -272 b 340 -136 232 -271 300 -233 l 676 671 l 563 671 l 340 121 l 117 671 l 4 671 l 285 -7 l 240 -108 b 140 -179 217 -164 186 -179 b 83 -168 124 -179 99 -175 z m 525 772 l 389 972 l 289 972 l 157 772 l 228 772 l 339 919 l 454 772 z "},"ÿ":{"ha":681,"x_min":0,"x_max":0,"o":"m 67 -262 b 143 -272 86 -268 121 -272 b 340 -136 232 -271 300 -233 l 676 671 l 563 671 l 340 121 l 117 671 l 4 671 l 285 -7 l 240 -108 b 140 -179 217 -164 186 -179 b 83 -168 124 -179 99 -175 z m 549 839 b 483 903 549 874 518 903 b 418 839 449 903 418 874 b 483 774 418 803 449 774 b 549 839 518 774 549 803 z m 261 839 b 197 903 261 874 232 903 b 132 839 161 903 132 874 b 197 774 132 803 161 774 b 261 839 232 774 261 803 z "},"ỳ":{"ha":681,"x_min":0,"x_max":0,"o":"m 67 -262 b 143 -272 86 -268 121 -272 b 340 -136 232 -271 300 -233 l 676 671 l 563 671 l 340 121 l 117 671 l 4 671 l 285 -7 l 240 -108 b 140 -179 217 -164 186 -179 b 83 -168 124 -179 99 -175 z m 419 772 l 214 972 l 106 972 l 340 772 z "},"ź":{"ha":656,"x_min":0,"x_max":0,"o":"m 561 972 l 453 972 l 247 772 l 326 772 z m 583 0 l 583 90 l 206 90 l 578 592 l 578 671 l 72 671 l 72 579 l 442 579 l 72 81 l 72 0 z "},"ž":{"ha":656,"x_min":0,"x_max":0,"o":"m 372 772 l 504 972 l 433 972 l 322 825 l 207 972 l 136 972 l 272 772 z m 583 0 l 583 90 l 206 90 l 578 592 l 578 671 l 72 671 l 72 579 l 442 579 l 72 81 l 72 0 z "},"ż":{"ha":656,"x_min":0,"x_max":0,"o":"m 583 0 l 583 90 l 206 90 l 578 592 l 578 671 l 72 671 l 72 579 l 442 579 l 72 81 l 72 0 z m 326 771 b 390 836 363 771 390 800 b 326 901 390 872 363 901 b 261 836 292 901 261 872 b 326 771 261 800 292 771 z "},"ð":{"ha":794,"x_min":0,"x_max":0,"o":"m 169 690 l 368 778 b 590 542 460 710 539 633 b 371 665 529 629 457 665 b 65 325 192 665 65 519 b 397 -17 65 131 197 -17 b 729 343 601 -17 729 136 b 471 825 729 539 621 697 l 590 878 l 567 935 l 417 868 b 261 974 368 906 315 940 l 204 888 b 308 821 239 865 275 843 l 144 749 z m 397 76 b 174 325 254 76 174 193 b 397 572 174 456 254 572 b 619 325 540 572 619 456 b 397 76 619 193 540 76 z "},"þ":{"ha":794,"x_min":0,"x_max":0,"o":"m 435 -17 b 733 336 611 -17 733 119 b 435 688 733 554 611 688 b 208 571 340 688 257 639 l 208 926 l 104 926 l 104 -256 l 208 -256 l 208 101 b 435 -17 263 26 343 -17 z m 408 76 b 208 185 326 76 244 126 l 208 488 b 408 594 244 546 326 594 b 624 336 543 594 624 485 b 408 76 624 188 543 76 z "},"":{"ha":794,"x_min":0,"x_max":0,"o":"m 632 1042 l 524 1042 l 318 842 l 397 842 z m 332 764 l 10 0 l 132 0 l 201 167 l 593 167 l 664 0 l 785 0 l 463 764 z m 560 263 l 235 263 l 397 650 z "},"":{"ha":794,"x_min":0,"x_max":0,"o":"m 332 764 l 10 0 l 132 0 l 201 167 l 593 167 l 664 0 l 785 0 l 463 764 z m 560 263 l 235 263 l 397 650 z m 642 939 l 590 983 b 399 883 547 921 479 883 b 206 983 317 883 250 922 l 154 939 b 399 817 211 864 300 817 b 642 939 499 817 586 864 z "},"":{"ha":794,"x_min":0,"x_max":0,"o":"m 583 842 l 447 1042 l 347 1042 l 215 842 l 286 842 l 397 989 l 513 842 z m 332 764 l 10 0 l 132 0 l 201 167 l 593 167 l 664 0 l 785 0 l 463 764 z m 560 263 l 235 263 l 397 650 z "},"":{"ha":794,"x_min":0,"x_max":0,"o":"m 607 917 b 542 981 607 951 576 981 b 476 917 507 981 476 951 b 542 851 476 881 507 851 b 607 917 576 851 607 881 z m 319 917 b 256 981 319 951 290 981 b 190 917 219 981 190 951 b 256 851 190 881 219 851 b 319 917 290 851 319 881 z m 332 764 l 10 0 l 132 0 l 201 167 l 593 167 l 664 0 l 785 0 l 463 764 z m 560 263 l 235 263 l 397 650 z "},"":{"ha":794,"x_min":0,"x_max":0,"o":"m 332 764 l 10 0 l 132 0 l 201 167 l 593 167 l 664 0 l 785 0 l 463 764 z m 560 263 l 235 263 l 397 650 z m 476 842 l 271 1042 l 163 1042 l 397 842 z "},"":{"ha":794,"x_min":0,"x_max":0,"o":"m 650 864 l 650 931 l 146 931 l 146 864 z m 332 764 l 10 0 l 132 0 l 201 167 l 593 167 l 664 0 l 785 0 l 463 764 z m 560 263 l 235 263 l 397 650 z "},"":{"ha":794,"x_min":0,"x_max":0,"o":"m 332 764 l 10 0 l 132 0 l 201 167 l 593 167 l 664 0 l 690 0 b 617 -137 644 -36 617 -85 b 740 -258 617 -222 675 -258 b 864 -175 807 -258 844 -219 l 813 -146 b 740 -204 800 -183 779 -204 b 679 -135 704 -204 679 -182 b 785 0 679 -76 718 -33 l 463 764 z m 560 263 l 235 263 l 397 650 z "},"":{"ha":794,"x_min":0,"x_max":0,"o":"m 399 796 b 535 932 474 796 535 857 b 399 1069 535 1007 474 1069 b 263 932 324 1069 263 1007 b 399 796 263 857 324 796 z m 399 850 b 318 932 354 850 318 888 b 399 1014 318 978 354 1014 b 479 932 444 1014 479 978 b 399 850 479 888 444 850 z m 332 764 l 10 0 l 132 0 l 201 167 l 593 167 l 664 0 l 785 0 l 463 764 z m 560 263 l 235 263 l 397 650 z "},"":{"ha":794,"x_min":0,"x_max":0,"o":"m 332 764 l 10 0 l 132 0 l 201 167 l 593 167 l 664 0 l 785 0 l 463 764 z m 560 263 l 235 263 l 397 650 z m 481 839 b 615 1025 568 839 615 917 l 553 1025 b 486 906 553 942 524 906 b 315 1033 419 906 415 1033 b 181 847 228 1033 181 956 l 243 847 b 310 967 243 931 272 967 b 481 839 376 967 379 839 z "},"":{"ha":1140,"x_min":0,"x_max":0,"o":"m 1069 0 l 1069 96 l 646 96 l 646 343 l 1060 343 l 1060 439 l 646 439 l 646 668 l 1069 668 l 1069 764 l 496 764 l 8 0 l 132 0 l 238 167 l 538 167 l 538 0 z m 538 263 l 290 263 l 538 650 z "},"":{"ha":1140,"x_min":0,"x_max":0,"o":"m 826 1042 l 718 1042 l 513 842 l 592 842 z m 1069 0 l 1069 96 l 646 96 l 646 343 l 1060 343 l 1060 439 l 646 439 l 646 668 l 1069 668 l 1069 764 l 496 764 l 8 0 l 132 0 l 238 167 l 538 167 l 538 0 z m 538 263 l 290 263 l 538 650 z "},"":{"ha":808,"x_min":0,"x_max":0,"o":"m 708 1042 l 600 1042 l 394 842 l 474 842 z m 472 -17 b 778 140 610 -17 710 47 l 689 189 b 472 79 646 124 563 79 b 176 382 306 79 176 207 b 472 685 176 560 306 685 b 689 575 563 685 643 642 l 776 624 b 472 781 711 715 610 781 b 65 382 242 781 65 618 b 472 -17 65 147 242 -17 z "},"":{"ha":808,"x_min":0,"x_max":0,"o":"m 528 842 l 660 1042 l 589 1042 l 478 894 l 363 1042 l 292 1042 l 428 842 z m 472 -17 b 778 140 610 -17 710 47 l 689 189 b 472 79 646 124 563 79 b 176 382 306 79 176 207 b 472 685 176 560 306 685 b 689 575 563 685 643 642 l 776 624 b 472 781 711 715 610 781 b 65 382 242 781 65 618 b 472 -17 65 147 242 -17 z "},"":{"ha":808,"x_min":0,"x_max":0,"o":"m 472 -265 b 617 -154 551 -265 617 -222 b 525 -61 617 -97 578 -61 b 474 -76 507 -61 488 -67 l 497 -15 b 778 140 622 -8 714 53 l 689 189 b 472 79 646 124 563 79 b 176 382 306 79 176 207 b 472 685 176 560 306 685 b 689 575 563 685 643 642 l 776 624 b 472 781 711 715 610 781 b 65 382 242 781 65 618 b 436 -15 65 160 224 0 l 404 -101 l 450 -128 b 503 -104 463 -114 483 -104 b 554 -153 538 -104 554 -124 b 469 -211 554 -190 514 -211 b 358 -171 432 -211 392 -199 l 332 -224 b 472 -265 360 -246 413 -265 z "},"":{"ha":808,"x_min":0,"x_max":0,"o":"m 660 842 l 524 1042 l 424 1042 l 292 842 l 363 842 l 474 989 l 589 842 z m 472 -17 b 778 140 610 -17 710 47 l 689 189 b 472 79 646 124 563 79 b 176 382 306 79 176 207 b 472 685 176 560 306 685 b 689 575 563 685 643 642 l 776 624 b 472 781 711 715 610 781 b 65 382 242 781 65 618 b 472 -17 65 147 242 -17 z "},"":{"ha":808,"x_min":0,"x_max":0,"o":"m 472 -17 b 778 140 610 -17 710 47 l 689 189 b 472 79 646 124 563 79 b 176 382 306 79 176 207 b 472 685 176 560 306 685 b 689 575 563 685 643 642 l 776 624 b 472 781 711 715 610 781 b 65 382 242 781 65 618 b 472 -17 65 147 242 -17 z m 476 840 b 540 906 513 840 540 869 b 476 971 540 942 513 971 b 411 906 442 971 411 942 b 476 840 411 869 442 840 z "},"":{"ha":854,"x_min":0,"x_max":0,"o":"m 464 842 l 596 1042 l 525 1042 l 414 894 l 299 1042 l 228 1042 l 364 842 z m 364 0 b 771 381 614 0 771 164 b 363 764 771 597 614 764 l 86 764 l 86 0 z m 363 96 l 194 96 l 194 668 l 364 668 b 658 381 557 668 658 539 b 363 96 658 222 554 96 z "},"":{"ha":869,"x_min":0,"x_max":0,"o":"m 379 0 b 786 381 629 0 786 164 b 378 764 786 597 629 764 l 101 764 l 101 422 l 14 422 l 14 349 l 101 349 l 101 0 z m 396 349 l 396 422 l 210 422 l 210 668 l 379 668 b 674 381 572 668 674 539 b 378 96 674 222 569 96 l 210 96 l 210 349 z "},"":{"ha":707,"x_min":0,"x_max":0,"o":"m 604 1042 l 496 1042 l 290 842 l 369 842 z m 635 0 l 635 96 l 213 96 l 213 343 l 628 343 l 628 439 l 213 439 l 213 668 l 635 668 l 635 764 l 104 764 l 104 0 z "},"":{"ha":707,"x_min":0,"x_max":0,"o":"m 635 0 l 635 96 l 213 96 l 213 343 l 628 343 l 628 439 l 213 439 l 213 668 l 635 668 l 635 764 l 104 764 l 104 0 z m 613 939 l 561 983 b 369 883 518 921 450 883 b 176 983 288 883 221 922 l 125 939 b 369 817 182 864 271 817 b 613 939 469 817 557 864 z "},"":{"ha":707,"x_min":0,"x_max":0,"o":"m 422 842 l 554 1042 l 483 1042 l 372 894 l 257 1042 l 186 1042 l 322 842 z m 635 0 l 635 96 l 213 96 l 213 343 l 628 343 l 628 439 l 213 439 l 213 668 l 635 668 l 635 764 l 104 764 l 104 0 z "},"":{"ha":707,"x_min":0,"x_max":0,"o":"m 557 842 l 421 1042 l 321 1042 l 189 842 l 260 842 l 371 989 l 486 842 z m 635 0 l 635 96 l 213 96 l 213 343 l 628 343 l 628 439 l 213 439 l 213 668 l 635 668 l 635 764 l 104 764 l 104 0 z "},"":{"ha":707,"x_min":0,"x_max":0,"o":"m 578 908 b 513 972 578 943 547 972 b 447 908 478 972 447 943 b 513 843 447 872 478 843 b 578 908 547 843 578 872 z m 290 908 b 226 972 290 943 261 972 b 161 908 190 972 161 943 b 226 843 161 872 190 843 b 290 908 261 843 290 872 z m 635 0 l 635 96 l 213 96 l 213 343 l 628 343 l 628 439 l 213 439 l 213 668 l 635 668 l 635 764 l 104 764 l 104 0 z "},"":{"ha":707,"x_min":0,"x_max":0,"o":"m 635 0 l 635 96 l 213 96 l 213 343 l 628 343 l 628 439 l 213 439 l 213 668 l 635 668 l 635 764 l 104 764 l 104 0 z m 374 840 b 438 906 410 840 438 869 b 374 971 438 942 410 971 b 308 906 339 971 308 942 b 374 840 308 869 339 840 z "},"":{"ha":707,"x_min":0,"x_max":0,"o":"m 635 0 l 635 96 l 213 96 l 213 343 l 628 343 l 628 439 l 213 439 l 213 668 l 635 668 l 635 764 l 104 764 l 104 0 z m 449 842 l 243 1042 l 135 1042 l 369 842 z "},"":{"ha":707,"x_min":0,"x_max":0,"o":"m 635 0 l 635 96 l 213 96 l 213 343 l 628 343 l 628 439 l 213 439 l 213 668 l 635 668 l 635 764 l 104 764 l 104 0 z m 619 864 l 619 931 l 115 931 l 115 864 z "},"":{"ha":707,"x_min":0,"x_max":0,"o":"m 663 -146 b 590 -204 650 -183 629 -204 b 529 -135 554 -204 529 -182 b 635 0 529 -76 568 -33 l 635 96 l 213 96 l 213 343 l 628 343 l 628 439 l 213 439 l 213 668 l 635 668 l 635 764 l 104 764 l 104 0 l 540 0 b 467 -137 494 -36 467 -85 b 590 -258 467 -222 525 -258 b 714 -175 657 -258 694 -219 z "},"":{"ha":869,"x_min":0,"x_max":0,"o":"m 474 -17 b 786 117 601 -17 711 36 l 786 399 l 442 399 l 442 307 l 678 307 l 678 158 b 474 78 639 121 567 78 b 178 382 306 78 178 207 b 474 683 178 558 306 683 b 696 583 565 683 646 643 l 781 640 b 474 781 710 722 608 781 b 65 382 244 781 65 619 b 474 -17 65 144 244 -17 z m 718 939 l 667 983 b 475 883 624 921 556 883 b 282 983 393 883 326 922 l 231 939 b 475 817 288 864 376 817 b 718 939 575 817 663 864 z "},"":{"ha":869,"x_min":0,"x_max":0,"o":"m 474 -17 b 786 117 601 -17 711 36 l 786 399 l 442 399 l 442 307 l 678 307 l 678 158 b 474 78 639 121 567 78 b 178 382 306 78 178 207 b 474 683 178 558 306 683 b 696 583 565 683 646 643 l 781 640 b 474 781 710 722 608 781 b 65 382 244 781 65 619 b 474 -17 65 144 244 -17 z m 658 842 l 522 1042 l 422 1042 l 290 842 l 361 842 l 472 989 l 588 842 z "},"":{"ha":869,"x_min":0,"x_max":0,"o":"m 474 -17 b 786 117 601 -17 711 36 l 786 399 l 442 399 l 442 307 l 678 307 l 678 158 b 474 78 639 121 567 78 b 178 382 306 78 178 207 b 474 683 178 558 306 683 b 696 583 565 683 646 643 l 781 640 b 474 781 710 722 608 781 b 65 382 244 781 65 619 b 474 -17 65 144 244 -17 z m 546 -192 b 472 -99 546 -132 511 -99 b 408 -164 436 -99 408 -128 b 467 -225 408 -199 433 -225 b 482 -222 471 -225 481 -224 b 401 -342 478 -262 443 -314 l 447 -378 b 546 -192 501 -337 546 -267 z "},"":{"ha":869,"x_min":0,"x_max":0,"o":"m 474 -17 b 786 117 601 -17 711 36 l 786 399 l 442 399 l 442 307 l 678 307 l 678 158 b 474 78 639 121 567 78 b 178 382 306 78 178 207 b 474 683 178 558 306 683 b 696 583 565 683 646 643 l 781 640 b 474 781 710 722 608 781 b 65 382 244 781 65 619 b 474 -17 65 144 244 -17 z m 476 840 b 540 906 513 840 540 869 b 476 971 540 942 513 971 b 411 906 442 971 411 942 b 476 840 411 869 442 840 z "},"":{"ha":910,"x_min":0,"x_max":0,"o":"m 792 0 l 792 571 l 894 571 l 894 638 l 792 638 l 792 764 l 683 764 l 683 638 l 226 638 l 226 764 l 118 764 l 118 638 l 14 638 l 14 571 l 118 571 l 118 0 l 226 0 l 226 344 l 683 344 l 683 0 z m 226 440 l 226 571 l 683 571 l 683 440 z "},"":{"ha":882,"x_min":0,"x_max":0,"o":"m 624 842 l 488 1042 l 388 1042 l 256 842 l 326 842 l 438 989 l 553 842 z m 778 0 l 778 764 l 669 764 l 669 440 l 213 440 l 213 764 l 104 764 l 104 0 l 213 0 l 213 344 l 669 344 l 669 0 z "},"":{"ha":318,"x_min":0,"x_max":0,"o":"m 393 1042 l 285 1042 l 79 842 l 158 842 z m 213 0 l 213 764 l 104 764 l 104 0 z "},"":{"ha":318,"x_min":0,"x_max":0,"o":"m 213 0 l 213 764 l 104 764 l 104 0 z m 401 939 l 350 983 b 158 883 307 921 239 883 b -35 983 76 883 10 922 l -86 939 b 158 817 -29 864 60 817 b 401 939 258 817 346 864 z "},"":{"ha":318,"x_min":0,"x_max":0,"o":"m 213 0 l 213 764 l 104 764 l 104 0 z m 238 842 l 32 1042 l -76 1042 l 158 842 z "},"":{"ha":318,"x_min":0,"x_max":0,"o":"m 344 842 l 208 1042 l 108 1042 l -24 842 l 47 842 l 158 989 l 274 842 z m 213 0 l 213 764 l 104 764 l 104 0 z "},"":{"ha":318,"x_min":0,"x_max":0,"o":"m 368 908 b 303 972 368 943 338 972 b 238 908 268 972 238 943 b 303 843 238 872 268 843 b 368 908 338 843 368 872 z m 81 908 b 17 972 81 943 51 972 b -49 908 -19 972 -49 943 b 17 843 -49 872 -19 843 b 81 908 51 843 81 872 z m 213 0 l 213 764 l 104 764 l 104 0 z "},"":{"ha":318,"x_min":0,"x_max":0,"o":"m 213 0 l 213 764 l 104 764 l 104 0 z m 158 840 b 222 906 194 840 222 869 b 158 971 222 942 194 971 b 93 906 124 971 93 942 b 158 840 93 869 124 840 z "},"":{"ha":318,"x_min":0,"x_max":0,"o":"m 413 864 l 413 931 l -92 931 l -92 864 z m 213 0 l 213 764 l 104 764 l 104 0 z "},"":{"ha":318,"x_min":0,"x_max":0,"o":"m 213 0 l 213 764 l 104 764 l 104 0 l 118 0 b 44 -137 72 -36 44 -85 b 168 -258 44 -222 103 -258 b 292 -175 235 -258 272 -219 l 240 -146 b 168 -204 228 -183 207 -204 b 107 -135 132 -204 107 -182 b 213 0 107 -76 146 -33 z "},"":{"ha":318,"x_min":0,"x_max":0,"o":"m 213 0 l 213 764 l 104 764 l 104 0 z m 243 839 b 378 1025 331 839 378 917 l 315 1025 b 249 906 315 942 286 906 b 78 1033 182 906 178 1033 b -57 847 -10 1033 -57 956 l 6 847 b 72 967 6 931 35 967 b 243 839 139 967 142 839 z "},"":{"ha":903,"x_min":0,"x_max":0,"o":"m 536 -17 b 799 228 686 -17 799 61 l 799 764 l 690 764 l 690 236 b 531 79 690 143 628 79 b 382 157 464 79 415 114 l 329 78 b 536 -17 382 14 453 -17 z m 213 0 l 213 764 l 104 764 l 104 0 z "},"":{"ha":586,"x_min":0,"x_max":0,"o":"m 610 842 l 474 1042 l 374 1042 l 242 842 l 313 842 l 424 989 l 539 842 z m 218 -17 b 481 228 368 -17 481 61 l 481 764 l 372 764 l 372 236 b 213 79 372 143 310 79 b 64 157 146 79 97 114 l 11 78 b 218 -17 64 14 135 -17 z "},"":{"ha":742,"x_min":0,"x_max":0,"o":"m 449 -192 b 375 -99 449 -132 414 -99 b 311 -164 339 -99 311 -128 b 369 -225 311 -199 336 -225 b 385 -222 374 -225 383 -224 b 304 -342 381 -262 346 -314 l 350 -378 b 449 -192 404 -337 449 -267 z m 722 0 l 357 401 l 693 764 l 558 764 l 213 382 l 213 764 l 104 764 l 104 0 l 213 0 l 213 257 l 288 338 l 588 0 z "},"":{"ha":636,"x_min":0,"x_max":0,"o":"m 583 0 l 583 96 l 213 96 l 213 764 l 104 764 l 104 0 z m 579 1042 l 471 1042 l 265 842 l 344 842 z "},"":{"ha":636,"x_min":0,"x_max":0,"o":"m 463 685 b 389 778 463 744 428 778 b 325 713 353 778 325 749 b 383 651 325 678 350 651 b 399 654 388 651 397 653 b 318 535 394 614 360 563 l 364 499 b 463 685 418 539 463 610 z m 583 0 l 583 96 l 213 96 l 213 764 l 104 764 l 104 0 z "},"":{"ha":636,"x_min":0,"x_max":0,"o":"m 415 -192 b 342 -99 415 -132 381 -99 b 278 -164 306 -99 278 -128 b 336 -225 278 -199 303 -225 b 351 -222 340 -225 350 -224 b 271 -342 347 -262 313 -314 l 317 -378 b 415 -192 371 -337 415 -267 z m 583 0 l 583 96 l 213 96 l 213 764 l 104 764 l 104 0 z "},"":{"ha":656,"x_min":0,"x_max":0,"o":"m 583 0 l 583 96 l 213 96 l 213 764 l 104 764 l 104 0 z m 569 407 b 493 483 569 449 535 483 b 417 407 451 483 417 449 b 493 332 417 367 451 332 b 569 407 535 332 569 367 z "},"":{"ha":668,"x_min":0,"x_max":0,"o":"m 14 238 l 136 308 l 136 0 l 615 0 l 615 96 l 244 96 l 244 371 l 376 447 l 376 547 l 244 471 l 244 764 l 136 764 l 136 408 l 14 338 z "},"":{"ha":878,"x_min":0,"x_max":0,"o":"m 674 1042 l 565 1042 l 360 842 l 439 842 z m 774 0 l 774 764 l 664 764 l 664 181 l 218 764 l 104 764 l 104 0 l 213 0 l 213 594 l 664 0 z "},"":{"ha":878,"x_min":0,"x_max":0,"o":"m 490 842 l 622 1042 l 551 1042 l 440 894 l 325 1042 l 254 1042 l 390 842 z m 774 0 l 774 764 l 664 764 l 664 181 l 218 764 l 104 764 l 104 0 l 213 0 l 213 594 l 664 0 z "},"":{"ha":878,"x_min":0,"x_max":0,"o":"m 508 -192 b 435 -99 508 -132 474 -99 b 371 -164 399 -99 371 -128 b 429 -225 371 -199 396 -225 b 444 -222 433 -225 443 -224 b 364 -342 440 -262 406 -314 l 410 -378 b 508 -192 464 -337 508 -267 z m 774 0 l 774 764 l 664 764 l 664 181 l 218 764 l 104 764 l 104 0 l 213 0 l 213 594 l 664 0 z "},"":{"ha":878,"x_min":0,"x_max":0,"o":"m 774 0 l 774 764 l 664 764 l 664 181 l 218 764 l 104 764 l 104 0 l 213 0 l 213 594 l 664 0 z m 521 839 b 656 1025 608 839 656 917 l 593 1025 b 526 906 593 942 564 906 b 356 1033 460 906 456 1033 b 221 847 268 1033 221 956 l 283 847 b 350 967 283 931 313 967 b 521 839 417 967 419 839 z "},"":{"ha":878,"x_min":0,"x_max":0,"o":"m 511 -272 b 774 -28 660 -272 774 -194 l 774 764 l 664 764 l 664 181 l 218 764 l 104 764 l 104 0 l 213 0 l 213 594 l 664 0 l 664 -19 b 504 -176 664 -112 603 -176 b 356 -99 438 -176 389 -142 l 304 -178 b 511 -272 357 -242 428 -272 z "},"":{"ha":919,"x_min":0,"x_max":0,"o":"m 460 -17 b 854 382 696 -17 854 157 b 460 781 854 607 696 781 b 65 382 221 781 65 607 b 460 -17 65 157 221 -17 z m 460 79 b 176 382 286 79 176 210 b 460 685 176 556 286 685 b 743 382 631 685 743 556 b 460 79 743 210 631 79 z m 694 1042 l 586 1042 l 381 842 l 460 842 z "},"":{"ha":919,"x_min":0,"x_max":0,"o":"m 460 -17 b 854 382 696 -17 854 157 b 460 781 854 607 696 781 b 65 382 221 781 65 607 b 460 -17 65 157 221 -17 z m 460 79 b 176 382 286 79 176 210 b 460 685 176 556 286 685 b 743 382 631 685 743 556 b 460 79 743 210 631 79 z m 706 939 l 654 983 b 463 883 611 921 543 883 b 269 983 381 883 314 922 l 218 939 b 463 817 275 864 364 817 b 706 939 563 817 650 864 z "},"":{"ha":919,"x_min":0,"x_max":0,"o":"m 460 -17 b 854 382 696 -17 854 157 b 460 781 854 607 696 781 b 65 382 221 781 65 607 b 460 -17 65 157 221 -17 z m 460 79 b 176 382 286 79 176 210 b 460 685 176 556 286 685 b 743 382 631 685 743 556 b 460 79 743 210 631 79 z m 646 842 l 510 1042 l 410 1042 l 278 842 l 349 842 l 460 989 l 575 842 z "},"":{"ha":919,"x_min":0,"x_max":0,"o":"m 460 -17 b 854 382 696 -17 854 157 b 460 781 854 607 696 781 b 65 382 221 781 65 607 b 460 -17 65 157 221 -17 z m 460 79 b 176 382 286 79 176 210 b 460 685 176 556 286 685 b 743 382 631 685 743 556 b 460 79 743 210 631 79 z m 669 908 b 604 972 669 943 639 972 b 539 908 569 972 539 943 b 604 843 539 872 569 843 b 669 908 639 843 669 872 z m 382 908 b 318 972 382 943 353 972 b 253 908 282 972 253 943 b 318 843 253 872 282 843 b 382 908 353 843 382 872 z "},"":{"ha":919,"x_min":0,"x_max":0,"o":"m 460 -17 b 854 382 696 -17 854 157 b 460 781 854 607 696 781 b 65 382 221 781 65 607 b 460 -17 65 157 221 -17 z m 460 79 b 176 382 286 79 176 210 b 460 685 176 556 286 685 b 743 382 631 685 743 556 b 460 79 743 210 631 79 z m 539 842 l 333 1042 l 225 1042 l 460 842 z "},"":{"ha":919,"x_min":0,"x_max":0,"o":"m 460 -17 b 854 382 696 -17 854 157 b 460 781 854 607 696 781 b 65 382 221 781 65 607 b 460 -17 65 157 221 -17 z m 460 79 b 176 382 286 79 176 210 b 460 685 176 556 286 685 b 743 382 631 685 743 556 b 460 79 743 210 631 79 z m 538 1042 l 442 1042 l 311 842 l 378 842 z m 735 1042 l 639 1042 l 508 842 l 575 842 z "},"":{"ha":919,"x_min":0,"x_max":0,"o":"m 460 -17 b 854 382 696 -17 854 157 b 460 781 854 607 696 781 b 65 382 221 781 65 607 b 460 -17 65 157 221 -17 z m 460 79 b 176 382 286 79 176 210 b 460 685 176 556 286 685 b 743 382 631 685 743 556 b 460 79 743 210 631 79 z m 713 864 l 713 931 l 208 931 l 208 864 z "},"":{"ha":919,"x_min":0,"x_max":0,"o":"m 460 -17 b 854 382 696 -17 854 157 b 460 781 854 607 696 781 b 65 382 221 781 65 607 b 460 -17 65 157 221 -17 z m 460 79 b 176 382 286 79 176 210 b 460 685 176 556 286 685 b 743 382 631 685 743 556 b 460 79 743 210 631 79 z m 544 839 b 679 1025 632 839 679 917 l 617 1025 b 550 906 617 942 588 906 b 379 1033 483 906 479 1033 b 244 847 292 1033 244 956 l 307 847 b 374 967 307 931 336 967 b 544 839 440 967 443 839 z "},"":{"ha":919,"x_min":0,"x_max":0,"o":"m 460 -17 b 854 382 696 -17 854 157 b 725 683 854 504 807 611 l 785 764 l 692 764 l 665 728 b 460 781 607 761 538 781 b 65 382 221 781 65 607 b 189 82 65 260 110 154 l 129 0 l 222 0 l 250 38 b 460 -17 308 3 379 -17 z m 460 79 b 310 118 401 79 351 93 l 664 600 b 743 382 714 546 743 469 b 460 79 743 210 631 79 z m 176 382 b 460 685 176 556 286 685 b 606 647 514 685 564 671 l 251 167 b 176 382 203 221 176 296 z "},"":{"ha":919,"x_min":0,"x_max":0,"o":"m 460 -17 b 854 382 696 -17 854 157 b 725 683 854 504 807 611 l 785 764 l 692 764 l 665 728 b 460 781 607 761 538 781 b 65 382 221 781 65 607 b 189 82 65 260 110 154 l 129 0 l 222 0 l 250 38 b 460 -17 308 3 379 -17 z m 460 79 b 310 118 401 79 351 93 l 664 600 b 743 382 714 546 743 469 b 460 79 743 210 631 79 z m 176 382 b 460 685 176 556 286 685 b 606 647 514 685 564 671 l 251 167 b 176 382 203 221 176 296 z m 694 1042 l 586 1042 l 381 842 l 460 842 z "},"":{"ha":1324,"x_min":0,"x_max":0,"o":"m 1251 0 l 1251 96 l 829 96 l 829 343 l 1243 343 l 1243 439 l 829 439 l 829 668 l 1251 668 l 1251 764 l 721 764 l 721 626 b 444 781 661 731 563 781 b 65 382 215 781 65 607 b 444 -17 65 156 215 -17 b 721 138 563 -17 661 33 l 721 0 z m 721 269 b 461 79 676 136 575 79 b 176 382 286 79 176 210 b 461 685 176 556 286 685 b 721 497 571 685 676 629 z "},"":{"ha":757,"x_min":0,"x_max":0,"o":"m 622 1042 l 514 1042 l 308 842 l 388 842 z m 694 0 l 478 304 b 683 531 597 314 683 399 b 432 764 683 661 593 764 l 104 764 l 104 0 l 213 0 l 213 296 l 367 296 l 567 0 z m 422 392 l 213 392 l 213 668 l 422 668 b 572 531 518 668 572 611 b 422 392 572 450 522 392 z "},"":{"ha":757,"x_min":0,"x_max":0,"o":"m 419 842 l 551 1042 l 481 1042 l 369 894 l 254 1042 l 183 1042 l 319 842 z m 694 0 l 478 304 b 683 531 597 314 683 399 b 432 764 683 661 593 764 l 104 764 l 104 0 l 213 0 l 213 296 l 367 296 l 567 0 z m 422 392 l 213 392 l 213 668 l 422 668 b 572 531 518 668 572 611 b 422 392 572 450 522 392 z "},"":{"ha":757,"x_min":0,"x_max":0,"o":"m 447 -192 b 374 -99 447 -132 413 -99 b 310 -164 338 -99 310 -128 b 368 -225 310 -199 335 -225 b 383 -222 372 -225 382 -224 b 303 -342 379 -262 344 -314 l 349 -378 b 447 -192 403 -337 447 -267 z m 694 0 l 478 304 b 683 531 597 314 683 399 b 432 764 683 661 593 764 l 104 764 l 104 0 l 213 0 l 213 296 l 367 296 l 567 0 z m 422 392 l 213 392 l 213 668 l 422 668 b 572 531 518 668 572 611 b 422 392 572 450 522 392 z "},"":{"ha":700,"x_min":0,"x_max":0,"o":"m 582 1042 l 474 1042 l 268 842 l 347 842 z m 350 -17 b 650 213 554 -17 650 83 b 181 565 650 501 181 400 b 344 686 181 636 250 686 b 575 594 429 686 517 657 l 632 671 b 346 781 565 739 469 781 b 69 563 189 781 69 690 b 539 208 69 286 539 401 b 351 76 539 140 486 76 b 103 185 244 76 154 129 l 44 103 b 350 -17 107 33 214 -17 z "},"":{"ha":700,"x_min":0,"x_max":0,"o":"m 404 842 l 536 1042 l 465 1042 l 354 894 l 239 1042 l 168 1042 l 304 842 z m 350 -17 b 650 213 554 -17 650 83 b 181 565 650 501 181 400 b 344 686 181 636 250 686 b 575 594 429 686 517 657 l 632 671 b 346 781 565 739 469 781 b 69 563 189 781 69 690 b 539 208 69 286 539 401 b 351 76 539 140 486 76 b 103 185 244 76 154 129 l 44 103 b 350 -17 107 33 214 -17 z "},"":{"ha":700,"x_min":0,"x_max":0,"o":"m 536 842 l 400 1042 l 300 1042 l 168 842 l 239 842 l 350 989 l 465 842 z m 350 -17 b 650 213 554 -17 650 83 b 181 565 650 501 181 400 b 344 686 181 636 250 686 b 575 594 429 686 517 657 l 632 671 b 346 781 565 739 469 781 b 69 563 189 781 69 690 b 539 208 69 286 539 401 b 351 76 539 140 486 76 b 103 185 244 76 154 129 l 44 103 b 350 -17 107 33 214 -17 z "},"":{"ha":700,"x_min":0,"x_max":0,"o":"m 346 -265 b 490 -154 425 -265 490 -222 b 399 -61 490 -97 451 -61 b 347 -76 381 -61 361 -67 l 371 -17 b 650 213 560 -10 650 88 b 181 565 650 501 181 400 b 344 686 181 636 250 686 b 575 594 429 686 517 657 l 632 671 b 346 781 565 739 469 781 b 69 563 189 781 69 690 b 539 208 69 286 539 401 b 351 76 539 140 486 76 b 103 185 244 76 154 129 l 44 103 b 310 -15 100 40 192 -6 l 278 -101 l 324 -128 b 376 -104 336 -114 357 -104 b 428 -153 411 -104 428 -124 b 343 -211 428 -190 388 -211 b 232 -171 306 -211 265 -199 l 206 -224 b 346 -265 233 -246 286 -265 z "},"":{"ha":700,"x_min":0,"x_max":0,"o":"m 428 -192 b 354 -99 428 -132 393 -99 b 290 -164 318 -99 290 -128 b 349 -225 290 -199 315 -225 b 364 -222 353 -225 363 -224 b 283 -342 360 -262 325 -314 l 329 -378 b 428 -192 383 -337 428 -267 z m 350 -17 b 650 213 554 -17 650 83 b 181 565 650 501 181 400 b 344 686 181 636 250 686 b 575 594 429 686 517 657 l 632 671 b 346 781 565 739 469 781 b 69 563 189 781 69 690 b 539 208 69 286 539 401 b 351 76 539 140 486 76 b 103 185 244 76 154 129 l 44 103 b 350 -17 107 33 214 -17 z "},"":{"ha":656,"x_min":0,"x_max":0,"o":"m 381 0 l 381 335 l 544 335 l 544 401 l 381 401 l 381 668 l 618 668 l 618 764 l 36 764 l 36 668 l 272 668 l 272 401 l 111 401 l 111 335 l 272 335 l 272 0 z "},"":{"ha":656,"x_min":0,"x_max":0,"o":"m 381 842 l 513 1042 l 442 1042 l 331 894 l 215 1042 l 144 1042 l 281 842 z m 381 0 l 381 668 l 618 668 l 618 764 l 36 764 l 36 668 l 272 668 l 272 0 z "},"":{"ha":656,"x_min":0,"x_max":0,"o":"m 400 -192 b 326 -99 400 -132 365 -99 b 263 -164 290 -99 263 -128 b 321 -225 263 -199 288 -225 b 336 -222 325 -225 335 -224 b 256 -342 332 -262 297 -314 l 301 -378 b 400 -192 356 -337 400 -267 z m 381 0 l 381 668 l 618 668 l 618 764 l 36 764 l 36 668 l 272 668 l 272 0 z "},"":{"ha":865,"x_min":0,"x_max":0,"o":"m 667 1042 l 558 1042 l 353 842 l 432 842 z m 432 -17 b 761 294 650 -17 761 106 l 761 764 l 651 764 l 651 301 b 432 79 651 165 574 79 b 214 301 290 79 214 165 l 214 764 l 104 764 l 104 294 b 432 -17 104 107 214 -17 z "},"":{"ha":865,"x_min":0,"x_max":0,"o":"m 432 -17 b 761 294 650 -17 761 106 l 761 764 l 651 764 l 651 301 b 432 79 651 165 574 79 b 214 301 290 79 214 165 l 214 764 l 104 764 l 104 294 b 432 -17 104 107 214 -17 z m 675 939 l 624 983 b 432 883 581 921 513 883 b 239 983 350 883 283 922 l 188 939 b 432 817 244 864 333 817 b 675 939 532 817 619 864 z "},"":{"ha":865,"x_min":0,"x_max":0,"o":"m 617 842 l 481 1042 l 381 1042 l 249 842 l 319 842 l 431 989 l 546 842 z m 432 -17 b 761 294 650 -17 761 106 l 761 764 l 651 764 l 651 301 b 432 79 651 165 574 79 b 214 301 290 79 214 165 l 214 764 l 104 764 l 104 294 b 432 -17 104 107 214 -17 z "},"":{"ha":865,"x_min":0,"x_max":0,"o":"m 642 908 b 576 972 642 943 611 972 b 511 908 542 972 511 943 b 576 843 511 872 542 843 b 642 908 611 843 642 872 z m 354 908 b 290 972 354 943 325 972 b 225 908 254 972 225 943 b 290 843 225 872 254 843 b 354 908 325 843 354 872 z m 432 -17 b 761 294 650 -17 761 106 l 761 764 l 651 764 l 651 301 b 432 79 651 165 574 79 b 214 301 290 79 214 165 l 214 764 l 104 764 l 104 294 b 432 -17 104 107 214 -17 z "},"":{"ha":865,"x_min":0,"x_max":0,"o":"m 432 -17 b 761 294 650 -17 761 106 l 761 764 l 651 764 l 651 301 b 432 79 651 165 574 79 b 214 301 290 79 214 165 l 214 764 l 104 764 l 104 294 b 432 -17 104 107 214 -17 z m 511 842 l 306 1042 l 197 1042 l 432 842 z "},"":{"ha":865,"x_min":0,"x_max":0,"o":"m 432 -17 b 761 294 650 -17 761 106 l 761 764 l 651 764 l 651 301 b 432 79 651 165 574 79 b 214 301 290 79 214 165 l 214 764 l 104 764 l 104 294 b 432 -17 104 107 214 -17 z m 507 1042 l 411 1042 l 281 842 l 347 842 z m 704 1042 l 608 1042 l 478 842 l 544 842 z "},"":{"ha":865,"x_min":0,"x_max":0,"o":"m 432 -17 b 761 294 650 -17 761 106 l 761 764 l 651 764 l 651 301 b 432 79 651 165 574 79 b 214 301 290 79 214 165 l 214 764 l 104 764 l 104 294 b 432 -17 104 107 214 -17 z m 686 864 l 686 931 l 182 931 l 182 864 z "},"":{"ha":865,"x_min":0,"x_max":0,"o":"m 432 -17 l 444 -17 b 390 -137 411 -50 390 -92 b 514 -258 390 -222 449 -258 b 638 -175 581 -258 618 -219 l 586 -146 b 514 -204 574 -183 553 -204 b 453 -135 478 -204 453 -182 b 558 0 453 -76 492 -33 b 761 294 693 39 761 146 l 761 764 l 651 764 l 651 301 b 432 79 651 165 574 79 b 214 301 290 79 214 165 l 214 764 l 104 764 l 104 294 b 432 -17 104 107 214 -17 z "},"":{"ha":865,"x_min":0,"x_max":0,"o":"m 432 -17 b 761 294 650 -17 761 106 l 761 764 l 651 764 l 651 301 b 432 79 651 165 574 79 b 214 301 290 79 214 165 l 214 764 l 104 764 l 104 294 b 432 -17 104 107 214 -17 z m 435 796 b 571 932 510 796 571 857 b 435 1069 571 1007 510 1069 b 299 932 360 1069 299 1007 b 435 796 299 857 360 796 z m 435 850 b 354 932 390 850 354 888 b 435 1014 354 978 390 1014 b 515 932 481 1014 515 978 b 435 850 515 888 481 850 z "},"":{"ha":865,"x_min":0,"x_max":0,"o":"m 432 -17 b 761 294 650 -17 761 106 l 761 764 l 651 764 l 651 301 b 432 79 651 165 574 79 b 214 301 290 79 214 165 l 214 764 l 104 764 l 104 294 b 432 -17 104 107 214 -17 z m 515 839 b 650 1025 603 839 650 917 l 588 1025 b 521 906 588 942 558 906 b 350 1033 454 906 450 1033 b 215 847 263 1033 215 956 l 278 847 b 344 967 278 931 307 967 b 515 839 411 967 414 839 z "},"":{"ha":1061,"x_min":0,"x_max":0,"o":"m 714 842 l 578 1042 l 478 1042 l 346 842 l 417 842 l 528 989 l 643 842 z m 817 0 l 1046 764 l 926 764 l 754 147 l 576 764 l 485 764 l 306 149 l 135 764 l 14 764 l 243 0 l 357 0 l 529 599 l 703 0 z "},"":{"ha":760,"x_min":0,"x_max":0,"o":"m 617 1042 l 508 1042 l 303 842 l 382 842 z m 436 0 l 436 324 l 750 764 l 624 764 l 382 417 l 136 764 l 10 764 l 328 324 l 328 0 z "},"":{"ha":760,"x_min":0,"x_max":0,"o":"m 567 842 l 431 1042 l 331 1042 l 199 842 l 269 842 l 381 989 l 496 842 z m 436 0 l 436 324 l 750 764 l 624 764 l 382 417 l 136 764 l 10 764 l 328 324 l 328 0 z "},"":{"ha":760,"x_min":0,"x_max":0,"o":"m 592 908 b 526 972 592 943 561 972 b 461 908 492 972 461 943 b 526 843 461 872 492 843 b 592 908 561 843 592 872 z m 304 908 b 240 972 304 943 275 972 b 175 908 204 972 175 943 b 240 843 175 872 204 843 b 304 908 275 843 304 872 z m 436 0 l 436 324 l 750 764 l 624 764 l 382 417 l 136 764 l 10 764 l 328 324 l 328 0 z "},"":{"ha":717,"x_min":0,"x_max":0,"o":"m 593 1042 l 485 1042 l 279 842 l 358 842 z m 663 0 l 663 96 l 201 96 l 653 682 l 653 764 l 54 764 l 54 668 l 507 668 l 54 82 l 54 0 z "},"":{"ha":717,"x_min":0,"x_max":0,"o":"m 408 842 l 540 1042 l 469 1042 l 358 894 l 243 1042 l 172 1042 l 308 842 z m 663 0 l 663 96 l 201 96 l 653 682 l 653 764 l 54 764 l 54 668 l 507 668 l 54 82 l 54 0 z "},"":{"ha":717,"x_min":0,"x_max":0,"o":"m 663 0 l 663 96 l 201 96 l 653 682 l 653 764 l 54 764 l 54 668 l 507 668 l 54 82 l 54 0 z m 361 840 b 425 906 397 840 425 869 b 361 971 425 942 397 971 b 296 906 326 971 296 942 b 361 840 296 869 326 840 z "},"":{"ha":869,"x_min":0,"x_max":0,"o":"m 379 0 b 786 381 629 0 786 164 b 378 764 786 597 629 764 l 101 764 l 101 422 l 14 422 l 14 349 l 101 349 l 101 0 z m 396 349 l 396 422 l 210 422 l 210 668 l 379 668 b 674 381 572 668 674 539 b 378 96 674 222 569 96 l 210 96 l 210 349 z "},"":{"ha":725,"x_min":0,"x_max":0,"o":"m 213 0 l 213 168 l 432 168 b 683 401 600 168 683 276 b 432 636 683 526 597 636 l 213 636 l 213 764 l 104 764 l 104 0 z m 422 264 l 213 264 l 213 540 l 422 540 b 571 401 522 540 571 481 b 422 264 571 322 522 264 z "},"´":{"ha":314,"x_min":0,"x_max":0,"o":"m 314 972 l 206 972 l 0 772 l 79 772 z "},"¨":{"ha":378,"x_min":0,"x_max":0,"o":"m 397 839 b 332 903 397 874 367 903 b 267 839 297 903 267 874 b 332 774 267 803 297 774 b 397 839 367 774 397 803 z m 110 839 b 46 903 110 874 81 903 b -19 839 10 903 -19 874 b 46 774 -19 803 10 774 b 110 839 81 774 110 803 z "},"`":{"ha":314,"x_min":0,"x_max":0,"o":"m 314 772 l 108 972 l 0 972 l 235 772 z "},"ˋ":{"ha":314,"x_min":0,"x_max":0,"o":"m 314 772 l 108 972 l 0 972 l 235 772 z "},"ˆ":{"ha":368,"x_min":0,"x_max":0,"o":"m 368 772 l 232 972 l 132 972 l 0 772 l 71 772 l 182 919 l 297 772 z "},"˜":{"ha":435,"x_min":0,"x_max":0,"o":"m 300 769 b 435 956 388 769 435 847 l 372 956 b 306 836 372 872 343 836 b 135 964 239 836 235 964 b 0 778 47 964 0 886 l 63 778 b 129 897 63 861 92 897 b 300 769 196 897 199 769 z "},"¯":{"ha":504,"x_min":0,"x_max":0,"o":"m 504 794 l 504 861 l 0 861 l 0 794 z "},"‾":{"ha":504,"x_min":0,"x_max":0,"o":"m 504 794 l 504 861 l 0 861 l 0 794 z "},"˘":{"ha":488,"x_min":0,"x_max":0,"o":"m 488 869 l 436 914 b 244 814 393 851 325 814 b 51 914 163 814 96 853 l 0 869 b 244 747 57 794 146 747 b 488 869 344 747 432 794 z "},"˙":{"ha":154,"x_min":0,"x_max":0,"o":"m 78 771 b 142 836 114 771 142 800 b 78 901 142 872 114 901 b 13 836 43 901 13 872 b 78 771 13 800 43 771 z "},"˚":{"ha":272,"x_min":0,"x_max":0,"o":"m 136 754 b 272 890 211 754 272 815 b 136 1028 272 965 211 1028 b 0 890 61 1028 0 965 b 136 754 0 815 61 754 z m 136 808 b 56 890 92 808 56 846 b 136 972 56 936 92 972 b 217 890 182 972 217 936 b 136 808 217 846 182 808 z "},"¸":{"ha":285,"x_min":0,"x_max":0,"o":"m 140 -265 b 285 -154 219 -265 285 -222 b 193 -61 285 -97 246 -61 b 142 -76 175 -61 156 -67 l 178 15 l 115 15 l 72 -101 l 118 -128 b 171 -104 131 -114 151 -104 b 222 -153 206 -104 222 -124 b 138 -211 222 -190 182 -211 b 26 -171 100 -211 60 -199 l 0 -224 b 140 -265 28 -246 81 -265 z "},"˝":{"ha":424,"x_min":0,"x_max":0,"o":"m 226 972 l 131 972 l 0 772 l 67 772 z m 424 972 l 328 972 l 197 772 l 264 772 z "},"˛":{"ha":247,"x_min":0,"x_max":0,"o":"m 196 -146 b 124 -204 183 -183 163 -204 b 63 -135 88 -204 63 -182 b 168 0 63 -76 101 -33 l 122 32 b 0 -137 50 -6 0 -68 b 124 -258 0 -222 58 -258 b 247 -175 190 -258 228 -219 z "},"ˇ":{"ha":368,"x_min":0,"x_max":0,"o":"m 236 772 l 368 972 l 297 972 l 186 825 l 71 972 l 0 972 l 136 772 z "},"":{"ha":319,"x_min":0,"x_max":0,"o":"m 232 -192 b 158 -99 232 -132 197 -99 b 94 -164 122 -99 94 -128 b 153 -225 94 -199 119 -225 b 168 -222 157 -225 167 -224 b 88 -342 164 -262 129 -314 l 133 -378 b 232 -192 188 -337 232 -267 z "},"ˉ":{"ha":504,"x_min":0,"x_max":0,"o":"m 504 821 l 504 888 l 0 888 l 0 821 z "},"̉":{"ha":247,"x_min":0,"x_max":0,"o":"m 67 1008 b 122 1053 76 1036 94 1053 b 172 999 153 1053 172 1035 b 140 926 172 975 164 950 l 196 926 b 222 1001 214 951 222 971 b 122 1097 222 1068 175 1097 b 21 1021 69 1097 35 1064 z "},"Α":{"ha":914,"x_min":0,"x_max":0,"o":"m 901 0 l 528 926 l 385 926 l 13 0 l 144 0 l 226 206 l 688 206 l 769 0 z m 653 308 l 260 308 l 457 807 z "},"Β":{"ha":874,"x_min":0,"x_max":0,"o":"m 531 0 b 799 250 700 0 799 101 b 618 478 799 361 717 463 b 781 690 703 496 781 574 b 521 926 781 829 682 926 l 108 926 l 108 0 z m 501 525 l 224 525 l 224 824 l 501 824 b 661 674 606 824 661 757 b 501 525 661 589 606 525 z m 507 103 l 224 103 l 224 422 l 507 422 b 679 263 621 422 679 347 b 507 103 679 164 615 103 z "},"Γ":{"ha":764,"x_min":0,"x_max":0,"o":"m 224 0 l 224 824 l 715 824 l 715 926 l 108 926 l 108 0 z "},"Δ":{"ha":914,"x_min":0,"x_max":0,"o":"m 901 0 l 528 926 l 385 926 l 13 0 z m 736 103 l 178 103 l 457 807 z "},"∆":{"ha":914,"x_min":0,"x_max":0,"o":"m 901 0 l 528 926 l 385 926 l 13 0 z m 736 103 l 178 103 l 457 807 z "},"Ε":{"ha":790,"x_min":0,"x_max":0,"o":"m 715 0 l 715 103 l 224 103 l 224 422 l 706 422 l 706 525 l 224 525 l 224 824 l 715 824 l 715 926 l 108 926 l 108 0 z "},"Ζ":{"ha":813,"x_min":0,"x_max":0,"o":"m 744 0 l 744 103 l 214 103 l 735 831 l 735 926 l 67 926 l 67 824 l 588 824 l 67 96 l 67 0 z "},"Η":{"ha":989,"x_min":0,"x_max":0,"o":"m 881 0 l 881 926 l 765 926 l 765 528 l 224 528 l 224 926 l 108 926 l 108 0 l 224 0 l 224 425 l 765 425 l 765 0 z "},"Θ":{"ha":1063,"x_min":0,"x_max":0,"o":"m 790 422 l 790 525 l 272 525 l 272 422 z m 531 -17 b 990 463 804 -17 990 189 b 531 942 990 736 804 942 b 71 463 256 942 71 736 b 531 -17 71 189 256 -17 z m 531 86 b 190 463 322 86 190 247 b 531 839 190 679 322 839 b 871 463 738 839 871 679 b 531 86 871 247 738 86 z "},"Ι":{"ha":332,"x_min":0,"x_max":0,"o":"m 224 0 l 224 926 l 108 926 l 108 0 z "},"Κ":{"ha":835,"x_min":0,"x_max":0,"o":"m 811 0 l 392 486 l 778 926 l 633 926 l 224 447 l 224 926 l 108 926 l 108 0 l 224 0 l 224 311 l 317 417 l 668 0 z "},"Λ":{"ha":914,"x_min":0,"x_max":0,"o":"m 901 0 l 528 926 l 385 926 l 13 0 l 144 0 l 457 807 l 769 0 z "},"Μ":{"ha":1124,"x_min":0,"x_max":0,"o":"m 1015 0 l 1015 926 l 850 926 l 561 229 l 274 926 l 108 926 l 108 0 l 224 0 l 224 763 l 538 0 l 585 0 l 900 763 l 900 0 z "},"Ν":{"ha":983,"x_min":0,"x_max":0,"o":"m 875 0 l 875 926 l 760 926 l 760 203 l 226 926 l 108 926 l 108 0 l 224 0 l 224 739 l 764 0 z "},"Ξ":{"ha":854,"x_min":0,"x_max":0,"o":"m 778 824 l 778 926 l 76 926 l 76 824 z m 778 0 l 778 103 l 75 103 l 75 0 z m 769 422 l 769 525 l 86 525 l 86 422 z "},"Ο":{"ha":1063,"x_min":0,"x_max":0,"o":"m 531 -17 b 990 463 804 -17 990 189 b 531 942 990 736 804 942 b 71 463 256 942 71 736 b 531 -17 71 189 256 -17 z m 531 86 b 190 463 322 86 190 247 b 531 839 190 679 322 839 b 871 463 738 839 871 679 b 531 86 871 247 738 86 z "},"Π":{"ha":989,"x_min":0,"x_max":0,"o":"m 881 0 l 881 926 l 108 926 l 108 0 l 224 0 l 224 824 l 765 824 l 765 0 z "},"Ρ":{"ha":815,"x_min":0,"x_max":0,"o":"m 224 0 l 224 368 l 481 368 b 771 647 664 368 771 496 b 481 926 771 799 667 926 l 108 926 l 108 0 z m 467 471 l 224 471 l 224 824 l 467 824 b 651 647 576 824 651 751 b 467 471 651 543 576 471 z "},"Σ":{"ha":799,"x_min":0,"x_max":0,"o":"m 218 824 l 724 824 l 724 926 l 76 926 l 76 824 l 396 475 l 75 103 l 75 0 l 724 0 l 724 103 l 214 103 l 536 476 z "},"Τ":{"ha":792,"x_min":0,"x_max":0,"o":"m 453 0 l 453 824 l 747 824 l 747 926 l 44 926 l 44 824 l 338 824 l 338 0 z "},"Υ":{"ha":869,"x_min":0,"x_max":0,"o":"m 493 0 l 493 392 l 857 926 l 722 926 l 435 496 l 147 926 l 13 926 l 378 392 l 378 0 z "},"Φ":{"ha":1119,"x_min":0,"x_max":0,"o":"m 617 0 l 617 90 b 1049 463 883 108 1049 253 b 617 833 1049 669 883 815 l 617 926 l 501 926 l 501 833 b 71 463 233 815 71 669 b 501 90 71 253 233 108 l 501 0 z m 929 463 b 617 194 929 315 813 211 l 617 731 b 929 463 813 714 929 610 z m 190 463 b 501 731 190 610 304 714 l 501 194 b 190 463 304 211 190 315 z "},"Χ":{"ha":906,"x_min":0,"x_max":0,"o":"m 888 0 l 528 476 l 867 926 l 726 926 l 453 556 l 178 926 l 38 926 l 378 475 l 17 0 l 157 0 l 453 394 l 749 0 z "},"Ψ":{"ha":1106,"x_min":0,"x_max":0,"o":"m 611 0 l 611 174 b 997 550 868 193 997 335 l 997 926 l 881 926 l 881 551 b 611 278 881 394 788 294 l 611 926 l 496 926 l 496 276 b 224 551 318 294 224 393 l 224 926 l 108 926 l 108 549 b 496 174 108 336 238 192 l 496 0 z "},"Ω":{"ha":1063,"x_min":0,"x_max":0,"o":"m 96 103 l 96 0 l 429 0 l 429 103 b 190 464 308 133 190 260 b 531 838 190 668 310 838 b 871 464 751 838 871 668 b 633 103 871 260 754 133 l 633 0 l 967 0 l 967 103 l 781 103 b 990 483 901 176 990 301 b 531 942 990 750 806 942 b 71 483 257 942 71 750 b 283 103 71 301 161 176 z "},"Ω":{"ha":1063,"x_min":0,"x_max":0,"o":"m 96 103 l 96 0 l 429 0 l 429 103 b 190 464 308 133 190 260 b 531 838 190 668 310 838 b 871 464 751 838 871 668 b 633 103 871 260 754 133 l 633 0 l 967 0 l 967 103 l 781 103 b 990 483 901 176 990 301 b 531 942 990 750 806 942 b 71 483 257 942 71 750 b 283 103 71 301 161 176 z "},"α":{"ha":818,"x_min":0,"x_max":0,"o":"m 786 79 b 758 76 779 78 768 76 b 694 157 717 76 694 108 l 694 671 l 589 671 l 589 569 b 364 688 536 643 454 688 b 65 335 188 688 65 549 b 364 -17 65 117 189 -17 b 594 107 463 -17 549 38 b 739 -17 606 29 653 -17 b 793 -11 758 -17 779 -14 z m 389 76 b 174 335 254 76 174 186 b 389 594 174 483 254 594 b 590 486 472 594 553 544 l 590 182 b 389 76 553 124 472 76 z "},"β":{"ha":799,"x_min":0,"x_max":0,"o":"m 208 632 b 421 847 208 776 307 847 b 603 683 521 847 603 786 b 404 521 603 574 514 521 l 358 521 l 358 428 l 407 428 b 625 256 526 428 625 374 b 415 76 625 147 550 76 b 208 182 326 76 247 124 z m 208 100 b 446 -17 258 32 340 -17 b 733 240 610 -17 733 88 b 519 478 733 399 604 471 b 713 693 606 493 713 560 b 421 940 713 850 588 940 b 104 632 264 940 104 847 l 104 -256 l 208 -256 z "},"γ":{"ha":681,"x_min":0,"x_max":0,"o":"m 393 -256 l 393 7 b 642 671 540 196 642 453 l 538 671 b 361 129 538 481 458 265 b 113 671 342 310 235 547 l -10 671 b 289 -68 157 506 289 221 l 289 -256 z "},"δ":{"ha":794,"x_min":0,"x_max":0,"o":"m 401 -17 b 729 306 606 -17 729 142 b 247 753 729 696 247 600 b 396 858 247 813 304 858 b 596 774 483 858 556 822 l 644 846 b 396 943 592 900 511 943 b 147 750 236 943 147 854 b 261 600 147 671 194 629 b 65 310 147 551 65 451 b 401 -17 65 142 193 -17 z m 628 306 b 399 76 628 199 544 76 b 174 310 256 76 174 199 b 375 558 174 426 242 518 b 628 306 499 518 628 472 z "},"ε":{"ha":714,"x_min":0,"x_max":0,"o":"m 372 -17 b 675 93 507 -17 608 26 l 624 160 b 372 69 561 100 472 69 b 175 186 253 69 175 115 b 386 297 175 269 268 297 l 536 297 l 536 382 l 386 382 b 188 494 275 382 188 418 b 383 601 188 558 272 601 b 608 515 478 601 551 574 l 663 579 b 388 686 600 643 510 686 b 79 507 207 688 79 621 b 260 343 79 407 181 353 b 65 179 182 338 65 290 b 372 -17 65 67 179 -17 z "},"ζ":{"ha":679,"x_min":0,"x_max":0,"o":"m 515 -67 b 451 -218 515 -110 482 -171 l 564 -218 b 625 -47 603 -150 625 -94 b 449 76 625 40 572 76 b 174 300 283 76 174 156 b 618 847 174 514 350 693 l 618 926 l 88 926 l 88 835 l 482 835 b 65 293 229 697 65 515 b 436 -17 65 101 215 -17 b 515 -67 492 -17 515 -28 z "},"η":{"ha":765,"x_min":0,"x_max":0,"o":"m 661 -256 l 661 471 b 447 688 661 617 588 688 b 208 574 347 688 256 629 l 208 671 l 104 671 l 104 0 l 208 0 l 208 490 b 407 594 247 544 325 594 b 557 439 497 594 557 557 l 557 -256 z "},"θ":{"ha":794,"x_min":0,"x_max":0,"o":"m 397 -17 b 729 464 621 -17 729 199 b 397 943 729 729 621 943 b 65 464 174 943 65 729 b 397 -17 65 199 174 -17 z m 397 76 b 175 419 246 76 183 222 l 618 419 b 397 76 611 224 550 76 z m 397 850 b 618 511 549 850 610 703 l 175 511 b 397 850 183 703 246 850 z "},"ι":{"ha":332,"x_min":0,"x_max":0,"o":"m 253 -17 b 308 -11 272 -17 293 -14 l 300 79 b 274 76 294 78 283 76 b 208 157 231 76 208 108 l 208 671 l 104 671 l 104 140 b 253 -17 104 40 154 -17 z "},"κ":{"ha":714,"x_min":0,"x_max":0,"o":"m 694 0 l 396 367 l 693 671 l 561 671 l 208 314 l 208 671 l 104 671 l 104 0 l 208 0 l 208 192 l 319 301 l 561 0 z "},"λ":{"ha":681,"x_min":0,"x_max":0,"o":"m 83 839 b 140 850 99 846 124 850 b 240 778 186 850 217 835 l 285 676 l 4 0 l 117 0 l 340 550 l 563 0 l 676 0 l 340 807 b 143 943 300 904 232 942 b 67 932 121 943 86 939 z "},"μ":{"ha":785,"x_min":0,"x_max":0,"o":"m 208 50 b 349 -17 228 14 269 -17 b 561 103 435 -17 514 38 b 706 -17 575 29 618 -17 b 761 -11 725 -17 746 -14 l 753 79 b 726 76 747 78 736 76 b 661 157 683 76 661 108 l 661 671 l 557 671 l 557 178 b 361 74 518 124 440 74 b 208 229 268 74 208 118 l 208 671 l 104 671 l 104 -256 l 208 -256 z "},"µ":{"ha":785,"x_min":0,"x_max":0,"o":"m 208 50 b 349 -17 228 14 269 -17 b 561 103 435 -17 514 38 b 706 -17 575 29 618 -17 b 761 -11 725 -17 746 -14 l 753 79 b 726 76 747 78 736 76 b 661 157 683 76 661 108 l 661 671 l 557 671 l 557 178 b 361 74 518 124 440 74 b 208 229 268 74 208 118 l 208 671 l 104 671 l 104 -256 l 208 -256 z "},"ν":{"ha":681,"x_min":0,"x_max":0,"o":"m 388 0 b 642 671 539 190 642 451 l 538 671 b 344 106 538 481 463 268 l 117 671 l 4 671 l 283 0 z "},"ξ":{"ha":679,"x_min":0,"x_max":0,"o":"m 436 -17 b 515 -67 492 -17 515 -28 b 451 -218 515 -110 482 -171 l 564 -218 b 625 -47 603 -150 625 -94 b 449 76 625 40 572 76 b 174 256 274 76 174 142 b 400 431 174 378 274 431 l 599 431 l 599 521 l 400 521 b 189 668 286 521 189 569 b 346 835 189 742 256 814 l 606 835 l 606 926 l 90 926 l 90 835 l 229 835 b 79 643 144 804 79 725 b 256 463 79 528 183 475 b 65 239 178 447 65 381 b 436 -17 65 79 197 -17 z "},"ο":{"ha":794,"x_min":0,"x_max":0,"o":"m 397 -17 b 729 336 601 -17 729 142 b 397 688 729 531 601 688 b 65 336 193 688 65 531 b 397 -17 65 142 193 -17 z m 397 76 b 174 336 254 76 174 199 b 397 594 174 472 254 594 b 619 336 540 594 619 472 b 397 76 619 199 540 76 z "},"π":{"ha":808,"x_min":0,"x_max":0,"o":"m 683 0 l 683 579 l 794 579 l 794 671 l 14 671 l 14 579 l 125 579 l 125 0 l 229 0 l 229 579 l 579 579 l 579 0 z "},"ρ":{"ha":794,"x_min":0,"x_max":0,"o":"m 435 -17 b 733 336 611 -17 733 119 b 417 688 733 531 613 688 b 104 336 224 688 104 531 l 104 -256 l 208 -256 l 208 101 b 435 -17 263 26 343 -17 z m 408 76 b 208 185 326 76 244 126 l 208 336 b 415 594 208 472 282 594 b 624 336 550 594 624 472 b 408 76 624 188 543 76 z "},"ς":{"ha":671,"x_min":0,"x_max":0,"o":"m 439 -17 b 521 -67 492 -17 521 -28 b 457 -218 521 -110 488 -171 l 565 -218 b 625 -47 603 -150 625 -94 b 444 76 625 40 567 76 b 174 336 286 76 174 163 b 406 594 174 485 263 594 b 576 507 475 594 532 568 l 646 571 b 400 688 594 638 522 688 b 65 336 200 688 65 535 b 439 -17 65 117 214 -17 z "},"σ":{"ha":794,"x_min":0,"x_max":0,"o":"m 722 313 b 600 578 722 440 672 521 l 760 578 l 760 671 l 415 671 b 65 336 193 671 65 521 b 397 -17 65 142 193 -17 b 722 313 601 -17 722 133 z m 619 328 b 397 76 619 199 540 76 b 174 336 254 76 174 199 b 415 578 174 458 254 578 l 481 578 b 619 328 561 536 619 447 z "},"τ":{"ha":650,"x_min":0,"x_max":0,"o":"m 421 -17 b 546 26 482 -17 519 1 l 515 104 b 444 76 501 89 474 76 b 376 163 399 76 376 113 l 376 579 l 614 579 l 614 671 l 36 671 l 36 579 l 272 579 l 272 140 b 421 -17 272 40 322 -17 z "},"υ":{"ha":781,"x_min":0,"x_max":0,"o":"m 382 -17 b 715 347 588 -17 715 140 b 597 688 715 474 672 593 l 504 640 b 606 347 574 560 606 457 b 382 76 606 199 526 76 b 208 296 271 76 208 161 l 208 671 l 104 671 l 104 294 b 382 -17 104 107 197 -17 z "},"φ":{"ha":1033,"x_min":0,"x_max":0,"o":"m 967 336 b 517 688 967 542 822 688 l 464 688 l 464 78 b 174 353 256 94 174 206 b 358 607 174 467 244 551 l 314 688 b 65 353 179 626 65 515 b 464 -14 65 142 194 1 l 464 -256 l 568 -256 l 568 -15 b 967 336 838 0 967 140 z m 858 336 b 568 78 858 204 778 93 l 568 593 b 858 336 765 583 858 475 z "},"χ":{"ha":675,"x_min":0,"x_max":0,"o":"m 660 -256 l 401 221 l 644 671 l 528 671 l 338 318 l 147 671 l 31 671 l 274 221 l 17 -256 l 132 -256 l 338 124 l 543 -256 z "},"ψ":{"ha":1033,"x_min":0,"x_max":0,"o":"m 568 -256 l 568 -15 b 929 308 807 0 929 121 l 929 671 l 825 671 l 825 308 b 568 78 825 175 729 92 l 568 926 l 464 926 l 464 79 b 208 308 301 93 208 175 l 208 671 l 104 671 l 104 308 b 464 -15 104 122 224 0 l 464 -256 z "},"ω":{"ha":1122,"x_min":0,"x_max":0,"o":"m 1056 336 b 921 688 1056 485 1010 614 l 844 624 b 947 336 925 550 947 446 b 779 76 947 199 886 76 b 613 336 671 76 613 199 l 613 507 l 508 507 l 508 336 b 342 76 508 199 450 76 b 174 336 235 76 174 199 b 276 624 174 446 197 550 l 201 688 b 65 336 113 614 65 485 b 329 -17 65 142 167 -17 b 561 188 461 -17 532 89 b 793 -17 589 89 661 -17 b 1056 336 954 -17 1056 142 z "},"Ά":{"ha":914,"x_min":0,"x_max":0,"o":"m 253 785 l 333 1063 l 228 1063 l 201 785 z m 901 0 l 528 926 l 385 926 l 13 0 l 144 0 l 226 206 l 688 206 l 769 0 z m 653 308 l 260 308 l 457 807 z "},"Έ":{"ha":814,"x_min":0,"x_max":0,"o":"m 33 785 l 114 1063 l 8 1063 l -18 785 z m 739 0 l 739 103 l 247 103 l 247 422 l 729 422 l 729 525 l 247 525 l 247 824 l 739 824 l 739 926 l 132 926 l 132 0 z "},"Ή":{"ha":1013,"x_min":0,"x_max":0,"o":"m 33 785 l 114 1063 l 8 1063 l -18 785 z m 904 0 l 904 926 l 789 926 l 789 528 l 247 528 l 247 926 l 132 926 l 132 0 l 247 0 l 247 425 l 789 425 l 789 0 z "},"Ί":{"ha":354,"x_min":0,"x_max":0,"o":"m 33 785 l 114 1063 l 8 1063 l -18 785 z m 247 0 l 247 926 l 132 926 l 132 0 z "},"Ό":{"ha":1063,"x_min":0,"x_max":0,"o":"m 82 785 l 163 1063 l 57 1063 l 31 785 z m 531 -17 b 990 463 804 -17 990 189 b 531 942 990 736 804 942 b 71 463 256 942 71 736 b 531 -17 71 189 256 -17 z m 531 86 b 190 463 322 86 190 247 b 531 839 190 679 322 839 b 871 463 738 839 871 679 b 531 86 871 247 738 86 z "},"Ύ":{"ha":950,"x_min":0,"x_max":0,"o":"m 33 785 l 114 1063 l 8 1063 l -18 785 z m 574 0 l 574 392 l 938 926 l 803 926 l 515 496 l 228 926 l 93 926 l 458 392 l 458 0 z "},"Ώ":{"ha":1068,"x_min":0,"x_max":0,"o":"m 82 785 l 163 1063 l 57 1063 l 31 785 z m 101 103 l 101 0 l 435 0 l 435 103 b 196 464 314 133 196 260 b 536 838 196 668 315 838 b 876 464 757 838 876 668 b 639 103 876 260 760 133 l 639 0 l 972 0 l 972 103 l 786 103 b 996 483 907 176 996 301 b 536 942 996 750 811 942 b 76 483 263 942 76 750 b 289 103 76 301 167 176 z "},"Ϊ":{"ha":332,"x_min":0,"x_max":0,"o":"m 224 0 l 224 926 l 108 926 l 108 0 z m 374 1094 b 308 1158 374 1129 343 1158 b 243 1094 274 1158 243 1129 b 308 1029 243 1058 274 1029 b 374 1094 343 1029 374 1058 z m 86 1094 b 22 1158 86 1129 57 1158 b -43 1094 -14 1158 -43 1129 b 22 1029 -43 1058 -14 1029 b 86 1094 57 1029 86 1058 z "},"Ϋ":{"ha":869,"x_min":0,"x_max":0,"o":"m 493 0 l 493 392 l 857 926 l 722 926 l 435 496 l 147 926 l 13 926 l 378 392 l 378 0 z m 643 1094 b 578 1158 643 1129 613 1158 b 513 1094 543 1158 513 1129 b 578 1029 513 1058 543 1029 b 643 1094 613 1029 643 1058 z m 356 1094 b 292 1158 356 1129 326 1158 b 226 1094 256 1158 226 1129 b 292 1029 226 1058 256 1029 b 356 1094 326 1029 356 1058 z "},"ά":{"ha":818,"x_min":0,"x_max":0,"o":"m 421 785 l 501 1063 l 396 1063 l 369 785 z m 786 79 b 758 76 779 78 768 76 b 694 157 717 76 694 108 l 694 671 l 589 671 l 589 569 b 364 688 536 643 454 688 b 65 335 188 688 65 549 b 364 -17 65 117 189 -17 b 594 107 463 -17 549 38 b 739 -17 606 29 653 -17 b 793 -11 758 -17 779 -14 z m 389 76 b 174 335 254 76 174 186 b 389 594 174 483 254 594 b 590 486 472 594 553 544 l 590 182 b 389 76 553 124 472 76 z "},"έ":{"ha":714,"x_min":0,"x_max":0,"o":"m 368 785 l 449 1063 l 343 1063 l 317 785 z m 372 -17 b 675 93 507 -17 608 26 l 624 160 b 372 69 561 100 472 69 b 175 186 253 69 175 115 b 386 297 175 269 268 297 l 536 297 l 536 382 l 386 382 b 188 494 275 382 188 418 b 383 601 188 558 272 601 b 608 515 478 601 551 574 l 663 579 b 388 686 600 643 510 686 b 79 507 207 688 79 621 b 260 343 79 407 181 353 b 65 179 182 338 65 290 b 372 -17 65 67 179 -17 z "},"ή":{"ha":765,"x_min":0,"x_max":0,"o":"m 394 785 l 475 1063 l 369 1063 l 343 785 z m 661 -256 l 661 471 b 447 688 661 617 588 688 b 208 574 347 688 256 629 l 208 671 l 104 671 l 104 0 l 208 0 l 208 490 b 407 594 247 544 325 594 b 557 439 497 594 557 557 l 557 -256 z "},"ί":{"ha":332,"x_min":0,"x_max":0,"o":"m 179 785 l 260 1063 l 154 1063 l 128 785 z m 253 -17 b 308 -11 272 -17 293 -14 l 300 79 b 274 76 294 78 283 76 b 208 157 231 76 208 108 l 208 671 l 104 671 l 104 140 b 253 -17 104 40 154 -17 z "},"ϊ":{"ha":332,"x_min":0,"x_max":0,"o":"m 375 839 b 310 903 375 874 344 903 b 244 839 275 903 244 874 b 310 774 244 803 275 774 b 375 839 344 774 375 803 z m 88 839 b 24 903 88 874 58 903 b -42 839 -12 903 -42 874 b 24 774 -42 803 -12 774 b 88 839 58 774 88 803 z m 253 -17 b 308 -11 272 -17 293 -14 l 300 79 b 274 76 294 78 283 76 b 208 157 231 76 208 108 l 208 671 l 104 671 l 104 140 b 253 -17 104 40 154 -17 z "},"ΐ":{"ha":332,"x_min":0,"x_max":0,"o":"m 174 785 l 253 1063 l 147 1063 l 121 785 z m 417 839 b 353 903 417 874 388 903 b 289 839 317 903 289 874 b 353 774 289 803 317 774 b 417 839 388 774 417 803 z m 43 839 b -21 903 43 874 14 903 b -85 839 -57 903 -85 874 b -21 774 -85 803 -57 774 b 43 839 14 774 43 803 z m 253 -17 b 308 -11 272 -17 293 -14 l 300 79 b 274 76 294 78 283 76 b 208 157 231 76 208 108 l 208 671 l 104 671 l 104 140 b 253 -17 104 40 154 -17 z "},"ύ":{"ha":781,"x_min":0,"x_max":0,"o":"m 403 785 l 483 1063 l 378 1063 l 351 785 z m 382 -17 b 715 347 588 -17 715 140 b 597 688 715 474 672 593 l 504 640 b 606 347 574 560 606 457 b 382 76 606 199 526 76 b 208 296 271 76 208 161 l 208 671 l 104 671 l 104 294 b 382 -17 104 107 197 -17 z "},"ϋ":{"ha":781,"x_min":0,"x_max":0,"o":"m 597 839 b 532 903 597 874 567 903 b 467 839 497 903 467 874 b 532 774 467 803 497 774 b 597 839 567 774 597 803 z m 310 839 b 246 903 310 874 281 903 b 181 839 210 903 181 874 b 246 774 181 803 210 774 b 310 839 281 774 310 803 z m 382 -17 b 715 347 588 -17 715 140 b 597 688 715 474 672 593 l 504 640 b 606 347 574 560 606 457 b 382 76 606 199 526 76 b 208 296 271 76 208 161 l 208 671 l 104 671 l 104 294 b 382 -17 104 107 197 -17 z "},"ΰ":{"ha":781,"x_min":0,"x_max":0,"o":"m 397 785 l 476 1063 l 371 1063 l 344 785 z m 640 839 b 576 903 640 874 611 903 b 513 839 540 903 513 874 b 576 774 513 803 540 774 b 640 839 611 774 640 803 z m 267 839 b 203 903 267 874 238 903 b 139 839 167 903 139 874 b 203 774 139 803 167 774 b 267 839 238 774 267 803 z m 382 -17 b 715 347 588 -17 715 140 b 597 688 715 474 672 593 l 504 640 b 606 347 574 560 606 457 b 382 76 606 199 526 76 b 208 296 271 76 208 161 l 208 671 l 104 671 l 104 294 b 382 -17 104 107 197 -17 z "},"ό":{"ha":794,"x_min":0,"x_max":0,"o":"m 408 785 l 489 1063 l 383 1063 l 357 785 z m 397 -17 b 729 336 601 -17 729 142 b 397 688 729 531 601 688 b 65 336 193 688 65 531 b 397 -17 65 142 193 -17 z m 397 76 b 174 336 254 76 174 199 b 397 594 174 472 254 594 b 619 336 540 594 619 472 b 397 76 619 199 540 76 z "},"ώ":{"ha":1122,"x_min":0,"x_max":0,"o":"m 572 785 l 653 1063 l 547 1063 l 521 785 z m 1056 336 b 921 688 1056 485 1010 614 l 844 624 b 947 336 925 550 947 446 b 779 76 947 199 886 76 b 613 336 671 76 613 199 l 613 507 l 508 507 l 508 336 b 342 76 508 199 450 76 b 174 336 235 76 174 199 b 276 624 174 446 197 550 l 201 688 b 65 336 113 614 65 485 b 329 -17 65 142 167 -17 b 561 188 461 -17 532 89 b 793 -17 589 89 661 -17 b 1056 336 954 -17 1056 142 z "},"΄":{"ha":276,"x_min":0,"x_max":0,"o":"m 190 785 l 271 1063 l 165 1063 l 139 785 z "}}}
